<?xml version="1.0" encoding="UTF-8" standalone="no"?>
<!-- Created with Inkscape (http://www.inkscape.org/) -->

<svg
   xmlns:dc="http://purl.org/dc/elements/1.1/"
   xmlns:cc="http://creativecommons.org/ns#"
   xmlns:rdf="http://www.w3.org/1999/02/22-rdf-syntax-ns#"
   xmlns:svg="http://www.w3.org/2000/svg"
   xmlns="http://www.w3.org/2000/svg"
   xmlns:sodipodi="http://sodipodi.sourceforge.net/DTD/sodipodi-0.dtd"
   xmlns:inkscape="http://www.inkscape.org/namespaces/inkscape"
   version="1.1"
   id="svg4178"
   xml:space="preserve"
   width="793.32587"
   height="244.61482"
   viewBox="0 0 793.32586 244.61481"
   sodipodi:docname="ForceUrgent.svg"
   inkscape:version="0.92.4 5da689c313, 2019-01-14"><metadata
     id="metadata4184"><rdf:RDF><cc:Work
         rdf:about=""><dc:format>image/svg+xml</dc:format><dc:type
           rdf:resource="http://purl.org/dc/dcmitype/StillImage" /><dc:title></dc:title></cc:Work></rdf:RDF></metadata><defs
     id="defs4182"><clipPath
       clipPathUnits="userSpaceOnUse"
       id="clipPath4194"><path
         d="M 0,0 H 308 V 97 H 0 Z"
         id="path4192"
         inkscape:connector-curvature="0" /></clipPath><clipPath
       clipPathUnits="userSpaceOnUse"
       id="clipPath4206"><path
         d="M 0,0 V 97 H 308 V 0 Z"
         id="path4204"
         inkscape:connector-curvature="0" /></clipPath></defs><sodipodi:namedview
     pagecolor="#ffffff"
     bordercolor="#666666"
     borderopacity="1"
     objecttolerance="10"
     gridtolerance="10"
     guidetolerance="10"
     inkscape:pageopacity="0"
     inkscape:pageshadow="2"
     inkscape:window-width="958"
     inkscape:window-height="1059"
     id="namedview4180"
     showgrid="false"
     fit-margin-top="0"
     fit-margin-left="0"
     fit-margin-right="0"
     fit-margin-bottom="0"
     inkscape:zoom="0.22376737"
     inkscape:cx="-389.86448"
     inkscape:cy="119.69482"
     inkscape:window-x="961"
     inkscape:window-y="20"
     inkscape:window-maximized="0"
     inkscape:current-layer="g4186" /><g
     id="g4186"
     inkscape:groupmode="layer"
     inkscape:label="ForceUrgent"
     transform="scale(2.5757333)"><g
       id="g4188"><g
         id="g4190"
         clip-path="url(#clipPath4194)"><g
           id="g4196"><g
             id="g4198" /></g><g
           id="g4200"><g
             id="g4202"
             clip-path="url(#clipPath4206)"><g
               id="g4208"><path
                 d="M 0,0 V 0 Z"
                 style="fill:#ffffff;fill-opacity:1;fill-rule:nonzero;stroke:none"
                 id="path4210"
                 inkscape:connector-curvature="0" /></g><g
               id="g4212"
               transform="translate(86,62)"><path
                 d="m 77.031,-46 v -11 h 1.328 v 9.719 h 4.922 V -46 Z m 12.646,-2.75 1.281,0.172 c -0.208,0.812 -0.583,1.448 -1.125,1.906 -0.542,0.448 -1.234,0.672 -2.078,0.672 -1.063,0 -1.906,-0.344 -2.531,-1.031 -0.615,-0.688 -0.922,-1.657 -0.922,-2.907 0,-1.291 0.312,-2.291 0.937,-3 0.636,-0.708 1.453,-1.062 2.453,-1.062 0.969,0 1.761,0.333 2.375,1 0.615,0.667 0.922,1.604 0.922,2.812 0,0.073 0,0.183 0,0.329 h -5.422 c 0.052,0.895 0.276,1.583 0.672,2.062 0.407,0.479 0.917,0.719 1.532,0.719 0.447,0 0.828,-0.136 1.14,-0.406 0.323,-0.271 0.578,-0.693 0.766,-1.266 z m -4.031,-2.203 h 4.046 c -0.052,-0.573 -0.208,-1 -0.468,-1.281 -0.386,-0.448 -0.891,-0.672 -1.516,-0.672 -0.573,0 -1.052,0.177 -1.437,0.531 -0.375,0.354 -0.584,0.828 -0.625,1.422 z m 9.536,3.656 0.172,1.172 C 95.01,-46.042 94.702,-46 94.432,-46 c -0.448,0 -0.797,-0.078 -1.047,-0.234 -0.24,-0.157 -0.412,-0.36 -0.516,-0.61 -0.094,-0.25 -0.14,-0.776 -0.14,-1.578 v -4.547 H 91.822 V -54 h 0.907 v -1.938 l 1.218,-0.796 V -54 h 1.235 v 1.031 h -1.235 v 4.625 c 0,0.386 0.021,0.636 0.063,0.75 0.041,0.104 0.109,0.188 0.203,0.25 0.104,0.063 0.245,0.094 0.422,0.094 0.146,0 0.328,-0.016 0.547,-0.047 z m 0.717,-1.141 1.204,-0.218 c 0.072,0.51 0.265,0.901 0.578,1.172 0.312,0.27 0.75,0.406 1.312,0.406 0.563,0 0.979,-0.12 1.247,-0.36 0.28,-0.25 0.43,-0.536 0.43,-0.859 0,-0.292 -0.13,-0.521 -0.38,-0.687 -0.17,-0.125 -0.583,-0.271 -1.25,-0.438 -0.906,-0.25 -1.536,-0.458 -1.891,-0.625 -0.343,-0.177 -0.604,-0.417 -0.781,-0.719 -0.177,-0.312 -0.265,-0.656 -0.265,-1.031 0,-0.344 0.072,-0.656 0.218,-0.937 0.146,-0.292 0.349,-0.537 0.61,-0.735 0.187,-0.146 0.442,-0.271 0.765,-0.375 0.334,-0.104 0.693,-0.156 1.078,-0.156 0.563,0 1.058,0.089 1.486,0.266 0.44,0.177 0.76,0.416 0.97,0.718 0.21,0.292 0.35,0.688 0.42,1.188 l -1.2,0.172 c -0.06,-0.396 -0.22,-0.703 -0.488,-0.922 -0.261,-0.219 -0.63,-0.328 -1.109,-0.328 -0.563,0 -0.964,0.099 -1.204,0.297 -0.239,0.187 -0.359,0.411 -0.359,0.671 0,0.178 0.047,0.334 0.141,0.469 0.104,0.136 0.265,0.25 0.484,0.344 0.115,0.042 0.474,0.151 1.078,0.328 0.875,0.24 1.487,0.438 1.827,0.594 0.35,0.156 0.61,0.385 0.8,0.687 0.2,0.292 0.3,0.662 0.3,1.11 0,0.427 -0.12,0.833 -0.36,1.218 -0.23,0.376 -0.58,0.667 -1.04,0.876 -0.44,0.208 -0.954,0.312 -1.527,0.312 -0.937,0 -1.656,-0.203 -2.156,-0.609 -0.49,-0.417 -0.802,-1.026 -0.938,-1.829 z M 106.82,-50 c 0,-1.427 0.38,-2.474 1.13,-3.141 0.61,-0.573 1.37,-0.859 2.28,-0.859 0.99,0 1.8,0.344 2.43,1.031 0.64,0.688 0.96,1.646 0.96,2.875 0,0.979 -0.14,1.75 -0.42,2.313 -0.29,0.562 -0.7,1 -1.24,1.312 -0.53,0.313 -1.11,0.469 -1.73,0.469 -1.02,0 -1.85,-0.344 -2.47,-1.031 -0.63,-0.688 -0.94,-1.677 -0.94,-2.969 z m 1.27,0 c 0,0.979 0.2,1.714 0.61,2.203 0.4,0.479 0.91,0.719 1.53,0.719 0.6,0 1.11,-0.245 1.51,-0.734 0.41,-0.49 0.61,-1.23 0.61,-2.219 0,-0.948 -0.2,-1.662 -0.61,-2.141 -0.4,-0.489 -0.91,-0.734 -1.51,-0.734 -0.62,0 -1.13,0.239 -1.53,0.718 -0.41,0.48 -0.61,1.209 -0.61,2.188 z m 9.66,2.703 0.17,1.172 c -0.34,0.083 -0.65,0.125 -0.92,0.125 -0.45,0 -0.8,-0.078 -1.05,-0.234 -0.24,-0.157 -0.41,-0.36 -0.52,-0.61 -0.09,-0.25 -0.14,-0.776 -0.14,-1.578 v -4.547 h -0.9 V -54 h 0.9 v -1.938 l 1.22,-0.796 V -54 h 1.24 v 1.031 h -1.24 v 4.625 c 0,0.386 0.02,0.636 0.07,0.75 0.04,0.104 0.1,0.188 0.2,0.25 0.1,0.063 0.24,0.094 0.42,0.094 0.15,0 0.33,-0.016 0.55,-0.047 z m 1.2,1.297 v -11 h 1.23 v 4.078 c 0.58,-0.719 1.3,-1.078 2.18,-1.078 0.54,0 1.01,0.115 1.4,0.344 0.4,0.229 0.68,0.547 0.85,0.953 0.17,0.396 0.26,0.979 0.26,1.75 V -46 h -1.23 v -4.953 c 0,-0.667 -0.14,-1.151 -0.41,-1.453 -0.26,-0.302 -0.63,-0.453 -1.12,-0.453 -0.37,0 -0.71,0.104 -1.04,0.312 -0.32,0.198 -0.55,0.474 -0.68,0.828 -0.14,0.344 -0.21,0.823 -0.21,1.438 V -46 Z m 12.75,-2.75 1.29,0.172 c -0.21,0.812 -0.59,1.448 -1.13,1.906 -0.54,0.448 -1.23,0.672 -2.08,0.672 -1.06,0 -1.9,-0.344 -2.53,-1.031 -0.61,-0.688 -0.92,-1.657 -0.92,-2.907 0,-1.291 0.31,-2.291 0.94,-3 0.63,-0.708 1.45,-1.062 2.45,-1.062 0.97,0 1.76,0.333 2.37,1 0.62,0.667 0.93,1.604 0.93,2.812 0,0.073 0,0.183 0,0.329 h -5.43 c 0.06,0.895 0.28,1.583 0.68,2.062 0.4,0.479 0.91,0.719 1.53,0.719 0.45,0 0.83,-0.136 1.14,-0.406 0.32,-0.271 0.58,-0.693 0.76,-1.266 z m -4.03,-2.203 h 4.05 c -0.05,-0.573 -0.21,-1 -0.47,-1.281 -0.38,-0.448 -0.89,-0.672 -1.51,-0.672 -0.58,0 -1.06,0.177 -1.44,0.531 -0.38,0.354 -0.59,0.828 -0.63,1.422 z m 6.84,4.953 v -8 h 1.11 v 1.203 c 0.28,-0.489 0.54,-0.812 0.78,-0.969 0.24,-0.156 0.5,-0.234 0.79,-0.234 0.42,0 0.84,0.083 1.27,0.25 l -0.42,1.25 c -0.3,-0.198 -0.61,-0.297 -0.91,-0.297 -0.27,0 -0.51,0.089 -0.73,0.266 -0.21,0.177 -0.36,0.427 -0.46,0.75 -0.13,0.479 -0.2,1.005 -0.2,1.578 V -46 Z m 13.3,-0.969 c -0.45,0.417 -0.89,0.683 -1.31,0.797 -0.42,0.115 -0.87,0.172 -1.36,0.172 -0.8,0 -1.41,-0.203 -1.85,-0.609 -0.43,-0.407 -0.64,-0.933 -0.64,-1.579 0,-0.374 0.08,-0.713 0.24,-1.015 0.16,-0.313 0.38,-0.557 0.64,-0.735 0.27,-0.187 0.56,-0.333 0.89,-0.437 0.24,-0.063 0.6,-0.13 1.09,-0.203 1,-0.115 1.74,-0.261 2.2,-0.438 0,-0.177 0,-0.286 0,-0.328 0,-0.531 -0.11,-0.906 -0.34,-1.125 -0.31,-0.291 -0.78,-0.437 -1.41,-0.437 -0.57,0 -1,0.109 -1.28,0.328 -0.27,0.208 -0.47,0.583 -0.61,1.125 l -1.2,-0.172 c 0.1,-0.542 0.28,-0.979 0.53,-1.313 0.26,-0.343 0.63,-0.604 1.1,-0.781 0.47,-0.187 1.03,-0.281 1.65,-0.281 0.62,0 1.12,0.078 1.5,0.234 0.39,0.157 0.67,0.355 0.85,0.594 0.18,0.24 0.31,0.542 0.39,0.906 0.04,0.219 0.06,0.625 0.06,1.219 v 1.766 c 0,1.239 0.02,2.021 0.08,2.343 0.05,0.323 0.15,0.636 0.31,0.938 h -1.28 c -0.13,-0.271 -0.21,-0.594 -0.25,-0.969 z m -0.1,-3.047 c -0.44,0.198 -1.12,0.36 -2.01,0.485 -0.5,0.073 -0.86,0.161 -1.08,0.265 -0.21,0.094 -0.37,0.235 -0.48,0.422 -0.12,0.177 -0.18,0.38 -0.18,0.61 0,0.343 0.13,0.63 0.38,0.859 0.25,0.229 0.61,0.344 1.09,0.344 0.48,0 0.9,-0.11 1.27,-0.328 0.36,-0.219 0.63,-0.516 0.81,-0.891 0.14,-0.292 0.2,-0.724 0.2,-1.297 z m 7.91,4.016 v -1.328 c -0.57,0.885 -1.34,1.328 -2.31,1.328 -0.42,0 -0.83,-0.089 -1.2,-0.266 -0.37,-0.177 -0.64,-0.395 -0.83,-0.656 -0.18,-0.271 -0.3,-0.599 -0.37,-0.984 -0.06,-0.261 -0.08,-0.677 -0.08,-1.25 V -54 h 1.23 v 4.344 c 0,0.687 0.03,1.156 0.08,1.406 0.07,0.344 0.24,0.615 0.48,0.812 0.26,0.198 0.57,0.297 0.94,0.297 0.37,0 0.71,-0.099 1.03,-0.297 0.33,-0.208 0.56,-0.484 0.69,-0.828 0.14,-0.354 0.2,-0.864 0.2,-1.531 V -54 h 1.24 v 8 z m 5.71,-1.297 0.17,1.172 c -0.34,0.083 -0.65,0.125 -0.92,0.125 -0.44,0 -0.79,-0.078 -1.04,-0.234 -0.24,-0.157 -0.42,-0.36 -0.52,-0.61 -0.09,-0.25 -0.14,-0.776 -0.14,-1.578 v -4.547 h -0.91 V -54 h 0.91 v -1.938 l 1.22,-0.796 V -54 h 1.23 v 1.031 h -1.23 v 4.625 c 0,0.386 0.02,0.636 0.06,0.75 0.04,0.104 0.11,0.188 0.2,0.25 0.11,0.063 0.25,0.094 0.43,0.094 0.14,0 0.32,-0.016 0.54,-0.047 z M 162.08,-50 c 0,-1.427 0.38,-2.474 1.13,-3.141 0.61,-0.573 1.37,-0.859 2.28,-0.859 0.99,0 1.8,0.344 2.44,1.031 0.63,0.688 0.95,1.646 0.95,2.875 0,0.979 -0.14,1.75 -0.42,2.313 -0.28,0.562 -0.7,1 -1.24,1.312 -0.53,0.313 -1.11,0.469 -1.73,0.469 -1.02,0 -1.85,-0.344 -2.47,-1.031 -0.63,-0.688 -0.94,-1.677 -0.94,-2.969 z m 1.27,0 c 0,0.979 0.2,1.714 0.61,2.203 0.4,0.479 0.91,0.719 1.53,0.719 0.6,0 1.11,-0.245 1.51,-0.734 0.41,-0.49 0.61,-1.23 0.61,-2.219 0,-0.948 -0.2,-1.662 -0.61,-2.141 -0.4,-0.489 -0.91,-0.734 -1.51,-0.734 -0.62,0 -1.13,0.239 -1.53,0.718 -0.41,0.48 -0.61,1.209 -0.61,2.188 z m 6.97,4 v -8 h 1.11 v 1.094 c 0.22,-0.323 0.52,-0.584 0.89,-0.782 0.39,-0.208 0.82,-0.312 1.3,-0.312 0.54,0 0.98,0.104 1.33,0.312 0.34,0.209 0.58,0.506 0.73,0.891 0.57,-0.802 1.32,-1.203 2.24,-1.203 0.71,0 1.27,0.214 1.65,0.641 0.4,0.427 0.6,1.088 0.6,1.984 V -46 h -1.24 v -5.047 c 0,-0.542 -0.04,-0.932 -0.12,-1.172 -0.08,-0.239 -0.22,-0.432 -0.43,-0.578 -0.2,-0.156 -0.45,-0.234 -0.73,-0.234 -0.51,0 -0.94,0.192 -1.28,0.578 -0.34,0.375 -0.5,0.974 -0.5,1.797 V -46 h -1.24 v -5.203 c 0,-0.615 -0.1,-1.073 -0.29,-1.375 -0.2,-0.302 -0.53,-0.453 -0.99,-0.453 -0.34,0 -0.66,0.104 -0.97,0.312 -0.29,0.198 -0.5,0.495 -0.64,0.891 -0.12,0.385 -0.18,0.937 -0.18,1.656 V -46 Z m 16.4,-0.969 c -0.45,0.417 -0.89,0.683 -1.31,0.797 -0.42,0.115 -0.87,0.172 -1.36,0.172 -0.8,0 -1.41,-0.203 -1.85,-0.609 -0.42,-0.407 -0.64,-0.933 -0.64,-1.579 0,-0.374 0.08,-0.713 0.24,-1.015 0.16,-0.313 0.38,-0.557 0.64,-0.735 0.27,-0.187 0.56,-0.333 0.89,-0.437 0.24,-0.063 0.6,-0.13 1.09,-0.203 1,-0.115 1.74,-0.261 2.2,-0.438 0,-0.177 0,-0.286 0,-0.328 0,-0.531 -0.11,-0.906 -0.34,-1.125 -0.31,-0.291 -0.78,-0.437 -1.41,-0.437 -0.57,0 -1,0.109 -1.28,0.328 -0.27,0.208 -0.47,0.583 -0.61,1.125 l -1.2,-0.172 c 0.1,-0.542 0.28,-0.979 0.53,-1.313 0.26,-0.343 0.63,-0.604 1.1,-0.781 0.47,-0.187 1.03,-0.281 1.65,-0.281 0.62,0 1.12,0.078 1.5,0.234 0.39,0.157 0.67,0.355 0.85,0.594 0.18,0.24 0.31,0.542 0.39,0.906 0.04,0.219 0.06,0.625 0.06,1.219 v 1.766 c 0,1.239 0.02,2.021 0.08,2.343 0.05,0.323 0.15,0.636 0.31,0.938 h -1.28 c -0.13,-0.271 -0.21,-0.594 -0.25,-0.969 z m -0.1,-3.047 c -0.44,0.198 -1.12,0.36 -2.01,0.485 -0.5,0.073 -0.86,0.161 -1.08,0.265 -0.21,0.094 -0.37,0.235 -0.48,0.422 -0.12,0.177 -0.18,0.38 -0.18,0.61 0,0.343 0.13,0.63 0.38,0.859 0.25,0.229 0.61,0.344 1.09,0.344 0.48,0 0.9,-0.11 1.27,-0.328 0.36,-0.219 0.63,-0.516 0.81,-0.891 0.14,-0.292 0.2,-0.724 0.2,-1.297 z m 5.84,2.719 0.17,1.172 c -0.34,0.083 -0.65,0.125 -0.92,0.125 -0.45,0 -0.8,-0.078 -1.05,-0.234 -0.24,-0.157 -0.41,-0.36 -0.52,-0.61 -0.09,-0.25 -0.14,-0.776 -0.14,-1.578 v -4.547 h -0.9 V -54 h 0.9 v -1.938 l 1.22,-0.796 V -54 h 1.24 v 1.031 h -1.24 v 4.625 c 0,0.386 0.02,0.636 0.07,0.75 0.04,0.104 0.1,0.188 0.2,0.25 0.1,0.063 0.24,0.094 0.42,0.094 0.15,0 0.33,-0.016 0.55,-0.047 z m 5.93,0.328 c -0.44,0.417 -0.88,0.683 -1.31,0.797 -0.42,0.115 -0.87,0.172 -1.36,0.172 -0.79,0 -1.4,-0.203 -1.84,-0.609 -0.43,-0.407 -0.64,-0.933 -0.64,-1.579 0,-0.374 0.08,-0.713 0.23,-1.015 0.17,-0.313 0.38,-0.557 0.64,-0.735 0.27,-0.187 0.57,-0.333 0.89,-0.437 0.24,-0.063 0.61,-0.13 1.1,-0.203 1,-0.115 1.73,-0.261 2.2,-0.438 0,-0.177 0,-0.286 0,-0.328 0,-0.531 -0.11,-0.906 -0.34,-1.125 -0.32,-0.291 -0.79,-0.437 -1.41,-0.437 -0.57,0 -1,0.109 -1.28,0.328 -0.27,0.208 -0.48,0.583 -0.61,1.125 l -1.2,-0.172 c 0.1,-0.542 0.28,-0.979 0.53,-1.313 0.26,-0.343 0.62,-0.604 1.09,-0.781 0.48,-0.187 1.03,-0.281 1.66,-0.281 0.61,0 1.11,0.078 1.5,0.234 0.38,0.157 0.66,0.355 0.84,0.594 0.19,0.24 0.32,0.542 0.39,0.906 0.04,0.219 0.06,0.625 0.06,1.219 v 1.766 c 0,1.239 0.03,2.021 0.08,2.343 0.05,0.323 0.16,0.636 0.31,0.938 h -1.28 c -0.12,-0.271 -0.2,-0.594 -0.25,-0.969 z m -0.09,-3.047 c -0.45,0.198 -1.12,0.36 -2.02,0.485 -0.5,0.073 -0.86,0.161 -1.07,0.265 -0.21,0.094 -0.37,0.235 -0.49,0.422 -0.11,0.177 -0.17,0.38 -0.17,0.61 0,0.343 0.12,0.63 0.37,0.859 0.25,0.229 0.62,0.344 1.1,0.344 0.48,0 0.9,-0.11 1.26,-0.328 0.37,-0.219 0.64,-0.516 0.82,-0.891 0.13,-0.292 0.2,-0.724 0.2,-1.297 z"
                 style="fill:#969696;fill-opacity:1;fill-rule:nonzero;stroke:none"
                 id="path4214"
                 inkscape:connector-curvature="0" /><path
                 d="m 79.609,-30.297 0.172,1.172 C 79.438,-29.042 79.13,-29 78.859,-29 c -0.448,0 -0.797,-0.078 -1.047,-0.234 -0.239,-0.157 -0.411,-0.36 -0.515,-0.61 -0.094,-0.25 -0.141,-0.776 -0.141,-1.578 v -4.547 H 76.25 V -37 h 0.906 v -1.938 l 1.219,-0.796 V -37 h 1.234 v 1.031 h -1.234 v 4.625 c 0,0.386 0.021,0.636 0.063,0.75 0.041,0.104 0.109,0.188 0.203,0.25 0.104,0.063 0.244,0.094 0.421,0.094 0.146,0 0.329,-0.016 0.547,-0.047 z M 85.577,-29 v -1.328 c -0.573,0.885 -1.344,1.328 -2.312,1.328 -0.427,0 -0.828,-0.089 -1.203,-0.266 -0.365,-0.177 -0.641,-0.395 -0.829,-0.656 -0.177,-0.271 -0.302,-0.599 -0.375,-0.984 -0.052,-0.261 -0.078,-0.677 -0.078,-1.25 V -37 h 1.235 v 4.344 c 0,0.687 0.026,1.156 0.078,1.406 0.073,0.344 0.234,0.615 0.484,0.812 0.25,0.198 0.563,0.297 0.938,0.297 0.364,0 0.708,-0.099 1.031,-0.297 0.323,-0.208 0.552,-0.484 0.687,-0.828 0.136,-0.354 0.204,-0.864 0.204,-1.531 V -37 h 1.234 v 8 z m 3.005,0 v -8 h 1.109 v 1.203 c 0.282,-0.489 0.542,-0.812 0.782,-0.969 0.239,-0.156 0.505,-0.234 0.797,-0.234 0.416,0 0.838,0.083 1.265,0.25 l -0.422,1.25 c -0.302,-0.198 -0.604,-0.297 -0.906,-0.297 -0.271,0 -0.516,0.089 -0.734,0.266 -0.209,0.177 -0.36,0.427 -0.453,0.75 -0.136,0.479 -0.204,1.005 -0.204,1.578 V -29 Z m 4.678,0 v -8 h 1.109 v 1.109 C 94.9,-36.63 95.671,-37 96.682,-37 c 0.437,0 0.838,0.083 1.203,0.25 0.364,0.167 0.635,0.391 0.812,0.672 0.188,0.271 0.318,0.599 0.391,0.984 0.052,0.24 0.078,0.667 0.078,1.282 V -29 h -1.234 v -4.891 c 0,-0.552 -0.047,-0.963 -0.141,-1.234 -0.094,-0.271 -0.266,-0.49 -0.516,-0.656 -0.239,-0.167 -0.526,-0.25 -0.859,-0.25 -0.521,0 -0.974,0.187 -1.359,0.562 -0.375,0.365 -0.563,1.058 -0.563,2.078 V -29 Z m 16.41,-0.969 c -0.45,0.417 -0.89,0.683 -1.31,0.797 -0.42,0.115 -0.87,0.172 -1.36,0.172 -0.79,0 -1.41,-0.203 -1.85,-0.609 -0.42,-0.407 -0.64,-0.933 -0.64,-1.579 0,-0.374 0.08,-0.713 0.24,-1.015 0.16,-0.313 0.38,-0.557 0.64,-0.735 0.27,-0.187 0.57,-0.333 0.89,-0.437 0.24,-0.063 0.6,-0.13 1.09,-0.203 1,-0.115 1.74,-0.261 2.21,-0.438 0,-0.177 0,-0.286 0,-0.328 0,-0.531 -0.12,-0.906 -0.35,-1.125 -0.31,-0.291 -0.78,-0.437 -1.4,-0.437 -0.58,0 -1,0.109 -1.29,0.328 -0.27,0.208 -0.47,0.583 -0.6,1.125 l -1.21,-0.172 c 0.11,-0.542 0.28,-0.979 0.53,-1.313 0.26,-0.343 0.63,-0.604 1.1,-0.781 0.48,-0.187 1.03,-0.281 1.65,-0.281 0.62,0 1.12,0.078 1.5,0.234 0.39,0.157 0.67,0.355 0.85,0.594 0.18,0.24 0.32,0.542 0.39,0.906 0.04,0.219 0.06,0.625 0.06,1.219 v 1.766 c 0,1.239 0.03,2.021 0.08,2.343 0.05,0.323 0.15,0.636 0.31,0.938 h -1.28 c -0.13,-0.271 -0.21,-0.594 -0.25,-0.969 z m -0.09,-3.047 c -0.45,0.198 -1.12,0.36 -2.02,0.485 -0.5,0.073 -0.86,0.161 -1.08,0.265 -0.21,0.094 -0.37,0.235 -0.48,0.422 -0.12,0.177 -0.17,0.38 -0.17,0.61 0,0.343 0.12,0.63 0.37,0.859 0.25,0.229 0.62,0.344 1.09,0.344 0.48,0 0.91,-0.11 1.27,-0.328 0.37,-0.219 0.64,-0.516 0.81,-0.891 0.14,-0.292 0.21,-0.724 0.21,-1.297 z m 3.14,4.016 v -8 h 1.11 v 1.109 c 0.53,-0.739 1.3,-1.109 2.31,-1.109 0.44,0 0.84,0.083 1.21,0.25 0.36,0.167 0.63,0.391 0.81,0.672 0.19,0.271 0.32,0.599 0.39,0.984 0.05,0.24 0.08,0.667 0.08,1.282 V -29 h -1.24 v -4.891 c 0,-0.552 -0.04,-0.963 -0.14,-1.234 -0.09,-0.271 -0.26,-0.49 -0.51,-0.656 -0.24,-0.167 -0.53,-0.25 -0.86,-0.25 -0.52,0 -0.98,0.187 -1.36,0.562 -0.38,0.365 -0.56,1.058 -0.56,2.078 V -29 Z m 7.74,2.844 -0.14,-1.25 c 0.27,0.083 0.51,0.125 0.7,0.125 0.27,0 0.49,-0.052 0.66,-0.157 0.17,-0.093 0.3,-0.229 0.41,-0.406 0.07,-0.135 0.19,-0.463 0.37,-0.984 0.02,-0.073 0.06,-0.182 0.11,-0.328 L 119.8,-37 h 1.33 l 1.52,4.531 c 0.2,0.573 0.37,1.177 0.53,1.813 0.14,-0.604 0.3,-1.198 0.5,-1.782 L 125.23,-37 h 1.23 l -2.76,7.953 c -0.3,0.865 -0.53,1.458 -0.69,1.781 -0.22,0.438 -0.47,0.756 -0.75,0.954 -0.28,0.208 -0.62,0.312 -1.02,0.312 -0.23,0 -0.49,-0.052 -0.78,-0.156 z m 13.62,-4.141 0.18,1.172 c -0.35,0.083 -0.65,0.125 -0.93,0.125 -0.44,0 -0.79,-0.078 -1.04,-0.234 -0.24,-0.157 -0.41,-0.36 -0.52,-0.61 -0.09,-0.25 -0.14,-0.776 -0.14,-1.578 v -4.547 h -0.9 V -37 h 0.9 v -1.938 l 1.22,-0.796 V -37 h 1.23 v 1.031 h -1.23 v 4.625 c 0,0.386 0.02,0.636 0.06,0.75 0.04,0.104 0.11,0.188 0.21,0.25 0.1,0.063 0.24,0.094 0.42,0.094 0.14,0 0.33,-0.016 0.54,-0.047 z m 1.19,1.297 v -8 h 1.11 v 1.203 c 0.28,-0.489 0.54,-0.812 0.78,-0.969 0.24,-0.156 0.51,-0.234 0.8,-0.234 0.42,0 0.84,0.083 1.26,0.25 l -0.42,1.25 c -0.3,-0.198 -0.6,-0.297 -0.9,-0.297 -0.27,0 -0.52,0.089 -0.74,0.266 -0.21,0.177 -0.36,0.427 -0.45,0.75 -0.14,0.479 -0.2,1.005 -0.2,1.578 V -29 Z m 9.41,-0.969 c -0.44,0.417 -0.88,0.683 -1.31,0.797 -0.42,0.115 -0.87,0.172 -1.36,0.172 -0.79,0 -1.4,-0.203 -1.84,-0.609 -0.43,-0.407 -0.64,-0.933 -0.64,-1.579 0,-0.374 0.08,-0.713 0.23,-1.015 0.17,-0.313 0.38,-0.557 0.64,-0.735 0.27,-0.187 0.57,-0.333 0.89,-0.437 0.24,-0.063 0.61,-0.13 1.1,-0.203 1,-0.115 1.73,-0.261 2.2,-0.438 0,-0.177 0,-0.286 0,-0.328 0,-0.531 -0.11,-0.906 -0.34,-1.125 -0.32,-0.291 -0.79,-0.437 -1.41,-0.437 -0.57,0 -1,0.109 -1.28,0.328 -0.27,0.208 -0.48,0.583 -0.61,1.125 l -1.2,-0.172 c 0.1,-0.542 0.28,-0.979 0.53,-1.313 0.26,-0.343 0.62,-0.604 1.09,-0.781 0.48,-0.187 1.03,-0.281 1.66,-0.281 0.61,0 1.11,0.078 1.5,0.234 0.38,0.157 0.66,0.355 0.84,0.594 0.19,0.24 0.32,0.542 0.39,0.906 0.04,0.219 0.06,0.625 0.06,1.219 v 1.766 c 0,1.239 0.03,2.021 0.08,2.343 0.05,0.323 0.16,0.636 0.31,0.938 h -1.28 c -0.12,-0.271 -0.2,-0.594 -0.25,-0.969 z m -0.09,-3.047 c -0.45,0.198 -1.12,0.36 -2.02,0.485 -0.5,0.073 -0.86,0.161 -1.07,0.265 -0.21,0.094 -0.37,0.235 -0.49,0.422 -0.11,0.177 -0.17,0.38 -0.17,0.61 0,0.343 0.12,0.63 0.37,0.859 0.25,0.229 0.62,0.344 1.1,0.344 0.48,0 0.9,-0.11 1.26,-0.328 0.37,-0.219 0.64,-0.516 0.82,-0.891 0.13,-0.292 0.2,-0.724 0.2,-1.297 z m 3.15,4.016 v -8 h 1.1 v 1.109 c 0.54,-0.739 1.31,-1.109 2.32,-1.109 0.43,0 0.84,0.083 1.2,0.25 0.36,0.167 0.64,0.391 0.81,0.672 0.19,0.271 0.32,0.599 0.39,0.984 0.06,0.24 0.08,0.667 0.08,1.282 V -29 h -1.23 v -4.891 c 0,-0.552 -0.05,-0.963 -0.14,-1.234 -0.1,-0.271 -0.27,-0.49 -0.52,-0.656 -0.24,-0.167 -0.53,-0.25 -0.86,-0.25 -0.52,0 -0.97,0.187 -1.36,0.562 -0.37,0.365 -0.56,1.058 -0.56,2.078 V -29 Z m 7.3,-2.438 1.2,-0.218 c 0.07,0.51 0.27,0.901 0.58,1.172 0.31,0.27 0.75,0.406 1.31,0.406 0.56,0 0.98,-0.12 1.25,-0.36 0.28,-0.25 0.42,-0.536 0.42,-0.859 0,-0.292 -0.12,-0.521 -0.37,-0.687 -0.17,-0.125 -0.59,-0.271 -1.25,-0.438 -0.91,-0.25 -1.54,-0.458 -1.89,-0.625 -0.35,-0.177 -0.61,-0.417 -0.78,-0.719 -0.18,-0.312 -0.27,-0.656 -0.27,-1.031 0,-0.344 0.07,-0.656 0.22,-0.937 0.14,-0.292 0.35,-0.537 0.61,-0.735 0.19,-0.146 0.44,-0.271 0.76,-0.375 0.34,-0.104 0.7,-0.156 1.08,-0.156 0.56,0 1.06,0.089 1.49,0.266 0.43,0.177 0.76,0.416 0.97,0.718 0.2,0.292 0.34,0.688 0.42,1.188 l -1.21,0.172 c -0.05,-0.396 -0.21,-0.703 -0.48,-0.922 -0.26,-0.219 -0.63,-0.328 -1.11,-0.328 -0.56,0 -0.96,0.099 -1.2,0.297 -0.24,0.187 -0.36,0.411 -0.36,0.671 0,0.178 0.04,0.334 0.14,0.469 0.1,0.136 0.26,0.25 0.48,0.344 0.12,0.042 0.48,0.151 1.08,0.328 0.88,0.24 1.49,0.438 1.83,0.594 0.34,0.156 0.61,0.385 0.8,0.687 0.19,0.292 0.29,0.662 0.29,1.11 0,0.427 -0.12,0.833 -0.36,1.218 -0.23,0.376 -0.57,0.667 -1.03,0.876 -0.45,0.208 -0.96,0.312 -1.53,0.312 -0.94,0 -1.66,-0.203 -2.16,-0.609 -0.48,-0.417 -0.8,-1.026 -0.93,-1.829 z m 7.5,-7.046 V -40 h 1.22 v 1.516 z m 0,9.484 v -8 h 1.22 v 8 z m 5.78,-1.297 0.17,1.172 c -0.34,0.083 -0.65,0.125 -0.92,0.125 -0.45,0 -0.8,-0.078 -1.05,-0.234 -0.24,-0.157 -0.41,-0.36 -0.51,-0.61 -0.1,-0.25 -0.14,-0.776 -0.14,-1.578 v -4.547 h -0.91 V -37 h 0.91 v -1.938 l 1.21,-0.796 V -37 h 1.24 v 1.031 h -1.24 v 4.625 c 0,0.386 0.03,0.636 0.07,0.75 0.04,0.104 0.11,0.188 0.2,0.25 0.1,0.063 0.25,0.094 0.42,0.094 0.15,0 0.33,-0.016 0.55,-0.047 z m 1.22,-8.187 V -40 h 1.22 v 1.516 z m 0,9.484 v -8 h 1.22 v 8 z m 2.64,-4 c 0,-1.427 0.37,-2.474 1.12,-3.141 0.62,-0.573 1.38,-0.859 2.28,-0.859 0.99,0 1.81,0.344 2.44,1.031 0.64,0.688 0.96,1.646 0.96,2.875 0,0.979 -0.15,1.75 -0.43,2.313 -0.28,0.562 -0.69,1 -1.23,1.312 -0.53,0.313 -1.11,0.469 -1.74,0.469 -1.02,0 -1.84,-0.344 -2.46,-1.031 -0.63,-0.688 -0.94,-1.677 -0.94,-2.969 z m 1.26,0 c 0,0.979 0.21,1.714 0.61,2.203 0.41,0.479 0.92,0.719 1.53,0.719 0.61,0 1.11,-0.245 1.52,-0.734 0.41,-0.49 0.61,-1.23 0.61,-2.219 0,-0.948 -0.2,-1.662 -0.61,-2.141 -0.41,-0.489 -0.91,-0.734 -1.52,-0.734 -0.61,0 -1.12,0.239 -1.53,0.718 -0.4,0.48 -0.61,1.209 -0.61,2.188 z m 6.98,4 v -8 h 1.11 v 1.109 c 0.53,-0.739 1.3,-1.109 2.31,-1.109 0.44,0 0.84,0.083 1.2,0.25 0.37,0.167 0.64,0.391 0.82,0.672 0.18,0.271 0.31,0.599 0.39,0.984 0.05,0.24 0.07,0.667 0.07,1.282 V -29 h -1.23 v -4.891 c 0,-0.552 -0.05,-0.963 -0.14,-1.234 -0.09,-0.271 -0.27,-0.49 -0.52,-0.656 -0.24,-0.167 -0.52,-0.25 -0.86,-0.25 -0.52,0 -0.97,0.187 -1.36,0.562 -0.37,0.365 -0.56,1.058 -0.56,2.078 V -29 Z m 11.69,-9.484 V -40 h 1.22 v 1.516 z m 0,9.484 v -8 h 1.22 v 8 z m 3.09,0 v -8 h 1.11 v 1.109 c 0.53,-0.739 1.31,-1.109 2.32,-1.109 0.43,0 0.83,0.083 1.2,0.25 0.36,0.167 0.63,0.391 0.81,0.672 0.19,0.271 0.32,0.599 0.39,0.984 0.05,0.24 0.08,0.667 0.08,1.282 V -29 h -1.23 v -4.891 c 0,-0.552 -0.05,-0.963 -0.14,-1.234 -0.1,-0.271 -0.27,-0.49 -0.52,-0.656 -0.24,-0.167 -0.53,-0.25 -0.86,-0.25 -0.52,0 -0.97,0.187 -1.36,0.562 -0.37,0.365 -0.56,1.058 -0.56,2.078 V -29 Z m 10.48,-1.297 0.17,1.172 c -0.34,0.083 -0.65,0.125 -0.92,0.125 -0.45,0 -0.8,-0.078 -1.05,-0.234 -0.24,-0.157 -0.41,-0.36 -0.51,-0.61 -0.1,-0.25 -0.15,-0.776 -0.15,-1.578 v -4.547 h -0.9 V -37 h 0.9 v -1.938 l 1.22,-0.796 V -37 h 1.24 v 1.031 h -1.24 v 4.625 c 0,0.386 0.02,0.636 0.07,0.75 0.04,0.104 0.11,0.188 0.2,0.25 0.1,0.063 0.24,0.094 0.42,0.094 0.15,0 0.33,-0.016 0.55,-0.047 z M 206.43,-33 c 0,-1.427 0.37,-2.474 1.12,-3.141 0.62,-0.573 1.38,-0.859 2.28,-0.859 0.99,0 1.81,0.344 2.44,1.031 0.64,0.688 0.95,1.646 0.95,2.875 0,0.979 -0.14,1.75 -0.42,2.313 -0.28,0.562 -0.69,1 -1.23,1.312 -0.53,0.313 -1.11,0.469 -1.74,0.469 -1.02,0 -1.84,-0.344 -2.47,-1.031 -0.62,-0.688 -0.93,-1.677 -0.93,-2.969 z m 1.26,0 c 0,0.979 0.21,1.714 0.61,2.203 0.41,0.479 0.92,0.719 1.53,0.719 0.61,0 1.11,-0.245 1.52,-0.734 0.4,-0.49 0.61,-1.23 0.61,-2.219 0,-0.948 -0.21,-1.662 -0.61,-2.141 -0.41,-0.489 -0.91,-0.734 -1.52,-0.734 -0.61,0 -1.12,0.239 -1.53,0.718 -0.4,0.48 -0.61,1.209 -0.61,2.188 z"
                 style="fill:#969696;fill-opacity:1;fill-rule:nonzero;stroke:none"
                 id="path4216"
                 inkscape:connector-curvature="0" /><path
                 d="m 81.656,-12.969 c -0.448,0.417 -0.885,0.683 -1.312,0.797 -0.417,0.115 -0.87,0.172 -1.36,0.172 -0.791,0 -1.406,-0.203 -1.843,-0.609 -0.427,-0.407 -0.641,-0.933 -0.641,-1.579 0,-0.374 0.078,-0.713 0.234,-1.015 0.167,-0.313 0.381,-0.557 0.641,-0.735 0.271,-0.187 0.568,-0.333 0.891,-0.437 0.239,-0.063 0.604,-0.13 1.093,-0.203 1,-0.115 1.735,-0.261 2.203,-0.438 0,-0.177 0,-0.286 0,-0.328 0,-0.531 -0.114,-0.906 -0.343,-1.125 -0.313,-0.291 -0.781,-0.437 -1.407,-0.437 -0.572,0 -1,0.109 -1.281,0.328 -0.271,0.208 -0.474,0.583 -0.609,1.125 l -1.203,-0.172 c 0.104,-0.542 0.281,-0.979 0.531,-1.313 0.26,-0.343 0.625,-0.604 1.094,-0.781 C 78.823,-19.906 79.375,-20 80,-20 c 0.615,0 1.115,0.078 1.5,0.234 0.385,0.157 0.667,0.355 0.844,0.594 0.187,0.24 0.317,0.542 0.39,0.906 0.042,0.219 0.063,0.625 0.063,1.219 v 1.766 c 0,1.239 0.026,2.021 0.078,2.343 0.052,0.323 0.156,0.636 0.313,0.938 h -1.282 c -0.125,-0.271 -0.208,-0.594 -0.25,-0.969 z m -0.094,-3.047 c -0.447,0.198 -1.119,0.36 -2.015,0.485 -0.5,0.073 -0.859,0.161 -1.078,0.265 -0.209,0.094 -0.37,0.235 -0.485,0.422 -0.114,0.177 -0.172,0.38 -0.172,0.61 0,0.343 0.126,0.63 0.376,0.859 0.25,0.229 0.614,0.344 1.093,0.344 0.479,0 0.901,-0.11 1.266,-0.328 0.364,-0.219 0.635,-0.516 0.812,-0.891 0.136,-0.292 0.203,-0.724 0.203,-1.297 z M 84.708,-12 v -8 h 1.109 v 1.109 C 86.349,-19.63 87.119,-20 88.13,-20 c 0.437,0 0.838,0.083 1.203,0.25 0.365,0.167 0.635,0.391 0.813,0.672 0.187,0.271 0.317,0.599 0.39,0.984 0.052,0.24 0.078,0.667 0.078,1.282 V -12 H 89.38 v -4.891 c 0,-0.552 -0.047,-0.963 -0.141,-1.234 -0.093,-0.271 -0.265,-0.49 -0.515,-0.656 -0.24,-0.167 -0.526,-0.25 -0.86,-0.25 -0.521,0 -0.974,0.187 -1.359,0.562 -0.375,0.365 -0.563,1.058 -0.563,2.078 V -12 Z m 11.738,-7.188 -0.343,-2.046 V -23 h 1.406 v 1.766 l -0.313,2.046 z m 2.266,0 -0.344,-2.046 V -23 h 1.406 v 1.766 l -0.328,2.046 z M 106.12,-12 v -1.328 c -0.57,0.885 -1.34,1.328 -2.31,1.328 -0.43,0 -0.83,-0.089 -1.21,-0.266 -0.36,-0.177 -0.64,-0.395 -0.82,-0.656 -0.18,-0.271 -0.31,-0.599 -0.38,-0.984 -0.05,-0.261 -0.08,-0.677 -0.08,-1.25 V -20 h 1.24 v 4.344 c 0,0.687 0.02,1.156 0.07,1.406 0.08,0.344 0.24,0.615 0.49,0.812 0.25,0.198 0.56,0.297 0.94,0.297 0.36,0 0.7,-0.099 1.03,-0.297 0.32,-0.208 0.55,-0.484 0.69,-0.828 0.13,-0.354 0.2,-0.864 0.2,-1.531 V -20 h 1.23 v 8 z m 3,0 v -8 h 1.11 v 1.203 c 0.28,-0.489 0.55,-0.812 0.78,-0.969 0.24,-0.156 0.51,-0.234 0.8,-0.234 0.42,0 0.84,0.083 1.27,0.25 l -0.42,1.25 c -0.31,-0.198 -0.61,-0.297 -0.91,-0.297 -0.27,0 -0.52,0.089 -0.74,0.266 -0.2,0.177 -0.35,0.427 -0.45,0.75 -0.13,0.479 -0.2,1.005 -0.2,1.578 V -12 Z m 4.46,0.594 1.19,0.187 c 0.05,0.365 0.19,0.625 0.42,0.781 0.3,0.23 0.72,0.344 1.25,0.344 0.58,0 1.01,-0.114 1.31,-0.344 0.32,-0.229 0.53,-0.557 0.65,-0.984 0.06,-0.25 0.08,-0.781 0.07,-1.594 -0.53,0.677 -1.19,1.016 -2,1.016 -1,0 -1.77,-0.385 -2.32,-1.156 -0.55,-0.782 -0.82,-1.714 -0.82,-2.797 0,-0.75 0.13,-1.438 0.38,-2.063 0.25,-0.635 0.61,-1.125 1.08,-1.468 0.48,-0.344 1.04,-0.516 1.68,-0.516 0.86,0 1.57,0.37 2.13,1.109 V -20 h 1.12 v 6.766 c 0,1.218 -0.11,2.083 -0.34,2.593 -0.23,0.511 -0.59,0.9118 -1.09,1.2035 -0.5,0.2917 -1.12,0.4375 -1.85,0.4375 -0.86,0 -1.56,-0.1979 -2.09,-0.5938 -0.53,-0.3958 -0.79,-1.0002 -0.77,-1.8122 z m 1.02,-4.641 c 0,1.021 0.19,1.771 0.56,2.25 0.38,0.469 0.85,0.703 1.42,0.703 0.57,0 1.04,-0.234 1.42,-0.703 0.39,-0.469 0.58,-1.208 0.58,-2.219 0,-0.948 -0.19,-1.666 -0.59,-2.156 -0.4,-0.489 -0.87,-0.734 -1.42,-0.734 -0.55,0 -1.02,0.239 -1.41,0.718 -0.37,0.48 -0.56,1.193 -0.56,2.141 z m 11.96,1.297 1.28,0.172 c -0.21,0.812 -0.59,1.448 -1.13,1.906 -0.54,0.448 -1.23,0.672 -2.08,0.672 -1.06,0 -1.9,-0.344 -2.53,-1.031 -0.61,-0.688 -0.92,-1.657 -0.92,-2.907 0,-1.291 0.31,-2.291 0.94,-3 0.63,-0.708 1.45,-1.062 2.45,-1.062 0.97,0 1.76,0.333 2.38,1 0.61,0.667 0.92,1.604 0.92,2.812 0,0.073 0,0.183 0,0.329 h -5.42 c 0.05,0.895 0.27,1.583 0.67,2.062 0.41,0.479 0.92,0.719 1.53,0.719 0.45,0 0.83,-0.136 1.14,-0.406 0.32,-0.271 0.58,-0.693 0.77,-1.266 z m -4.03,-2.203 h 4.04 c -0.05,-0.573 -0.21,-1 -0.47,-1.281 -0.38,-0.448 -0.89,-0.672 -1.51,-0.672 -0.58,0 -1.05,0.177 -1.44,0.531 -0.37,0.354 -0.58,0.828 -0.62,1.422 z m 6.84,4.953 v -8 h 1.11 v 1.109 c 0.53,-0.739 1.31,-1.109 2.32,-1.109 0.43,0 0.83,0.083 1.2,0.25 0.36,0.167 0.63,0.391 0.81,0.672 0.19,0.271 0.32,0.599 0.39,0.984 0.05,0.24 0.08,0.667 0.08,1.282 V -12 h -1.23 v -4.891 c 0,-0.552 -0.05,-0.963 -0.14,-1.234 -0.1,-0.271 -0.27,-0.49 -0.52,-0.656 -0.24,-0.167 -0.53,-0.25 -0.86,-0.25 -0.52,0 -0.97,0.187 -1.36,0.562 -0.37,0.365 -0.56,1.058 -0.56,2.078 V -12 Z m 10.48,-1.297 0.17,1.172 c -0.34,0.083 -0.65,0.125 -0.92,0.125 -0.45,0 -0.8,-0.078 -1.05,-0.234 -0.24,-0.157 -0.41,-0.36 -0.51,-0.61 -0.1,-0.25 -0.15,-0.776 -0.15,-1.578 v -4.547 h -0.9 V -20 h 0.9 v -1.938 l 1.22,-0.796 V -20 h 1.24 v 1.031 h -1.24 v 4.625 c 0,0.386 0.02,0.636 0.07,0.75 0.04,0.104 0.11,0.188 0.2,0.25 0.1,0.063 0.24,0.094 0.42,0.094 0.15,0 0.33,-0.016 0.55,-0.047 z m 1.26,-5.891 -0.34,-2.046 V -23 h 1.4 v 1.766 l -0.31,2.046 z m 2.27,0 -0.35,-2.046 V -23 h 1.41 v 1.766 l -0.33,2.046 z m 6.08,3.188 c 0,-1.427 0.37,-2.474 1.12,-3.141 0.62,-0.573 1.38,-0.859 2.28,-0.859 0.99,0 1.8,0.344 2.44,1.031 0.64,0.688 0.95,1.646 0.95,2.875 0,0.979 -0.14,1.75 -0.42,2.313 -0.28,0.562 -0.69,1 -1.23,1.312 -0.53,0.313 -1.11,0.469 -1.74,0.469 -1.02,0 -1.84,-0.344 -2.47,-1.031 -0.62,-0.688 -0.93,-1.677 -0.93,-2.969 z m 1.26,0 c 0,0.979 0.2,1.714 0.61,2.203 0.41,0.479 0.92,0.719 1.53,0.719 0.61,0 1.11,-0.245 1.52,-0.734 0.4,-0.49 0.61,-1.23 0.61,-2.219 0,-0.948 -0.21,-1.662 -0.61,-2.141 -0.41,-0.489 -0.91,-0.734 -1.52,-0.734 -0.61,0 -1.12,0.239 -1.53,0.718 -0.41,0.48 -0.61,1.209 -0.61,2.188 z m 6.98,4 v -8 h 1.1 v 1.109 c 0.54,-0.739 1.31,-1.109 2.32,-1.109 0.43,0 0.84,0.083 1.2,0.25 0.36,0.167 0.64,0.391 0.81,0.672 0.19,0.271 0.32,0.599 0.39,0.984 0.06,0.24 0.08,0.667 0.08,1.282 V -12 h -1.23 v -4.891 c 0,-0.552 -0.05,-0.963 -0.14,-1.234 -0.1,-0.271 -0.27,-0.49 -0.52,-0.656 -0.24,-0.167 -0.53,-0.25 -0.86,-0.25 -0.52,0 -0.97,0.187 -1.36,0.562 -0.37,0.365 -0.56,1.058 -0.56,2.078 V -12 Z m 12.75,-2.75 1.28,0.172 c -0.21,0.812 -0.58,1.448 -1.12,1.906 -0.55,0.448 -1.24,0.672 -2.08,0.672 -1.06,0 -1.91,-0.344 -2.53,-1.031 -0.62,-0.688 -0.92,-1.657 -0.92,-2.907 0,-1.291 0.31,-2.291 0.93,-3 0.64,-0.708 1.46,-1.062 2.46,-1.062 0.96,0 1.76,0.333 2.37,1 0.62,0.667 0.92,1.604 0.92,2.812 0,0.073 0,0.183 0,0.329 h -5.42 c 0.05,0.895 0.28,1.583 0.67,2.062 0.41,0.479 0.92,0.719 1.53,0.719 0.45,0 0.83,-0.136 1.14,-0.406 0.33,-0.271 0.58,-0.693 0.77,-1.266 z m -4.03,-2.203 h 4.05 c -0.06,-0.573 -0.21,-1 -0.47,-1.281 -0.39,-0.448 -0.89,-0.672 -1.52,-0.672 -0.57,0 -1.05,0.177 -1.44,0.531 -0.37,0.354 -0.58,0.828 -0.62,1.422 z m 7.19,4.953 v -1.516 h 1.41 V -12 Z"
                 style="fill:#969696;fill-opacity:1;fill-rule:nonzero;stroke:none"
                 id="path4218"
                 inkscape:connector-curvature="0" /><path
                 d="m 215,-60 6,6 V -7 H 75 v -53 h 140 v 6 h 6 z"
                 style="fill:none;stroke:#969696;stroke-width:1;stroke-linecap:butt;stroke-linejoin:miter;stroke-miterlimit:10;stroke-dasharray:none;stroke-opacity:1"
                 id="path4220"
                 inkscape:connector-curvature="0" /><path
                 d="M 12,0 C 12,6.6274 6.6274,12 0,12 -6.6274,12 -12,6.6274 -12,0 c 0,-6.6274 5.3726,-12 12,-12 6.6274,0 12,5.3726 12,12 z"
                 style="fill:#a5afcd;fill-opacity:1;fill-rule:nonzero;stroke:none"
                 id="path4222"
                 inkscape:connector-curvature="0" /><path
                 d="M 12,0 C 12,6.6274 6.6274,12 0,12 -6.6274,12 -12,6.6274 -12,0 c 0,-6.6274 5.3726,-12 12,-12 6.6274,0 12,5.3726 12,12 z"
                 style="fill:none;stroke:#000000;stroke-width:1;stroke-linecap:butt;stroke-linejoin:miter;stroke-miterlimit:10;stroke-dasharray:none;stroke-opacity:1"
                 id="path4224"
                 inkscape:connector-curvature="0" /><path
                 d="M 8,0 C 8,4.4183 4.4183,8 0,8 -4.4183,8 -8,4.4183 -8,0 c 0,-4.4183 3.5817,-8 8,-8 4.4183,0 8,3.5817 8,8 z"
                 style="fill:none;stroke:#000000;stroke-width:1;stroke-linecap:butt;stroke-linejoin:miter;stroke-miterlimit:10;stroke-dasharray:none;stroke-opacity:1"
                 id="path4226"
                 inkscape:connector-curvature="0" /><path
                 d="M -83.844,30 V 19 h 6.75 v 1.266 h -5.437 v 3.687 h 4.703 v 1.281 h -4.703 V 30 Z m 8.068,-5.359 c 0,-1.761 0.448,-3.141 1.343,-4.141 0.896,-1 2.047,-1.5 3.454,-1.5 0.927,0 1.76,0.234 2.5,0.703 0.75,0.469 1.317,1.125 1.703,1.969 0.395,0.844 0.593,1.792 0.593,2.844 0,1.073 -0.208,2.036 -0.625,2.89 -0.406,0.844 -0.984,1.49 -1.734,1.938 -0.75,0.437 -1.562,0.656 -2.437,0.656 -0.948,0 -1.792,-0.24 -2.532,-0.719 -0.739,-0.489 -1.302,-1.151 -1.687,-1.984 -0.386,-0.844 -0.578,-1.729 -0.578,-2.656 z m 1.375,0.031 c 0,1.271 0.323,2.276 0.968,3.016 0.657,0.729 1.474,1.093 2.454,1.093 0.989,0 1.807,-0.37 2.453,-1.109 0.645,-0.75 0.968,-1.802 0.968,-3.156 0,-0.865 -0.14,-1.615 -0.421,-2.25 -0.271,-0.646 -0.672,-1.146 -1.204,-1.5 -0.531,-0.355 -1.125,-0.532 -1.781,-0.532 -0.937,0 -1.745,0.344 -2.422,1.032 -0.677,0.677 -1.015,1.812 -1.015,3.406 z M -64.465,30 V 19 h 4.453 c 0.896,0 1.573,0.099 2.032,0.297 0.468,0.198 0.838,0.552 1.109,1.062 0.281,0.511 0.422,1.073 0.422,1.688 0,0.802 -0.229,1.479 -0.688,2.031 -0.458,0.542 -1.166,0.88 -2.125,1.016 0.344,0.187 0.61,0.37 0.797,0.547 0.386,0.385 0.75,0.864 1.094,1.437 l 1.75,2.922 h -1.672 l -1.328,-2.25 c -0.386,-0.646 -0.703,-1.141 -0.953,-1.484 -0.25,-0.344 -0.474,-0.584 -0.672,-0.719 -0.198,-0.146 -0.401,-0.245 -0.609,-0.297 -0.146,-0.031 -0.391,-0.047 -0.735,-0.047 h -1.547 V 30 Z m 1.328,-6.016 h 2.86 c 0.604,0 1.078,-0.073 1.422,-0.218 0.343,-0.146 0.604,-0.375 0.781,-0.688 0.177,-0.312 0.265,-0.656 0.265,-1.031 0,-0.542 -0.171,-0.985 -0.515,-1.328 -0.344,-0.354 -0.891,-0.531 -1.641,-0.531 h -3.172 z m 15.923,2.094 1.328,0.36 c -0.281,1.156 -0.786,2.041 -1.515,2.656 C -48.12,29.698 -49,30 -50.042,30 c -1.083,0 -1.964,-0.234 -2.641,-0.703 -0.677,-0.469 -1.192,-1.146 -1.546,-2.031 -0.344,-0.886 -0.516,-1.834 -0.516,-2.844 0,-1.115 0.198,-2.083 0.594,-2.906 0.395,-0.823 0.963,-1.448 1.703,-1.875 0.739,-0.427 1.547,-0.641 2.422,-0.641 1.01,0 1.854,0.276 2.531,0.828 0.687,0.542 1.167,1.302 1.437,2.281 l -1.312,0.329 c -0.229,-0.771 -0.568,-1.334 -1.016,-1.688 -0.437,-0.354 -0.989,-0.531 -1.656,-0.531 -0.771,0 -1.417,0.198 -1.937,0.593 -0.521,0.386 -0.886,0.907 -1.094,1.563 -0.209,0.656 -0.313,1.339 -0.313,2.047 0,0.896 0.125,1.677 0.375,2.344 0.25,0.666 0.636,1.172 1.157,1.515 0.52,0.334 1.088,0.5 1.703,0.5 0.739,0 1.364,-0.224 1.875,-0.672 0.52,-0.458 0.875,-1.135 1.062,-2.031 z M -44.229,30 V 19 h 7.25 v 1.266 H -42.9 v 3.703 h 5.546 v 1.25 H -42.9 v 3.5 h 6.156 V 30 Z m 8.01,2.969 v -0.953 h 8.157 v 0.953 z M -27.104,30 V 19 h 7.25 v 1.266 h -5.922 v 3.703 h 5.547 v 1.25 h -5.547 v 3.5 h 6.156 V 30 Z m 8.291,0 3.875,-5.734 L -18.36,19 h 1.578 l 1.828,2.812 c 0.375,0.584 0.641,1.037 0.797,1.36 0.229,-0.406 0.495,-0.828 0.797,-1.266 L -11.345,19 h 1.4378 L -13.423,24.188 -9.626,30 h -1.641 l -2.515,-3.922 c -0.146,-0.229 -0.292,-0.474 -0.438,-0.734 -0.229,0.406 -0.39,0.682 -0.484,0.828 L -17.22,30 Z m 12.8999,0 V 20.266 H -9.21 V 19 h 7.9375 v 1.266 H -4.585 V 30 Z m 6.02052,0 V 19 H 4.5605 c 0.8959,0 1.573,0.099 2.0313,0.297 0.4687,0.198 0.8385,0.552 1.1094,1.062 0.2812,0.511 0.4218,1.073 0.4218,1.688 0,0.802 -0.2291,1.479 -0.6875,2.031 -0.4583,0.542 -1.1666,0.88 -2.125,1.016 0.3438,0.187 0.6094,0.37 0.7969,0.547 0.3854,0.385 0.75,0.864 1.0938,1.437 L 8.9512,30 H 7.2793 L 5.9512,27.75 C 5.5658,27.104 5.248,26.609 4.998,26.266 4.748,25.922 4.5241,25.682 4.3262,25.547 4.1283,25.401 3.9251,25.302 3.7168,25.25 3.571,25.219 3.3262,25.203 2.9824,25.203 H 1.4355 V 30 Z M 1.4355,23.984 h 2.8594 c 0.6042,0 1.0781,-0.073 1.4219,-0.218 C 6.0605,23.62 6.321,23.391 6.498,23.078 6.6751,22.766 6.7637,22.422 6.7637,22.047 6.7637,21.505 6.5918,21.062 6.248,20.719 5.9043,20.365 5.3574,20.188 4.6074,20.188 H 1.4355 Z M 9.1084,30 12.952,19 h 1.422 l 4.109,11 H 16.968 L 15.796,27.172 H 11.608 L 10.515,30 Z m 2.8906,-3.984 h 3.391 l -1.047,-3.282 c -0.313,-1.01 -0.547,-1.838 -0.703,-2.484 -0.125,0.771 -0.308,1.526 -0.547,2.266 z m 6.244,6.953 v -0.953 h 8.156 v 0.953 z M 33.904,19 h 1.328 v 6.25 c 0,1.083 -0.114,1.948 -0.343,2.594 C 34.66,28.479 34.248,29 33.654,29.406 33.061,29.802 32.279,30 31.311,30 30.373,30 29.602,29.828 28.998,29.484 28.404,29.13 27.977,28.625 27.717,27.969 27.467,27.302 27.342,26.396 27.342,25.25 V 19 h 1.328 v 6.25 c 0,0.938 0.078,1.63 0.234,2.078 0.167,0.438 0.448,0.776 0.844,1.016 0.396,0.239 0.88,0.359 1.453,0.359 0.969,0 1.662,-0.234 2.078,-0.703 0.417,-0.479 0.625,-1.396 0.625,-2.75 z m 3.548,11 V 19 h 4.453 c 0.896,0 1.573,0.099 2.032,0.297 0.468,0.198 0.838,0.552 1.109,1.062 0.281,0.511 0.422,1.073 0.422,1.688 0,0.802 -0.229,1.479 -0.688,2.031 -0.458,0.542 -1.166,0.88 -2.125,1.016 0.344,0.187 0.61,0.37 0.797,0.547 0.386,0.385 0.75,0.864 1.094,1.437 L 46.296,30 H 44.624 L 43.296,27.75 C 42.91,27.104 42.593,26.609 42.343,26.266 42.093,25.922 41.869,25.682 41.671,25.547 41.473,25.401 41.27,25.302 41.062,25.25 40.916,25.219 40.671,25.203 40.327,25.203 H 38.78 V 30 Z m 1.328,-6.016 h 2.86 c 0.604,0 1.078,-0.073 1.422,-0.218 0.343,-0.146 0.604,-0.375 0.781,-0.688 0.177,-0.312 0.265,-0.656 0.265,-1.031 0,-0.542 -0.171,-0.985 -0.515,-1.328 -0.344,-0.354 -0.891,-0.531 -1.641,-0.531 H 38.78 Z m 13.454,1.235 v -1.25 h 4.25 v 4.297 c -0.656,0.583 -1.333,1.02 -2.031,1.312 C 53.766,29.859 53.057,30 52.328,30 c -0.979,0 -1.875,-0.224 -2.687,-0.672 -0.802,-0.448 -1.407,-1.094 -1.813,-1.937 -0.406,-0.855 -0.609,-1.802 -0.609,-2.844 0,-1.031 0.203,-1.995 0.609,-2.891 0.406,-0.896 0.99,-1.562 1.75,-2 C 50.349,19.219 51.234,19 52.234,19 c 0.719,0 1.37,0.115 1.954,0.344 0.593,0.229 1.057,0.557 1.39,0.984 0.333,0.417 0.583,0.964 0.75,1.641 l -1.187,0.312 c -0.157,-0.489 -0.349,-0.87 -0.579,-1.14 -0.218,-0.282 -0.536,-0.506 -0.953,-0.672 -0.406,-0.167 -0.864,-0.25 -1.375,-0.25 -0.604,0 -1.13,0.099 -1.578,0.297 -0.437,0.187 -0.791,0.442 -1.062,0.765 -0.271,0.323 -0.479,0.672 -0.625,1.047 -0.261,0.656 -0.391,1.365 -0.391,2.125 0,0.948 0.151,1.74 0.453,2.375 0.313,0.636 0.761,1.11 1.344,1.422 0.594,0.302 1.224,0.453 1.891,0.453 0.573,0 1.13,-0.13 1.672,-0.391 0.552,-0.27 0.968,-0.557 1.25,-0.859 V 25.219 Z M 58.468,30 V 19 h 7.25 v 1.266 h -5.922 v 3.703 h 5.547 v 1.25 h -5.547 v 3.5 h 6.156 V 30 Z m 9.291,0 V 19 h 1.359 l 5.266,8.641 V 19 h 1.281 V 30 H 74.306 L 69.04,21.359 V 30 Z m 12.673,0 V 20.266 H 77.135 V 19 h 7.937 v 1.266 H 81.76 V 30 Z m 8.161,-2.656 c -0.011,-0.177 -0.016,-0.313 -0.016,-0.406 0,-0.521 0.068,-0.969 0.203,-1.344 0.104,-0.282 0.266,-0.568 0.485,-0.86 0.166,-0.208 0.463,-0.515 0.89,-0.922 0.427,-0.416 0.703,-0.744 0.828,-0.984 0.125,-0.239 0.188,-0.505 0.188,-0.797 0,-0.51 -0.188,-0.958 -0.563,-1.343 -0.364,-0.396 -0.817,-0.594 -1.359,-0.594 -0.531,0 -0.974,0.177 -1.328,0.531 -0.344,0.354 -0.573,0.906 -0.688,1.656 l -1.265,-0.156 c 0.114,-1 0.453,-1.771 1.015,-2.313 C 87.546,19.271 88.291,19 89.218,19 c 0.979,0 1.76,0.286 2.344,0.859 0.583,0.573 0.875,1.271 0.875,2.094 0,0.469 -0.105,0.906 -0.313,1.313 -0.198,0.395 -0.594,0.88 -1.187,1.453 -0.407,0.385 -0.672,0.672 -0.797,0.859 -0.125,0.177 -0.219,0.386 -0.282,0.625 -0.052,0.229 -0.083,0.609 -0.093,1.141 z M 88.515,30 v -1.516 h 1.39 V 30 Z"
                 style="fill:#42a0a8;fill-opacity:1;fill-rule:nonzero;stroke:none"
                 id="path4228"
                 inkscape:connector-curvature="0" /><path
                 d="m -66.844,-21 v -11 h 6.75 v 1.266 h -5.437 v 3.687 h 4.703 v 1.281 h -4.703 V -21 Z m 8.068,-5.359 c 0,-1.761 0.448,-3.141 1.343,-4.141 0.896,-1 2.047,-1.5 3.454,-1.5 0.927,0 1.76,0.234 2.5,0.703 0.75,0.469 1.317,1.125 1.703,1.969 0.395,0.844 0.593,1.792 0.593,2.844 0,1.073 -0.208,2.036 -0.625,2.89 -0.406,0.844 -0.984,1.49 -1.734,1.938 -0.75,0.437 -1.562,0.656 -2.437,0.656 -0.948,0 -1.792,-0.24 -2.532,-0.719 -0.739,-0.489 -1.302,-1.151 -1.687,-1.984 -0.386,-0.844 -0.578,-1.729 -0.578,-2.656 z m 1.375,0.031 c 0,1.271 0.323,2.276 0.968,3.016 0.657,0.729 1.474,1.093 2.454,1.093 0.989,0 1.807,-0.37 2.453,-1.109 0.645,-0.75 0.968,-1.802 0.968,-3.156 0,-0.865 -0.14,-1.615 -0.421,-2.25 -0.271,-0.646 -0.672,-1.146 -1.204,-1.5 -0.531,-0.355 -1.125,-0.532 -1.781,-0.532 -0.937,0 -1.745,0.344 -2.422,1.032 -0.677,0.677 -1.015,1.812 -1.015,3.406 z m 9.936,5.328 v -11 h 4.453 c 0.896,0 1.573,0.099 2.032,0.297 0.468,0.198 0.838,0.552 1.109,1.062 0.281,0.511 0.422,1.073 0.422,1.688 0,0.802 -0.229,1.479 -0.688,2.031 -0.458,0.542 -1.166,0.88 -2.125,1.016 0.344,0.187 0.61,0.37 0.797,0.547 0.386,0.385 0.75,0.864 1.094,1.437 l 1.75,2.922 h -1.672 l -1.328,-2.25 c -0.386,-0.646 -0.703,-1.141 -0.953,-1.484 -0.25,-0.344 -0.474,-0.584 -0.672,-0.719 -0.198,-0.146 -0.401,-0.245 -0.609,-0.297 -0.146,-0.031 -0.391,-0.047 -0.735,-0.047 h -1.547 V -21 Z m 1.328,-6.016 h 2.86 c 0.604,0 1.078,-0.073 1.422,-0.218 0.343,-0.146 0.604,-0.375 0.781,-0.688 0.177,-0.312 0.265,-0.656 0.265,-1.031 0,-0.542 -0.171,-0.985 -0.515,-1.328 -0.344,-0.354 -0.891,-0.531 -1.641,-0.531 h -3.172 z m 15.923,2.094 1.328,0.36 c -0.281,1.156 -0.786,2.041 -1.515,2.656 -0.719,0.604 -1.599,0.906 -2.641,0.906 -1.083,0 -1.964,-0.234 -2.641,-0.703 -0.677,-0.469 -1.192,-1.146 -1.546,-2.031 -0.344,-0.886 -0.516,-1.834 -0.516,-2.844 0,-1.115 0.198,-2.083 0.594,-2.906 0.395,-0.823 0.963,-1.448 1.703,-1.875 0.739,-0.427 1.547,-0.641 2.422,-0.641 1.01,0 1.854,0.276 2.531,0.828 0.687,0.542 1.167,1.302 1.437,2.281 l -1.312,0.329 c -0.229,-0.771 -0.568,-1.334 -1.016,-1.688 -0.437,-0.354 -0.989,-0.531 -1.656,-0.531 -0.771,0 -1.417,0.198 -1.937,0.593 -0.521,0.386 -0.886,0.907 -1.094,1.563 -0.209,0.656 -0.313,1.339 -0.313,2.047 0,0.896 0.125,1.677 0.375,2.344 0.25,0.666 0.636,1.172 1.157,1.515 0.52,0.334 1.088,0.5 1.703,0.5 0.739,0 1.364,-0.224 1.875,-0.672 0.52,-0.458 0.875,-1.135 1.062,-2.031 z m 2.985,3.922 v -11 h 7.25 v 1.266 H -25.9 v 3.703 h 5.546 v 1.25 H -25.9 v 3.5 h 6.156 V -21 Z m 8.01,2.969 v -0.953 h 8.157 v 0.953 z M -3.5576,-32 h 1.3281 v 6.25 c 0,1.083 -0.1146,1.948 -0.3437,2.594 -0.2292,0.635 -0.6407,1.156 -1.2344,1.562 -0.5938,0.396 -1.375,0.594 -2.3438,0.594 -0.9375,0 -1.7083,-0.172 -2.3125,-0.516 -0.5937,-0.354 -1.0208,-0.859 -1.2812,-1.515 -0.25,-0.667 -0.3749,-1.573 -0.3749,-2.719 V -32 h 1.328 v 6.25 c 0,0.938 0.0781,1.63 0.2344,2.078 0.1666,0.438 0.4479,0.776 0.8437,1.016 0.3959,0.239 0.8802,0.359 1.4532,0.359 0.9687,0 1.6614,-0.234 2.0781,-0.703 0.4166,-0.479 0.625,-1.396 0.625,-2.75 z m 3.5478344,11 V -32 H 4.4434 c 0.8958,0 1.5729,0.099 2.0312,0.297 0.4688,0.198 0.8386,0.552 1.1094,1.062 0.2812,0.511 0.4219,1.073 0.4219,1.688 0,0.802 -0.2292,1.479 -0.6875,2.031 -0.4584,0.542 -1.1667,0.88 -2.125,1.016 0.3437,0.187 0.6093,0.37 0.7968,0.547 0.3855,0.385 0.75,0.864 1.0938,1.437 L 8.834,-21 H 7.1621 L 5.834,-23.25 C 5.4486,-23.896 5.1309,-24.391 4.8809,-24.734 4.6309,-25.078 4.4069,-25.318 4.209,-25.453 4.0111,-25.599 3.8079,-25.698 3.5996,-25.75 3.4538,-25.781 3.209,-25.797 2.8652,-25.797 H 1.3184 V -21 Z M 1.3184,-27.016 h 2.8593 c 0.6042,0 1.0782,-0.073 1.4219,-0.218 0.3438,-0.146 0.6042,-0.375 0.7813,-0.688 0.177,-0.312 0.2656,-0.656 0.2656,-1.031 0,-0.542 -0.1719,-0.985 -0.5156,-1.328 -0.3438,-0.354 -0.8907,-0.531 -1.6407,-0.531 H 1.3184 Z m 13.4536,1.235 v -1.25 h 4.25 v 4.297 c -0.656,0.583 -1.333,1.02 -2.031,1.312 -0.687,0.281 -1.396,0.422 -2.125,0.422 -0.979,0 -1.875,-0.224 -2.687,-0.672 -0.802,-0.448 -1.407,-1.094 -1.813,-1.937 -0.406,-0.855 -0.6092,-1.802 -0.6092,-2.844 0,-1.031 0.2032,-1.995 0.6092,-2.891 0.406,-0.896 0.99,-1.562 1.75,-2 0.771,-0.437 1.656,-0.656 2.656,-0.656 0.719,0 1.37,0.115 1.954,0.344 0.593,0.229 1.057,0.557 1.39,0.984 0.334,0.417 0.584,0.964 0.75,1.641 l -1.187,0.312 c -0.157,-0.489 -0.349,-0.87 -0.578,-1.14 -0.219,-0.282 -0.537,-0.506 -0.954,-0.672 -0.406,-0.167 -0.864,-0.25 -1.375,-0.25 -0.604,0 -1.13,0.099 -1.578,0.297 -0.437,0.187 -0.791,0.442 -1.062,0.765 -0.271,0.323 -0.479,0.672 -0.625,1.047 -0.261,0.656 -0.391,1.365 -0.391,2.125 0,0.948 0.151,1.74 0.453,2.375 0.313,0.636 0.761,1.11 1.344,1.422 0.594,0.302 1.224,0.453 1.891,0.453 0.573,0 1.13,-0.13 1.672,-0.391 0.552,-0.27 0.968,-0.557 1.25,-0.859 v -2.234 z M 21.006,-21 v -11 h 7.25 v 1.266 h -5.922 v 3.703 h 5.547 v 1.25 h -5.547 v 3.5 H 28.49 V -21 Z m 9.291,0 v -11 h 1.359 l 5.266,8.641 V -32 h 1.281 v 11 h -1.359 l -5.266,-8.641 V -21 Z m 12.673,0 v -9.734 H 39.673 V -32 h 7.937 v 1.266 H 44.298 V -21 Z m 8.161,-2.656 c -0.011,-0.177 -0.016,-0.313 -0.016,-0.406 0,-0.521 0.068,-0.969 0.203,-1.344 0.105,-0.282 0.266,-0.568 0.485,-0.86 0.166,-0.208 0.463,-0.515 0.89,-0.922 0.427,-0.416 0.703,-0.744 0.828,-0.984 0.125,-0.239 0.188,-0.505 0.188,-0.797 0,-0.51 -0.188,-0.958 -0.563,-1.343 -0.364,-0.396 -0.817,-0.594 -1.359,-0.594 -0.531,0 -0.974,0.177 -1.328,0.531 -0.344,0.354 -0.573,0.906 -0.688,1.656 l -1.265,-0.156 c 0.114,-1 0.453,-1.771 1.015,-2.313 0.563,-0.541 1.308,-0.812 2.235,-0.812 0.979,0 1.76,0.286 2.344,0.859 0.583,0.573 0.875,1.271 0.875,2.094 0,0.469 -0.105,0.906 -0.313,1.313 -0.198,0.395 -0.594,0.88 -1.187,1.453 -0.407,0.385 -0.672,0.672 -0.797,0.859 -0.125,0.177 -0.219,0.386 -0.282,0.625 -0.052,0.229 -0.083,0.609 -0.093,1.141 z M 51.053,-21 v -1.516 h 1.39 V -21 Z"
                 style="fill:#42a0a8;fill-opacity:1;fill-rule:nonzero;stroke:none"
                 id="path4230"
                 inkscape:connector-curvature="0" /><path
                 d="M -11.628,-5.8138 -25.056,-12.528 C -31.019,-15.509 -30.667,-17 -24,-17 h 48 c 6.667,0 7.019,1.491 1.056,4.472 l -13.428,6.7142"
                 style="fill:none;stroke:#000000;stroke-width:1;stroke-linecap:round;stroke-linejoin:bevel;stroke-miterlimit:10;stroke-dasharray:none;stroke-opacity:1"
                 id="path4232"
                 inkscape:connector-curvature="0" /><path
                 d="m 19.11,-12.448 -7.482,6.6342 9.797,-2.0048"
                 style="fill:none;stroke:#000000;stroke-width:1;stroke-linecap:round;stroke-linejoin:bevel;stroke-miterlimit:10;stroke-dasharray:none;stroke-opacity:1"
                 id="path4234"
                 inkscape:connector-curvature="0" /><path
                 d="M -11.628,5.8138 -25.056,12.528 C -31.019,15.509 -30.667,17 -24,17 h 48 c 6.667,0 7.019,-1.491 1.056,-4.472 L 11.628,5.8138"
                 style="fill:none;stroke:#000000;stroke-width:1;stroke-linecap:round;stroke-linejoin:bevel;stroke-miterlimit:10;stroke-dasharray:none;stroke-opacity:1"
                 id="path4236"
                 inkscape:connector-curvature="0" /><path
                 d="M 21.425,7.8186 11.628,5.8138 19.11,12.448"
                 style="fill:none;stroke:#000000;stroke-width:1;stroke-linecap:round;stroke-linejoin:bevel;stroke-miterlimit:10;stroke-dasharray:none;stroke-opacity:1"
                 id="path4238"
                 inkscape:connector-curvature="0" /><g
                 id="g4240"
                 transform="translate(-86,-62)" /></g></g></g></g></g></g></svg>