<?xml version="1.0" encoding="UTF-8" standalone="no"?>
<!-- Created with Inkscape (http://www.inkscape.org/) -->

<svg
    xmlns:dc="http://purl.org/dc/elements/1.1/"
    xmlns:cc="http://creativecommons.org/ns#"
    xmlns:rdf="http://www.w3.org/1999/02/22-rdf-syntax-ns#"
    xmlns:svg="http://www.w3.org/2000/svg"
    xmlns="http://www.w3.org/2000/svg"
    xmlns:sodipodi="http://sodipodi.sourceforge.net/DTD/sodipodi-0.dtd"
    xmlns:inkscape="http://www.inkscape.org/namespaces/inkscape"
    version="1.1"
    id="svg2588"
    xml:space="preserve"
    width="179.897"
    height="405.045"
    viewBox="0 0 179.897 405.045"
    sodipodi:docname="load_when_modified_seq_diagram_interference2.svg"
    inkscape:version="0.92.4 5da689c313, 2019-01-14"><metadata
       id="metadata2594"><rdf:RDF><cc:Work
             rdf:about=""><dc:format>image/svg+xml</dc:format><dc:type
                rdf:resource="http://purl.org/dc/dcmitype/StillImage" /><dc:title></dc:title></cc:Work></rdf:RDF></metadata><defs
       id="defs2592" /><sodipodi:namedview
       pagecolor="#ffffff"
       bordercolor="#666666"
       borderopacity="1"
       objecttolerance="10"
       gridtolerance="10"
       guidetolerance="10"
       inkscape:pageopacity="0"
       inkscape:pageshadow="2"
       inkscape:window-width="1678"
       inkscape:window-height="1029"
       id="namedview2590"
       showgrid="false"
       fit-margin-top="0"
       fit-margin-left="0"
       fit-margin-right="0"
       fit-margin-bottom="0"
       inkscape:zoom="1.82903"
       inkscape:cx="-34.2488"
       inkscape:cy="300.623"
       inkscape:window-x="1"
       inkscape:window-y="516"
       inkscape:window-maximized="0"
       inkscape:current-layer="g2596" /><g
       id="g2596"
       inkscape:groupmode="layer"
       inkscape:label="load_when_modified_seq_diagram_interference"
       transform="matrix(1.33333,0,0,1.33333,-11.2394,49.2122)"><path
          inkscape:connector-curvature="0"
          id="path2600"
          style="fill:#b3b3b3"
          d="M 80.816,152.082 H 95.816 V 266.609 H 80.816 Z" /><path
          inkscape:connector-curvature="0"
          id="path2602"
          style="fill:#4d4d4d"
          d="M 80.816,133.332 H 95.816 V 239.609 H 80.816 Z" /><g
          id="g2648"><path
             inkscape:connector-curvature="0"
             id="path2650"
             style="fill:none;stroke:#000000;stroke-width:0.3985;stroke-miterlimit:10"
             d="M 12.871,22.945 V 266.875" /></g><g
          id="g2652"><path
             inkscape:connector-curvature="0"
             id="path2654"
             style="fill:none;stroke:#000000;stroke-width:0.3985;stroke-miterlimit:10"
             d="M 50.516,22.945 V 266.875" /></g><g
          id="g2656"><path
             inkscape:connector-curvature="0"
             id="path2658"
             style="fill:none;stroke:#000000;stroke-width:0.3985;stroke-miterlimit:10"
             d="M 88.316,22.945 V 266.875" /></g><g
          id="g2660"><path
             inkscape:connector-curvature="0"
             id="path2662"
             style="fill:none;stroke:#000000;stroke-width:0.3985;stroke-miterlimit:10"
             d="M 138.988,30.75 V 266.875" /></g><g
          id="g2664"><path
             inkscape:connector-curvature="0"
             id="path2666"
             style="fill:none;stroke:#000000;stroke-width:0.3985;stroke-miterlimit:10"
             d="M 12.871,73.953 H 49.52" /></g><g
          id="g2668"><path
             inkscape:connector-curvature="0"
             id="path2670"
             style="fill:#000000;stroke:#000000;stroke-width:0.3985;stroke-linejoin:round;stroke-miterlimit:10"
             d="M 50.316,73.953 C 49.32,73.754 48.324,73.355 47.129,72.656 48.324,73.555 48.324,74.352 47.129,75.246 48.324,74.551 49.32,74.152 50.316,73.953 Z" /></g><path
          inkscape:connector-curvature="0"
          id="path2672"
          style="fill:#000000"
          d="M 24.188,64.746 C 24.188,64.449 24.141,64.34 23.797,64.34 H 22.219 C 22.062,64.34 21.812,64.34 21.812,64.652 21.812,64.949 22.078,64.949 22.219,64.949 H 23.5 V 69.824 H 22.219 C 22.062,69.824 21.812,69.824 21.812,70.137 21.812,70.434 22.078,70.434 22.219,70.434 H 25.484 C 25.641,70.434 25.891,70.434 25.891,70.137 25.891,69.824 25.656,69.824 25.484,69.824 H 24.188 Z" /><path
          inkscape:connector-curvature="0"
          id="path2674"
          style="fill:#000000"
          d="M 31.121,68.277 C 31.121,67.027 30.199,66.043 29.074,66.043 27.965,66.043 27.027,67.027 27.027,68.277 27.027,69.543 27.98,70.496 29.074,70.496 30.168,70.496 31.121,69.543 31.121,68.277 Z M 29.074,69.887 C 28.34,69.887 27.715,69.137 27.715,68.215 27.715,67.309 28.371,66.652 29.074,66.652 29.793,66.652 30.434,67.309 30.434,68.215 30.434,69.137 29.809,69.887 29.074,69.887 Z" /><path
          inkscape:connector-curvature="0"
          id="path2676"
          style="fill:#000000"
          d="M 35.352,70.121 C 35.57,70.418 36.039,70.434 36.414,70.434 36.695,70.434 36.914,70.434 36.914,70.121 36.914,69.824 36.664,69.824 36.523,69.824 36.102,69.824 36.008,69.777 35.93,69.746 V 67.59 C 35.93,66.887 35.383,66.043 33.945,66.043 33.523,66.043 32.508,66.043 32.508,66.777 32.508,67.074 32.711,67.23 32.945,67.23 33.102,67.23 33.383,67.137 33.383,66.777 33.383,66.699 33.398,66.684 33.602,66.668 33.742,66.652 33.867,66.652 33.961,66.652 34.711,66.652 35.227,66.965 35.227,67.668 33.477,67.699 32.242,68.199 32.242,69.152 32.242,69.84 32.867,70.496 33.883,70.496 34.258,70.496 34.883,70.418 35.352,70.121 Z M 35.227,68.262 V 69.105 C 35.227,69.324 35.227,69.543 34.852,69.715 34.492,69.887 34.039,69.887 33.961,69.887 33.336,69.887 32.93,69.543 32.93,69.152 32.93,68.668 33.789,68.293 35.227,68.262 Z" /><path
          inkscape:connector-curvature="0"
          id="path2678"
          style="fill:#000000"
          d="M 40.488,69.934 C 40.488,70.293 40.488,70.434 40.895,70.434 H 41.613 C 41.785,70.434 42.035,70.434 42.035,70.121 42.035,69.824 41.77,69.824 41.629,69.824 H 41.176 V 64.746 C 41.176,64.449 41.129,64.34 40.785,64.34 H 40.051 C 39.895,64.34 39.645,64.34 39.645,64.652 39.645,64.949 39.91,64.949 40.051,64.949 H 40.488 V 66.527 C 40.16,66.23 39.754,66.074 39.332,66.074 38.238,66.074 37.285,67.027 37.285,68.293 37.285,69.527 38.176,70.496 39.238,70.496 39.801,70.496 40.223,70.23 40.488,69.934 Z M 40.488,67.793 V 68.496 C 40.488,69.059 40.051,69.887 39.285,69.887 38.566,69.887 37.973,69.184 37.973,68.293 37.973,67.34 38.676,66.684 39.363,66.684 40.004,66.684 40.488,67.246 40.488,67.793 Z" /><g
          id="g2680"><path
             inkscape:connector-curvature="0"
             id="path2682"
             style="fill:none;stroke:#000000;stroke-width:0.3985;stroke-miterlimit:10"
             d="M 134.484,117.32 H 55.02" /></g><g
          id="g2684"><path
             inkscape:connector-curvature="0"
             id="path2686"
             style="fill:none;stroke:#000000;stroke-width:0.3985;stroke-miterlimit:10"
             d="M 138.789,117.32 C 138.789,116.133 137.824,115.172 136.637,115.172 135.449,115.172 134.484,116.133 134.484,117.32 134.484,118.512 135.449,119.473 136.637,119.473 137.824,119.473 138.789,118.512 138.789,117.32 Z" /></g><g
          id="g2688"><path
             inkscape:connector-curvature="0"
             id="path2690"
             style="fill:none;stroke:#000000;stroke-width:0.3985;stroke-miterlimit:10"
             d="M 50.715,117.32 C 50.715,118.512 51.68,119.473 52.867,119.473 54.055,119.473 55.02,118.512 55.02,117.32 55.02,116.133 54.055,115.172 52.867,115.172 51.68,115.172 50.715,116.133 50.715,117.32 Z" /></g><path
          inkscape:connector-curvature="0"
          id="path2692"
          style="fill:#000000"
          d="M 88.758,111.723 C 89.008,111.723 89.227,111.723 89.227,111.41 89.227,111.113 88.977,111.113 88.82,111.113 H 87.633 C 87.492,111.113 87.242,111.113 87.242,111.41 87.242,111.723 87.477,111.723 87.633,111.723 H 88.055 C 87.945,112.832 87.445,113.301 86.914,113.301 86.117,113.301 85.352,112.223 85.352,110.754 85.352,109.238 86.148,108.207 86.93,108.207 87.273,108.207 87.914,108.441 88.07,109.52 88.102,109.691 88.164,109.801 88.414,109.801 88.758,109.801 88.758,109.598 88.758,109.395 V 108.004 C 88.758,107.848 88.758,107.598 88.461,107.598 88.258,107.598 88.211,107.707 88.055,108.051 87.711,107.754 87.305,107.598 86.898,107.598 85.695,107.598 84.664,108.941 84.664,110.754 84.664,112.582 85.711,113.91 86.898,113.91 87.461,113.91 87.883,113.613 88.07,113.379 88.07,113.598 88.07,113.801 88.43,113.801 88.758,113.801 88.758,113.582 88.758,113.395 Z" /><path
          inkscape:connector-curvature="0"
          id="path2694"
          style="fill:#000000"
          d="M 93.754,111.895 C 93.957,111.895 94.145,111.895 94.145,111.535 94.145,110.395 93.504,109.41 92.207,109.41 91.02,109.41 90.066,110.41 90.066,111.645 90.066,112.848 91.082,113.863 92.363,113.863 93.676,113.863 94.145,112.957 94.145,112.707 94.145,112.441 93.863,112.441 93.801,112.441 93.613,112.441 93.535,112.473 93.473,112.66 93.254,113.16 92.707,113.254 92.426,113.254 91.676,113.254 90.941,112.754 90.77,111.895 Z M 90.785,111.301 C 90.926,110.566 91.52,110.02 92.207,110.02 92.723,110.02 93.348,110.27 93.441,111.301 Z" /><path
          inkscape:connector-curvature="0"
          id="path2696"
          style="fill:#000000"
          d="M 96.969,110.113 H 98.594 C 98.75,110.113 99,110.113 99,109.816 99,109.504 98.75,109.504 98.594,109.504 H 96.969 V 108.691 C 96.969,108.504 96.969,108.285 96.625,108.285 96.281,108.285 96.281,108.488 96.281,108.691 V 109.504 H 95.406 C 95.25,109.504 95,109.504 95,109.816 95,110.113 95.25,110.113 95.391,110.113 H 96.281 V 112.551 C 96.281,113.504 96.953,113.863 97.688,113.863 98.422,113.863 99.219,113.426 99.219,112.551 99.219,112.363 99.219,112.16 98.875,112.16 98.547,112.16 98.531,112.363 98.531,112.535 98.531,113.16 97.953,113.254 97.734,113.254 96.969,113.254 96.969,112.738 96.969,112.488 Z" /><path
          inkscape:connector-curvature="0"
          id="path2698"
          style="fill:#000000"
          d="M 102.934,111.066 C 103.215,111.129 104.043,111.332 104.043,112.191 104.043,112.707 103.605,113.301 102.824,113.301 102.543,113.301 102.059,113.27 101.652,112.988 101.23,112.723 101.199,112.301 101.184,112.129 101.184,111.957 101.168,111.77 100.855,111.77 100.496,111.77 100.496,111.988 100.496,112.191 V 113.504 C 100.496,113.66 100.496,113.91 100.793,113.91 101.012,113.91 101.074,113.77 101.168,113.457 101.559,113.754 102.168,113.91 102.809,113.91 103.965,113.91 104.684,113.035 104.684,112.145 104.684,111.504 104.324,111.082 104.215,110.957 103.793,110.566 103.527,110.488 102.746,110.316 L 101.949,110.129 C 101.527,110.02 101.152,109.66 101.152,109.191 101.152,108.691 101.637,108.207 102.34,108.207 103.512,108.207 103.668,109.145 103.73,109.457 103.762,109.676 103.871,109.738 104.074,109.738 104.418,109.738 104.418,109.52 104.418,109.332 V 108.004 C 104.418,107.848 104.418,107.598 104.121,107.598 103.871,107.598 103.824,107.77 103.746,108.066 103.34,107.723 102.809,107.598 102.355,107.598 101.246,107.598 100.496,108.395 100.496,109.238 100.496,109.91 100.965,110.566 101.777,110.801 101.824,110.816 102.793,111.035 102.934,111.066 Z" /><g
          id="g2700"><path
             inkscape:connector-curvature="0"
             id="path2702"
             style="fill:none;stroke:#000000;stroke-width:2.83466;stroke-miterlimit:10"
             d="M 136.863,132.633 H 54.191" /></g><g
          id="g2704"><path
             inkscape:connector-curvature="0"
             id="path2706"
             style="fill:none;stroke:#000000;stroke-width:2.83466;stroke-linecap:square;stroke-miterlimit:10"
             d="M 137.57,138.879 V 126.387" /></g><g
          id="g2708"><path
             inkscape:connector-curvature="0"
             id="path2710"
             style="fill:#000000;stroke:#000000;stroke-width:2.83466;stroke-linejoin:round;stroke-miterlimit:10"
             d="M 51.934,132.633 C 54.758,133.195 57.578,134.328 60.969,136.305 57.578,133.762 57.578,131.504 60.969,128.961 57.578,130.938 54.758,132.066 51.934,132.633 Z" /></g><path
          inkscape:connector-curvature="0"
          id="path2712"
          style="fill:#000000"
          d="M 31.57,134.406 C 31.82,134.406 32.039,134.406 32.039,134.094 32.039,133.797 31.789,133.797 31.633,133.797 H 30.445 C 30.305,133.797 30.055,133.797 30.055,134.094 30.055,134.406 30.289,134.406 30.445,134.406 H 30.867 C 30.758,135.516 30.258,135.984 29.727,135.984 28.93,135.984 28.164,134.906 28.164,133.438 28.164,131.922 28.961,130.891 29.742,130.891 30.086,130.891 30.727,131.125 30.883,132.203 30.914,132.375 30.977,132.484 31.227,132.484 31.57,132.484 31.57,132.281 31.57,132.078 V 130.688 C 31.57,130.531 31.57,130.281 31.273,130.281 31.07,130.281 31.023,130.391 30.867,130.734 30.523,130.438 30.117,130.281 29.711,130.281 28.508,130.281 27.477,131.625 27.477,133.438 27.477,135.266 28.523,136.594 29.711,136.594 30.273,136.594 30.695,136.297 30.883,136.062 30.883,136.281 30.883,136.484 31.242,136.484 31.57,136.484 31.57,136.266 31.57,136.078 Z" /><path
          inkscape:connector-curvature="0"
          id="path2714"
          style="fill:#000000"
          d="M 36.566,134.578 C 36.77,134.578 36.957,134.578 36.957,134.219 36.957,133.078 36.316,132.094 35.02,132.094 33.832,132.094 32.879,133.094 32.879,134.328 32.879,135.531 33.895,136.547 35.176,136.547 36.488,136.547 36.957,135.641 36.957,135.391 36.957,135.125 36.676,135.125 36.613,135.125 36.426,135.125 36.348,135.156 36.285,135.344 36.066,135.844 35.52,135.938 35.238,135.938 34.488,135.938 33.754,135.438 33.582,134.578 Z M 33.598,133.984 C 33.738,133.25 34.332,132.703 35.02,132.703 35.535,132.703 36.16,132.953 36.254,133.984 Z" /><path
          inkscape:connector-curvature="0"
          id="path2716"
          style="fill:#000000"
          d="M 39.781,132.797 H 41.406 C 41.562,132.797 41.812,132.797 41.812,132.5 41.812,132.188 41.562,132.188 41.406,132.188 H 39.781 V 131.375 C 39.781,131.188 39.781,130.969 39.438,130.969 39.094,130.969 39.094,131.172 39.094,131.375 V 132.188 H 38.219 C 38.062,132.188 37.812,132.188 37.812,132.5 37.812,132.797 38.062,132.797 38.203,132.797 H 39.094 V 135.234 C 39.094,136.188 39.766,136.547 40.5,136.547 41.234,136.547 42.031,136.109 42.031,135.234 42.031,135.047 42.031,134.844 41.688,134.844 41.359,134.844 41.344,135.047 41.344,135.219 41.344,135.844 40.766,135.938 40.547,135.938 39.781,135.938 39.781,135.422 39.781,135.172 Z" /><path
          inkscape:connector-curvature="0"
          id="path2718"
          style="fill:#000000"
          d="M 45.746,133.75 C 46.027,133.812 46.855,134.016 46.855,134.875 46.855,135.391 46.418,135.984 45.637,135.984 45.355,135.984 44.871,135.953 44.465,135.672 44.043,135.406 44.012,134.984 43.996,134.812 43.996,134.641 43.98,134.453 43.668,134.453 43.309,134.453 43.309,134.672 43.309,134.875 V 136.188 C 43.309,136.344 43.309,136.594 43.605,136.594 43.824,136.594 43.887,136.453 43.98,136.141 44.371,136.438 44.98,136.594 45.621,136.594 46.777,136.594 47.496,135.719 47.496,134.828 47.496,134.188 47.137,133.766 47.027,133.641 46.605,133.25 46.34,133.172 45.559,133 L 44.762,132.812 C 44.34,132.703 43.965,132.344 43.965,131.875 43.965,131.375 44.449,130.891 45.152,130.891 46.324,130.891 46.48,131.828 46.543,132.141 46.574,132.359 46.684,132.422 46.887,132.422 47.23,132.422 47.23,132.203 47.23,132.016 V 130.688 C 47.23,130.531 47.23,130.281 46.934,130.281 46.684,130.281 46.637,130.453 46.559,130.75 46.152,130.406 45.621,130.281 45.168,130.281 44.059,130.281 43.309,131.078 43.309,131.922 43.309,132.594 43.777,133.25 44.59,133.484 44.637,133.5 45.605,133.719 45.746,133.75 Z" /><g
          id="g2720"><path
             inkscape:connector-curvature="0"
             id="path2722"
             style="fill:none;stroke:#000000;stroke-width:2.83466;stroke-miterlimit:10"
             d="M 136.863,132.633 H 91.992" /></g><g
          id="g2724"><path
             inkscape:connector-curvature="0"
             id="path2726"
             style="fill:none;stroke:#000000;stroke-width:2.83466;stroke-linecap:square;stroke-miterlimit:10"
             d="M 137.57,138.879 V 126.387" /></g><g
          id="g2728"><path
             inkscape:connector-curvature="0"
             id="path2730"
             style="fill:#000000;stroke:#000000;stroke-width:2.83466;stroke-linejoin:round;stroke-miterlimit:10"
             d="M 89.734,132.633 C 92.559,133.195 95.379,134.328 98.77,136.305 95.379,133.762 95.379,131.504 98.77,128.961 95.379,130.938 92.559,132.066 89.734,132.633 Z" /></g><path
          inkscape:connector-curvature="0"
          id="path2732"
          style="fill:#000000"
          d="M 107.66,141.379 C 107.91,141.379 108.129,141.379 108.129,141.066 108.129,140.77 107.879,140.77 107.723,140.77 H 106.535 C 106.395,140.77 106.145,140.77 106.145,141.066 106.145,141.379 106.379,141.379 106.535,141.379 H 106.957 C 106.848,142.488 106.348,142.957 105.816,142.957 105.02,142.957 104.254,141.879 104.254,140.41 104.254,138.895 105.051,137.863 105.832,137.863 106.176,137.863 106.816,138.098 106.973,139.176 107.004,139.348 107.066,139.457 107.316,139.457 107.66,139.457 107.66,139.254 107.66,139.051 V 137.66 C 107.66,137.504 107.66,137.254 107.363,137.254 107.16,137.254 107.113,137.363 106.957,137.707 106.613,137.41 106.207,137.254 105.801,137.254 104.598,137.254 103.566,138.598 103.566,140.41 103.566,142.238 104.613,143.566 105.801,143.566 106.363,143.566 106.785,143.27 106.973,143.035 106.973,143.254 106.973,143.457 107.332,143.457 107.66,143.457 107.66,143.238 107.66,143.051 Z" /><path
          inkscape:connector-curvature="0"
          id="path2734"
          style="fill:#000000"
          d="M 112.656,141.551 C 112.859,141.551 113.047,141.551 113.047,141.191 113.047,140.051 112.406,139.066 111.109,139.066 109.922,139.066 108.969,140.066 108.969,141.301 108.969,142.504 109.984,143.52 111.266,143.52 112.578,143.52 113.047,142.613 113.047,142.363 113.047,142.098 112.766,142.098 112.703,142.098 112.516,142.098 112.438,142.129 112.375,142.316 112.156,142.816 111.609,142.91 111.328,142.91 110.578,142.91 109.844,142.41 109.672,141.551 Z M 109.688,140.957 C 109.828,140.223 110.422,139.676 111.109,139.676 111.625,139.676 112.25,139.926 112.344,140.957 Z" /><path
          inkscape:connector-curvature="0"
          id="path2736"
          style="fill:#000000"
          d="M 115.871,139.77 H 117.496 C 117.652,139.77 117.902,139.77 117.902,139.473 117.902,139.16 117.652,139.16 117.496,139.16 H 115.871 V 138.348 C 115.871,138.16 115.871,137.941 115.527,137.941 115.184,137.941 115.184,138.145 115.184,138.348 V 139.16 H 114.309 C 114.152,139.16 113.902,139.16 113.902,139.473 113.902,139.77 114.152,139.77 114.293,139.77 H 115.184 V 142.207 C 115.184,143.16 115.855,143.52 116.59,143.52 117.324,143.52 118.121,143.082 118.121,142.207 118.121,142.02 118.121,141.816 117.777,141.816 117.449,141.816 117.434,142.02 117.434,142.191 117.434,142.816 116.855,142.91 116.637,142.91 115.871,142.91 115.871,142.395 115.871,142.145 Z" /><path
          inkscape:connector-curvature="0"
          id="path2738"
          style="fill:#000000"
          d="M 121.836,140.723 C 122.117,140.785 122.945,140.988 122.945,141.848 122.945,142.363 122.508,142.957 121.727,142.957 121.445,142.957 120.961,142.926 120.555,142.645 120.133,142.379 120.102,141.957 120.086,141.785 120.086,141.613 120.07,141.426 119.758,141.426 119.398,141.426 119.398,141.645 119.398,141.848 V 143.16 C 119.398,143.316 119.398,143.566 119.695,143.566 119.914,143.566 119.977,143.426 120.07,143.113 120.461,143.41 121.07,143.566 121.711,143.566 122.867,143.566 123.586,142.691 123.586,141.801 123.586,141.16 123.227,140.738 123.117,140.613 122.695,140.223 122.43,140.145 121.648,139.973 L 120.852,139.785 C 120.43,139.676 120.055,139.316 120.055,138.848 120.055,138.348 120.539,137.863 121.242,137.863 122.414,137.863 122.57,138.801 122.633,139.113 122.664,139.332 122.773,139.395 122.977,139.395 123.32,139.395 123.32,139.176 123.32,138.988 V 137.66 C 123.32,137.504 123.32,137.254 123.023,137.254 122.773,137.254 122.727,137.426 122.648,137.723 122.242,137.379 121.711,137.254 121.258,137.254 120.148,137.254 119.398,138.051 119.398,138.895 119.398,139.566 119.867,140.223 120.68,140.457 120.727,140.473 121.695,140.691 121.836,140.723 Z" /><g
          id="g2740"><path
             inkscape:connector-curvature="0"
             id="path2742"
             style="fill:none;stroke:#000000;stroke-width:0.3985;stroke-miterlimit:10"
             d="M 51.512,193.859 H 138.988" /></g><g
          id="g2744"><path
             inkscape:connector-curvature="0"
             id="path2746"
             style="fill:#000000;stroke:#000000;stroke-width:0.3985;stroke-linejoin:round;stroke-miterlimit:10"
             d="M 50.715,193.859 C 51.711,194.059 52.707,194.457 53.902,195.156 52.707,194.258 52.707,193.461 53.902,192.563 52.707,193.262 51.711,193.66 50.715,193.859 Z" /></g><g
          id="g2748"><path
             inkscape:connector-curvature="0"
             id="path2750"
             style="fill:none;stroke:#ffffff;stroke-width:2.834646"
             d="M 87.852,202.965 C 87.852,203.324 87.852,203.465 88.258,203.465 H 88.977 C 89.148,203.465 89.398,203.465 89.398,203.152 89.398,202.855 89.133,202.855 88.992,202.855 H 88.539 V 197.777 C 88.539,197.48 88.492,197.371 88.148,197.371 H 87.414 C 87.258,197.371 87.008,197.371 87.008,197.684 87.008,197.98 87.273,197.98 87.414,197.98 H 87.852 V 199.559 C 87.523,199.262 87.117,199.105 86.695,199.105 85.602,199.105 84.648,200.059 84.648,201.324 84.648,202.559 85.539,203.527 86.602,203.527 87.164,203.527 87.586,203.262 87.852,202.965 Z M 87.852,200.824 V 201.527 C 87.852,202.09 87.414,202.918 86.648,202.918 85.93,202.918 85.336,202.215 85.336,201.324 85.336,200.371 86.039,199.715 86.727,199.715 87.367,199.715 87.852,200.277 87.852,200.824 Z" /></g><path
          inkscape:connector-curvature="0"
          id="path2752"
          style="fill:#000000"
          d="M 87.852,202.965 C 87.852,203.324 87.852,203.465 88.258,203.465 H 88.977 C 89.148,203.465 89.398,203.465 89.398,203.152 89.398,202.855 89.133,202.855 88.992,202.855 H 88.539 V 197.777 C 88.539,197.48 88.492,197.371 88.148,197.371 H 87.414 C 87.258,197.371 87.008,197.371 87.008,197.684 87.008,197.98 87.273,197.98 87.414,197.98 H 87.852 V 199.559 C 87.523,199.262 87.117,199.105 86.695,199.105 85.602,199.105 84.648,200.059 84.648,201.324 84.648,202.559 85.539,203.527 86.602,203.527 87.164,203.527 87.586,203.262 87.852,202.965 Z M 87.852,200.824 V 201.527 C 87.852,202.09 87.414,202.918 86.648,202.918 85.93,202.918 85.336,202.215 85.336,201.324 85.336,200.371 86.039,199.715 86.727,199.715 87.367,199.715 87.852,200.277 87.852,200.824 Z" /><g
          id="g2754"><path
             inkscape:connector-curvature="0"
             id="path2756"
             style="fill:none;stroke:#ffffff;stroke-width:2.834646"
             d="M 93.176,203.152 C 93.395,203.449 93.863,203.465 94.238,203.465 94.52,203.465 94.738,203.465 94.738,203.152 94.738,202.855 94.488,202.855 94.348,202.855 93.926,202.855 93.832,202.809 93.754,202.777 V 200.621 C 93.754,199.918 93.207,199.074 91.77,199.074 91.348,199.074 90.332,199.074 90.332,199.809 90.332,200.105 90.535,200.262 90.77,200.262 90.926,200.262 91.207,200.168 91.207,199.809 91.207,199.73 91.223,199.715 91.426,199.699 91.566,199.684 91.691,199.684 91.785,199.684 92.535,199.684 93.051,199.996 93.051,200.699 91.301,200.73 90.066,201.23 90.066,202.184 90.066,202.871 90.691,203.527 91.707,203.527 92.082,203.527 92.707,203.449 93.176,203.152 Z M 93.051,201.293 V 202.137 C 93.051,202.355 93.051,202.574 92.676,202.746 92.316,202.918 91.863,202.918 91.785,202.918 91.16,202.918 90.754,202.574 90.754,202.184 90.754,201.699 91.613,201.324 93.051,201.293 Z" /></g><path
          inkscape:connector-curvature="0"
          id="path2758"
          style="fill:#000000"
          d="M 93.176,203.152 C 93.395,203.449 93.863,203.465 94.238,203.465 94.52,203.465 94.738,203.465 94.738,203.152 94.738,202.855 94.488,202.855 94.348,202.855 93.926,202.855 93.832,202.809 93.754,202.777 V 200.621 C 93.754,199.918 93.207,199.074 91.77,199.074 91.348,199.074 90.332,199.074 90.332,199.809 90.332,200.105 90.535,200.262 90.77,200.262 90.926,200.262 91.207,200.168 91.207,199.809 91.207,199.73 91.223,199.715 91.426,199.699 91.566,199.684 91.691,199.684 91.785,199.684 92.535,199.684 93.051,199.996 93.051,200.699 91.301,200.73 90.066,201.23 90.066,202.184 90.066,202.871 90.691,203.527 91.707,203.527 92.082,203.527 92.707,203.449 93.176,203.152 Z M 93.051,201.293 V 202.137 C 93.051,202.355 93.051,202.574 92.676,202.746 92.316,202.918 91.863,202.918 91.785,202.918 91.16,202.918 90.754,202.574 90.754,202.184 90.754,201.699 91.613,201.324 93.051,201.293 Z" /><g
          id="g2760"><path
             inkscape:connector-curvature="0"
             id="path2762"
             style="fill:none;stroke:#ffffff;stroke-width:2.834646"
             d="M 96.969,199.777 H 98.594 C 98.75,199.777 99,199.777 99,199.48 99,199.168 98.75,199.168 98.594,199.168 H 96.969 V 198.355 C 96.969,198.168 96.969,197.949 96.625,197.949 96.281,197.949 96.281,198.152 96.281,198.355 V 199.168 H 95.406 C 95.25,199.168 95,199.168 95,199.48 95,199.777 95.25,199.777 95.391,199.777 H 96.281 V 202.215 C 96.281,203.168 96.953,203.527 97.688,203.527 98.422,203.527 99.219,203.09 99.219,202.215 99.219,202.027 99.219,201.824 98.875,201.824 98.547,201.824 98.531,202.027 98.531,202.199 98.531,202.824 97.953,202.918 97.734,202.918 96.969,202.918 96.969,202.402 96.969,202.152 Z" /></g><path
          inkscape:connector-curvature="0"
          id="path2764"
          style="fill:#000000"
          d="M 96.969,199.777 H 98.594 C 98.75,199.777 99,199.777 99,199.48 99,199.168 98.75,199.168 98.594,199.168 H 96.969 V 198.355 C 96.969,198.168 96.969,197.949 96.625,197.949 96.281,197.949 96.281,198.152 96.281,198.355 V 199.168 H 95.406 C 95.25,199.168 95,199.168 95,199.48 95,199.777 95.25,199.777 95.391,199.777 H 96.281 V 202.215 C 96.281,203.168 96.953,203.527 97.688,203.527 98.422,203.527 99.219,203.09 99.219,202.215 99.219,202.027 99.219,201.824 98.875,201.824 98.547,201.824 98.531,202.027 98.531,202.199 98.531,202.824 97.953,202.918 97.734,202.918 96.969,202.918 96.969,202.402 96.969,202.152 Z" /><g
          id="g2766"><path
             inkscape:connector-curvature="0"
             id="path2768"
             style="fill:none;stroke:#ffffff;stroke-width:2.834646"
             d="M 103.637,203.152 C 103.855,203.449 104.324,203.465 104.699,203.465 104.98,203.465 105.199,203.465 105.199,203.152 105.199,202.855 104.949,202.855 104.809,202.855 104.387,202.855 104.293,202.809 104.215,202.777 V 200.621 C 104.215,199.918 103.668,199.074 102.23,199.074 101.809,199.074 100.793,199.074 100.793,199.809 100.793,200.105 100.996,200.262 101.23,200.262 101.387,200.262 101.668,200.168 101.668,199.809 101.668,199.73 101.684,199.715 101.887,199.699 102.027,199.684 102.152,199.684 102.246,199.684 102.996,199.684 103.512,199.996 103.512,200.699 101.762,200.73 100.527,201.23 100.527,202.184 100.527,202.871 101.152,203.527 102.168,203.527 102.543,203.527 103.168,203.449 103.637,203.152 Z M 103.512,201.293 V 202.137 C 103.512,202.355 103.512,202.574 103.137,202.746 102.777,202.918 102.324,202.918 102.246,202.918 101.621,202.918 101.215,202.574 101.215,202.184 101.215,201.699 102.074,201.324 103.512,201.293 Z" /></g><path
          inkscape:connector-curvature="0"
          id="path2770"
          style="fill:#000000"
          d="M 103.637,203.152 C 103.855,203.449 104.324,203.465 104.699,203.465 104.98,203.465 105.199,203.465 105.199,203.152 105.199,202.855 104.949,202.855 104.809,202.855 104.387,202.855 104.293,202.809 104.215,202.777 V 200.621 C 104.215,199.918 103.668,199.074 102.23,199.074 101.809,199.074 100.793,199.074 100.793,199.809 100.793,200.105 100.996,200.262 101.23,200.262 101.387,200.262 101.668,200.168 101.668,199.809 101.668,199.73 101.684,199.715 101.887,199.699 102.027,199.684 102.152,199.684 102.246,199.684 102.996,199.684 103.512,199.996 103.512,200.699 101.762,200.73 100.527,201.23 100.527,202.184 100.527,202.871 101.152,203.527 102.168,203.527 102.543,203.527 103.168,203.449 103.637,203.152 Z M 103.512,201.293 V 202.137 C 103.512,202.355 103.512,202.574 103.137,202.746 102.777,202.918 102.324,202.918 102.246,202.918 101.621,202.918 101.215,202.574 101.215,202.184 101.215,201.699 102.074,201.324 103.512,201.293 Z" /><g
          id="g2772"><path
             inkscape:connector-curvature="0"
             id="path2774"
             style="fill:none;stroke:#000000;stroke-width:0.3985;stroke-miterlimit:10"
             d="M 88.316,181.102 H 137.992" /></g><g
          id="g2776"><path
             inkscape:connector-curvature="0"
             id="path2778"
             style="fill:#000000;stroke:#000000;stroke-width:0.3985;stroke-linejoin:round;stroke-miterlimit:10"
             d="M 138.789,181.102 C 137.793,180.902 136.797,180.504 135.602,179.809 136.797,180.703 136.797,181.5 135.602,182.398 136.797,181.699 137.793,181.301 138.789,181.102 Z" /></g><path
          inkscape:connector-curvature="0"
          id="path2780"
          style="fill:#000000"
          d="M 106.754,190.211 C 106.754,190.57 106.754,190.711 107.16,190.711 H 107.879 C 108.051,190.711 108.301,190.711 108.301,190.398 108.301,190.102 108.035,190.102 107.895,190.102 H 107.441 V 185.023 C 107.441,184.727 107.395,184.617 107.051,184.617 H 106.316 C 106.16,184.617 105.91,184.617 105.91,184.93 105.91,185.227 106.176,185.227 106.316,185.227 H 106.754 V 186.805 C 106.426,186.508 106.02,186.352 105.598,186.352 104.504,186.352 103.551,187.305 103.551,188.57 103.551,189.805 104.441,190.773 105.504,190.773 106.066,190.773 106.488,190.508 106.754,190.211 Z M 106.754,188.07 V 188.773 C 106.754,189.336 106.316,190.164 105.551,190.164 104.832,190.164 104.238,189.461 104.238,188.57 104.238,187.617 104.941,186.961 105.629,186.961 106.27,186.961 106.754,187.523 106.754,188.07 Z" /><path
          inkscape:connector-curvature="0"
          id="path2782"
          style="fill:#000000"
          d="M 112.078,190.398 C 112.297,190.695 112.766,190.711 113.141,190.711 113.422,190.711 113.641,190.711 113.641,190.398 113.641,190.102 113.391,190.102 113.25,190.102 112.828,190.102 112.734,190.055 112.656,190.023 V 187.867 C 112.656,187.164 112.109,186.32 110.672,186.32 110.25,186.32 109.234,186.32 109.234,187.055 109.234,187.352 109.438,187.508 109.672,187.508 109.828,187.508 110.109,187.414 110.109,187.055 110.109,186.977 110.125,186.961 110.328,186.945 110.469,186.93 110.594,186.93 110.688,186.93 111.438,186.93 111.953,187.242 111.953,187.945 110.203,187.977 108.969,188.477 108.969,189.43 108.969,190.117 109.594,190.773 110.609,190.773 110.984,190.773 111.609,190.695 112.078,190.398 Z M 111.953,188.539 V 189.383 C 111.953,189.602 111.953,189.82 111.578,189.992 111.219,190.164 110.766,190.164 110.688,190.164 110.062,190.164 109.656,189.82 109.656,189.43 109.656,188.945 110.516,188.57 111.953,188.539 Z" /><path
          inkscape:connector-curvature="0"
          id="path2784"
          style="fill:#000000"
          d="M 115.871,187.023 H 117.496 C 117.652,187.023 117.902,187.023 117.902,186.727 117.902,186.414 117.652,186.414 117.496,186.414 H 115.871 V 185.602 C 115.871,185.414 115.871,185.195 115.527,185.195 115.184,185.195 115.184,185.398 115.184,185.602 V 186.414 H 114.309 C 114.152,186.414 113.902,186.414 113.902,186.727 113.902,187.023 114.152,187.023 114.293,187.023 H 115.184 V 189.461 C 115.184,190.414 115.855,190.773 116.59,190.773 117.324,190.773 118.121,190.336 118.121,189.461 118.121,189.273 118.121,189.07 117.777,189.07 117.449,189.07 117.434,189.273 117.434,189.445 117.434,190.07 116.855,190.164 116.637,190.164 115.871,190.164 115.871,189.648 115.871,189.398 Z" /><path
          inkscape:connector-curvature="0"
          id="path2786"
          style="fill:#000000"
          d="M 122.539,190.398 C 122.758,190.695 123.227,190.711 123.602,190.711 123.883,190.711 124.102,190.711 124.102,190.398 124.102,190.102 123.852,190.102 123.711,190.102 123.289,190.102 123.195,190.055 123.117,190.023 V 187.867 C 123.117,187.164 122.57,186.32 121.133,186.32 120.711,186.32 119.695,186.32 119.695,187.055 119.695,187.352 119.898,187.508 120.133,187.508 120.289,187.508 120.57,187.414 120.57,187.055 120.57,186.977 120.586,186.961 120.789,186.945 120.93,186.93 121.055,186.93 121.148,186.93 121.898,186.93 122.414,187.242 122.414,187.945 120.664,187.977 119.43,188.477 119.43,189.43 119.43,190.117 120.055,190.773 121.07,190.773 121.445,190.773 122.07,190.695 122.539,190.398 Z M 122.414,188.539 V 189.383 C 122.414,189.602 122.414,189.82 122.039,189.992 121.68,190.164 121.227,190.164 121.148,190.164 120.523,190.164 120.117,189.82 120.117,189.43 120.117,188.945 120.977,188.57 122.414,188.539 Z" /><g
          id="g2788"><path
             inkscape:connector-curvature="0"
             id="path2790"
             style="fill:#ffffff;stroke:#000000;stroke-width:0.3985;stroke-miterlimit:10"
             d="M 37.344,28.816 H 63.688 V 59.367 H 37.344 Z" /></g><path
          inkscape:connector-curvature="0"
          id="path2792"
          style="fill:#000000"
          d="M 49.594,35.02 H 50.672 C 50.828,35.02 51.094,35.02 51.094,34.723 51.094,34.41 50.828,34.41 50.672,34.41 H 47.844 C 47.688,34.41 47.422,34.41 47.422,34.707 47.422,35.02 47.688,35.02 47.844,35.02 H 48.906 V 39.895 H 47.844 C 47.688,39.895 47.422,39.895 47.422,40.191 47.422,40.504 47.688,40.504 47.844,40.504 H 50.672 C 50.828,40.504 51.094,40.504 51.094,40.207 51.094,39.895 50.828,39.895 50.672,39.895 H 49.594 Z" /><path
          inkscape:connector-curvature="0"
          id="path2794"
          style="fill:#000000"
          d="M 49.906,45.367 C 49.953,45.258 49.953,45.227 49.953,45.18 49.953,45.07 49.875,44.977 49.766,44.977 49.672,44.977 49.594,45.039 49.531,45.211 L 47.781,49.789 C 47.766,49.852 47.734,49.914 47.734,49.961 47.734,49.992 47.734,50.023 47.781,50.133 L 49.531,54.711 C 49.578,54.82 49.625,54.961 49.766,54.961 49.875,54.961 49.953,54.867 49.953,54.758 49.953,54.727 49.953,54.711 49.906,54.602 L 48.141,49.961 Z" /><path
          inkscape:connector-curvature="0"
          id="path2796"
          style="fill:#000000"
          d="M 53.234,50.133 C 53.281,50.023 53.281,49.992 53.281,49.961 53.281,49.945 53.281,49.914 53.234,49.805 L 51.5,45.211 C 51.438,45.039 51.375,44.977 51.266,44.977 51.156,44.977 51.062,45.07 51.062,45.18 51.062,45.211 51.062,45.227 51.109,45.336 L 52.875,49.961 51.109,54.57 C 51.062,54.68 51.062,54.711 51.062,54.758 51.062,54.867 51.156,54.961 51.266,54.961 51.391,54.961 51.438,54.852 51.469,54.758 Z" /><g
          id="g2798"><path
             inkscape:connector-curvature="0"
             id="path2800"
             style="fill:#ffffff;stroke:#000000;stroke-width:0.3985;stroke-miterlimit:10"
             d="M 75.145,28.816 H 101.489 V 59.367 H 75.145 Z" /></g><path
          inkscape:connector-curvature="0"
          id="path2802"
          style="fill:#000000"
          d="M 87.332,36.832 C 87.207,37.191 87.129,37.473 87.066,37.77 H 87.051 C 86.957,37.301 86.082,34.707 86.051,34.645 85.957,34.41 85.707,34.41 85.566,34.41 H 85.004 C 84.863,34.41 84.613,34.41 84.613,34.707 84.613,35.02 84.816,35.02 85.145,35.02 V 39.895 C 84.816,39.895 84.613,39.895 84.613,40.207 84.613,40.504 84.863,40.504 85.004,40.504 H 85.832 C 85.973,40.504 86.223,40.504 86.223,40.207 86.223,39.895 86.02,39.895 85.691,39.895 V 35.145 H 85.707 C 85.816,35.598 86.457,37.52 86.488,37.645 86.582,37.879 86.707,38.254 86.754,38.316 86.816,38.395 86.941,38.473 87.051,38.473 87.176,38.473 87.316,38.395 87.395,38.254 87.426,38.191 88.285,35.676 88.395,35.145 H 88.41 V 39.895 C 88.098,39.895 87.879,39.895 87.879,40.207 87.879,40.504 88.129,40.504 88.285,40.504 H 89.098 C 89.254,40.504 89.488,40.504 89.488,40.207 89.488,39.895 89.285,39.895 88.973,39.895 V 35.02 C 89.285,35.02 89.488,35.02 89.488,34.707 89.488,34.41 89.254,34.41 89.098,34.41 H 88.535 C 88.129,34.41 88.098,34.551 88.004,34.816 Z" /><path
          inkscape:connector-curvature="0"
          id="path2804"
          style="fill:#000000"
          d="M 87.707,45.367 C 87.754,45.258 87.754,45.227 87.754,45.18 87.754,45.07 87.676,44.977 87.566,44.977 87.473,44.977 87.395,45.039 87.332,45.211 L 85.582,49.789 C 85.566,49.852 85.535,49.914 85.535,49.961 85.535,49.992 85.535,50.023 85.582,50.133 L 87.332,54.711 C 87.379,54.82 87.426,54.961 87.566,54.961 87.676,54.961 87.754,54.867 87.754,54.758 87.754,54.727 87.754,54.711 87.707,54.602 L 85.941,49.961 Z" /><path
          inkscape:connector-curvature="0"
          id="path2806"
          style="fill:#000000"
          d="M 91.035,50.133 C 91.082,50.023 91.082,49.992 91.082,49.961 91.082,49.945 91.082,49.914 91.035,49.805 L 89.301,45.211 C 89.238,45.039 89.176,44.977 89.066,44.977 88.957,44.977 88.863,45.07 88.863,45.18 88.863,45.211 88.863,45.227 88.91,45.336 L 90.676,49.961 88.91,54.57 C 88.863,54.68 88.863,54.711 88.863,54.758 88.863,54.867 88.957,54.961 89.066,54.961 89.191,54.961 89.238,54.852 89.27,54.758 Z" /><g
          id="g2808"><path
             inkscape:connector-curvature="0"
             id="path2810"
             style="fill:#ffffff;stroke:#000000;stroke-width:0.3985;stroke-miterlimit:10"
             d="M 26.883,77.004 H 74.149 V 107.555 H 26.883 Z" /></g><path
          inkscape:connector-curvature="0"
          id="path2812"
          style="fill:#000000"
          d="M 39.133,83.207 H 40.211 C 40.367,83.207 40.633,83.207 40.633,82.91 40.633,82.598 40.367,82.598 40.211,82.598 H 37.383 C 37.227,82.598 36.961,82.598 36.961,82.895 36.961,83.207 37.227,83.207 37.383,83.207 H 38.445 V 88.082 H 37.383 C 37.227,88.082 36.961,88.082 36.961,88.379 36.961,88.691 37.227,88.691 37.383,88.691 H 40.211 C 40.367,88.691 40.633,88.691 40.633,88.395 40.633,88.082 40.367,88.082 40.211,88.082 H 39.133 Z" /><path
          inkscape:connector-curvature="0"
          id="path2814"
          style="fill:#000000"
          d="M 44.363,85.957 C 44.645,86.02 45.473,86.223 45.473,87.082 45.473,87.598 45.035,88.191 44.254,88.191 43.973,88.191 43.488,88.16 43.082,87.879 42.66,87.613 42.629,87.191 42.613,87.02 42.613,86.848 42.598,86.66 42.285,86.66 41.926,86.66 41.926,86.879 41.926,87.082 V 88.395 C 41.926,88.551 41.926,88.801 42.223,88.801 42.441,88.801 42.504,88.66 42.598,88.348 42.988,88.645 43.598,88.801 44.238,88.801 45.395,88.801 46.113,87.926 46.113,87.035 46.113,86.395 45.754,85.973 45.645,85.848 45.223,85.457 44.957,85.379 44.176,85.207 L 43.379,85.02 C 42.957,84.91 42.582,84.551 42.582,84.082 42.582,83.582 43.066,83.098 43.77,83.098 44.941,83.098 45.098,84.035 45.16,84.348 45.191,84.566 45.301,84.629 45.504,84.629 45.848,84.629 45.848,84.41 45.848,84.223 V 82.895 C 45.848,82.738 45.848,82.488 45.551,82.488 45.301,82.488 45.254,82.66 45.176,82.957 44.77,82.613 44.238,82.488 43.785,82.488 42.676,82.488 41.926,83.285 41.926,84.129 41.926,84.801 42.395,85.457 43.207,85.691 43.254,85.707 44.223,85.926 44.363,85.957 Z" /><path
          inkscape:connector-curvature="0"
          id="path2816"
          style="fill:#000000"
          d="M 47.094,80.812 C 47,80.812 46.797,80.812 46.797,81.047 46.797,81.281 47,81.281 47.094,81.281 H 47.266 V 84.625 H 47.094 C 47,84.625 46.797,84.625 46.797,84.844 46.797,85.078 47,85.078 47.094,85.078 H 48.828 C 49.609,85.078 50.031,84.453 50.031,83.906 50.031,83.391 49.641,82.953 49.141,82.844 49.562,82.703 49.891,82.344 49.891,81.906 49.891,81.391 49.453,80.812 48.688,80.812 Z M 47.797,82.625 V 81.281 H 48.656 C 49.219,81.281 49.359,81.719 49.359,81.922 49.359,82.219 49.109,82.625 48.531,82.625 Z M 47.797,84.625 V 83.094 H 48.703 C 49.406,83.094 49.5,83.719 49.5,83.891 49.5,84.203 49.266,84.625 48.656,84.625 Z" /><path
          inkscape:connector-curvature="0"
          id="path2818"
          style="fill:#000000"
          d="M 50.766,80.812 C 50.656,80.812 50.469,80.812 50.469,81.047 50.469,81.281 50.656,81.281 50.766,81.281 H 50.906 V 84.625 H 50.766 C 50.656,84.625 50.469,84.625 50.469,84.844 50.469,85.078 50.656,85.078 50.766,85.078 H 52.219 C 53.141,85.078 53.766,84.094 53.766,82.984 53.766,81.875 53.172,80.812 52.219,80.812 Z M 51.438,84.625 V 81.281 H 52.078 C 52.859,81.281 53.234,82.188 53.234,82.984 53.234,83.781 52.844,84.625 52.078,84.625 Z" /><path
          inkscape:connector-curvature="0"
          id="path2820"
          style="fill:#000000"
          d="M 39.445,93.555 C 39.492,93.445 39.492,93.414 39.492,93.367 39.492,93.258 39.414,93.164 39.305,93.164 39.211,93.164 39.133,93.227 39.07,93.398 L 37.32,97.977 C 37.305,98.039 37.273,98.102 37.273,98.148 37.273,98.18 37.273,98.211 37.32,98.32 L 39.07,102.898 C 39.117,103.008 39.164,103.148 39.305,103.148 39.414,103.148 39.492,103.055 39.492,102.945 39.492,102.914 39.492,102.898 39.445,102.789 L 37.68,98.148 Z" /><path
          inkscape:connector-curvature="0"
          id="path2822"
          style="fill:#000000"
          d="M 44.523,98.57 C 44.773,98.57 44.992,98.57 44.992,98.258 44.992,97.961 44.742,97.961 44.586,97.961 H 43.398 C 43.258,97.961 43.008,97.961 43.008,98.258 43.008,98.57 43.242,98.57 43.398,98.57 H 43.82 C 43.711,99.68 43.211,100.148 42.68,100.148 41.883,100.148 41.117,99.07 41.117,97.602 41.117,96.086 41.914,95.055 42.695,95.055 43.039,95.055 43.68,95.289 43.836,96.367 43.867,96.539 43.93,96.648 44.18,96.648 44.523,96.648 44.523,96.445 44.523,96.242 V 94.852 C 44.523,94.695 44.523,94.445 44.227,94.445 44.023,94.445 43.977,94.555 43.82,94.898 43.477,94.602 43.07,94.445 42.664,94.445 41.461,94.445 40.43,95.789 40.43,97.602 40.43,99.43 41.477,100.758 42.664,100.758 43.227,100.758 43.648,100.461 43.836,100.227 43.836,100.445 43.836,100.648 44.195,100.648 44.523,100.648 44.523,100.43 44.523,100.242 Z" /><path
          inkscape:connector-curvature="0"
          id="path2824"
          style="fill:#000000"
          d="M 49.52,98.742 C 49.723,98.742 49.91,98.742 49.91,98.383 49.91,97.242 49.27,96.258 47.973,96.258 46.785,96.258 45.832,97.258 45.832,98.492 45.832,99.695 46.848,100.711 48.129,100.711 49.441,100.711 49.91,99.805 49.91,99.555 49.91,99.289 49.629,99.289 49.566,99.289 49.379,99.289 49.301,99.32 49.238,99.508 49.02,100.008 48.473,100.102 48.191,100.102 47.441,100.102 46.707,99.602 46.535,98.742 Z M 46.551,98.148 C 46.691,97.414 47.285,96.867 47.973,96.867 48.488,96.867 49.113,97.117 49.207,98.148 Z" /><path
          inkscape:connector-curvature="0"
          id="path2826"
          style="fill:#000000"
          d="M 52.734,96.961 H 54.359 C 54.516,96.961 54.766,96.961 54.766,96.664 54.766,96.352 54.516,96.352 54.359,96.352 H 52.734 V 95.539 C 52.734,95.352 52.734,95.133 52.391,95.133 52.047,95.133 52.047,95.336 52.047,95.539 V 96.352 H 51.172 C 51.016,96.352 50.766,96.352 50.766,96.664 50.766,96.961 51.016,96.961 51.156,96.961 H 52.047 V 99.398 C 52.047,100.352 52.719,100.711 53.453,100.711 54.188,100.711 54.984,100.273 54.984,99.398 54.984,99.211 54.984,99.008 54.641,99.008 54.312,99.008 54.297,99.211 54.297,99.383 54.297,100.008 53.719,100.102 53.5,100.102 52.734,100.102 52.734,99.586 52.734,99.336 Z" /><path
          inkscape:connector-curvature="0"
          id="path2828"
          style="fill:#000000"
          d="M 58.699,97.914 C 58.98,97.977 59.809,98.18 59.809,99.039 59.809,99.555 59.371,100.148 58.59,100.148 58.309,100.148 57.824,100.117 57.418,99.836 56.996,99.57 56.965,99.148 56.949,98.977 56.949,98.805 56.934,98.617 56.621,98.617 56.262,98.617 56.262,98.836 56.262,99.039 V 100.352 C 56.262,100.508 56.262,100.758 56.559,100.758 56.777,100.758 56.84,100.617 56.934,100.305 57.324,100.602 57.934,100.758 58.574,100.758 59.73,100.758 60.449,99.883 60.449,98.992 60.449,98.352 60.09,97.93 59.98,97.805 59.559,97.414 59.293,97.336 58.512,97.164 L 57.715,96.977 C 57.293,96.867 56.918,96.508 56.918,96.039 56.918,95.539 57.402,95.055 58.105,95.055 59.277,95.055 59.434,95.992 59.496,96.305 59.527,96.523 59.637,96.586 59.84,96.586 60.184,96.586 60.184,96.367 60.184,96.18 V 94.852 C 60.184,94.695 60.184,94.445 59.887,94.445 59.637,94.445 59.59,94.617 59.512,94.914 59.105,94.57 58.574,94.445 58.121,94.445 57.012,94.445 56.262,95.242 56.262,96.086 56.262,96.758 56.73,97.414 57.543,97.648 57.59,97.664 58.559,97.883 58.699,97.914 Z" /><path
          inkscape:connector-curvature="0"
          id="path2830"
          style="fill:#000000"
          d="M 63.695,98.32 C 63.742,98.211 63.742,98.18 63.742,98.148 63.742,98.133 63.742,98.102 63.695,97.992 L 61.961,93.398 C 61.898,93.227 61.836,93.164 61.727,93.164 61.617,93.164 61.523,93.258 61.523,93.367 61.523,93.398 61.523,93.414 61.57,93.523 L 63.336,98.148 61.57,102.758 C 61.523,102.867 61.523,102.898 61.523,102.945 61.523,103.055 61.617,103.148 61.727,103.148 61.852,103.148 61.898,103.039 61.93,102.945 Z" /><g
          id="g2832"><path
             inkscape:connector-curvature="0"
             id="path2834"
             style="fill:#ffffff;stroke:#000000;stroke-width:0.3985;stroke-miterlimit:10"
             d="M 33.887,147.871 H 67.145 V 178.422 H 33.887 Z" /></g><path
          inkscape:connector-curvature="0"
          id="path2836"
          style="fill:#000000"
          d="M 46.137,154.074 H 47.215 C 47.371,154.074 47.637,154.074 47.637,153.777 47.637,153.465 47.371,153.465 47.215,153.465 H 44.387 C 44.23,153.465 43.965,153.465 43.965,153.762 43.965,154.074 44.23,154.074 44.387,154.074 H 45.449 V 158.949 H 44.387 C 44.23,158.949 43.965,158.949 43.965,159.246 43.965,159.559 44.23,159.559 44.387,159.559 H 47.215 C 47.371,159.559 47.637,159.559 47.637,159.262 47.637,158.949 47.371,158.949 47.215,158.949 H 46.137 Z" /><path
          inkscape:connector-curvature="0"
          id="path2838"
          style="fill:#000000"
          d="M 51.367,156.824 C 51.648,156.887 52.477,157.09 52.477,157.949 52.477,158.465 52.039,159.059 51.258,159.059 50.977,159.059 50.492,159.027 50.086,158.746 49.664,158.48 49.633,158.059 49.617,157.887 49.617,157.715 49.602,157.527 49.289,157.527 48.93,157.527 48.93,157.746 48.93,157.949 V 159.262 C 48.93,159.418 48.93,159.668 49.227,159.668 49.445,159.668 49.508,159.527 49.602,159.215 49.992,159.512 50.602,159.668 51.242,159.668 52.398,159.668 53.117,158.793 53.117,157.902 53.117,157.262 52.758,156.84 52.648,156.715 52.227,156.324 51.961,156.246 51.18,156.074 L 50.383,155.887 C 49.961,155.777 49.586,155.418 49.586,154.949 49.586,154.449 50.07,153.965 50.773,153.965 51.945,153.965 52.102,154.902 52.164,155.215 52.195,155.434 52.305,155.496 52.508,155.496 52.852,155.496 52.852,155.277 52.852,155.09 V 153.762 C 52.852,153.605 52.852,153.355 52.555,153.355 52.305,153.355 52.258,153.527 52.18,153.824 51.773,153.48 51.242,153.355 50.789,153.355 49.68,153.355 48.93,154.152 48.93,154.996 48.93,155.668 49.398,156.324 50.211,156.559 50.258,156.574 51.227,156.793 51.367,156.824 Z" /><path
          inkscape:connector-curvature="0"
          id="path2840"
          style="fill:#000000"
          d="M 54.066,151.676 C 53.957,151.676 53.77,151.676 53.77,151.91 53.77,152.145 53.957,152.145 54.066,152.145 H 54.207 V 155.488 H 54.066 C 53.957,155.488 53.77,155.488 53.77,155.707 53.77,155.941 53.957,155.941 54.066,155.941 H 55.52 C 56.441,155.941 57.066,154.957 57.066,153.848 57.066,152.738 56.473,151.676 55.52,151.676 Z M 54.738,155.488 V 152.145 H 55.379 C 56.16,152.145 56.535,153.051 56.535,153.848 56.535,154.645 56.145,155.488 55.379,155.488 Z" /><path
          inkscape:connector-curvature="0"
          id="path2842"
          style="fill:#000000"
          d="M 46.449,164.422 C 46.496,164.312 46.496,164.281 46.496,164.234 46.496,164.125 46.418,164.031 46.309,164.031 46.215,164.031 46.137,164.094 46.074,164.266 L 44.324,168.844 C 44.309,168.906 44.277,168.969 44.277,169.016 44.277,169.047 44.277,169.078 44.324,169.188 L 46.074,173.766 C 46.121,173.875 46.168,174.016 46.309,174.016 46.418,174.016 46.496,173.922 46.496,173.812 46.496,173.781 46.496,173.766 46.449,173.656 L 44.684,169.016 Z" /><path
          inkscape:connector-curvature="0"
          id="path2844"
          style="fill:#000000"
          d="M 49.777,169.188 C 49.824,169.078 49.824,169.047 49.824,169.016 49.824,169 49.824,168.969 49.777,168.859 L 48.043,164.266 C 47.98,164.094 47.918,164.031 47.809,164.031 47.699,164.031 47.605,164.125 47.605,164.234 47.605,164.266 47.605,164.281 47.652,164.391 L 49.418,169.016 47.652,173.625 C 47.605,173.734 47.605,173.766 47.605,173.812 47.605,173.922 47.699,174.016 47.809,174.016 47.934,174.016 47.98,173.906 48.012,173.812 Z" /><g
          id="g2846"><path
             inkscape:connector-curvature="0"
             id="path2848"
             style="fill:#ffffff;stroke:#000000;stroke-width:0.3985;stroke-miterlimit:10"
             d="M 75.145,213.07 H 101.489 V 243.621 H 75.145 Z" /></g><path
          inkscape:connector-curvature="0"
          id="path2850"
          style="fill:#000000"
          d="M 87.395,222.023 C 87.676,222.086 88.504,222.289 88.504,223.148 88.504,223.664 88.066,224.258 87.285,224.258 87.004,224.258 86.52,224.227 86.113,223.945 85.691,223.68 85.66,223.258 85.645,223.086 85.645,222.914 85.629,222.727 85.316,222.727 84.957,222.727 84.957,222.945 84.957,223.148 V 224.461 C 84.957,224.617 84.957,224.867 85.254,224.867 85.473,224.867 85.535,224.727 85.629,224.414 86.02,224.711 86.629,224.867 87.27,224.867 88.426,224.867 89.145,223.992 89.145,223.102 89.145,222.461 88.785,222.039 88.676,221.914 88.254,221.523 87.988,221.445 87.207,221.273 L 86.41,221.086 C 85.988,220.977 85.613,220.617 85.613,220.148 85.613,219.648 86.098,219.164 86.801,219.164 87.973,219.164 88.129,220.102 88.191,220.414 88.223,220.633 88.332,220.695 88.535,220.695 88.879,220.695 88.879,220.477 88.879,220.289 V 218.961 C 88.879,218.805 88.879,218.555 88.582,218.555 88.332,218.555 88.285,218.727 88.207,219.023 87.801,218.68 87.27,218.555 86.816,218.555 85.707,218.555 84.957,219.352 84.957,220.195 84.957,220.867 85.426,221.523 86.238,221.758 86.285,221.773 87.254,221.992 87.395,222.023 Z" /><path
          inkscape:connector-curvature="0"
          id="path2852"
          style="fill:#000000"
          d="M 87.707,229.617 C 87.754,229.508 87.754,229.477 87.754,229.43 87.754,229.32 87.676,229.227 87.566,229.227 87.473,229.227 87.395,229.289 87.332,229.461 L 85.582,234.039 C 85.566,234.102 85.535,234.164 85.535,234.211 85.535,234.242 85.535,234.273 85.582,234.383 L 87.332,238.961 C 87.379,239.07 87.426,239.211 87.566,239.211 87.676,239.211 87.754,239.117 87.754,239.008 87.754,238.977 87.754,238.961 87.707,238.852 L 85.941,234.211 Z" /><path
          inkscape:connector-curvature="0"
          id="path2854"
          style="fill:#000000"
          d="M 91.035,234.383 C 91.082,234.273 91.082,234.242 91.082,234.211 91.082,234.195 91.082,234.164 91.035,234.055 L 89.301,229.461 C 89.238,229.289 89.176,229.227 89.066,229.227 88.957,229.227 88.863,229.32 88.863,229.43 88.863,229.461 88.863,229.477 88.91,229.586 L 90.676,234.211 88.91,238.82 C 88.863,238.93 88.863,238.961 88.863,239.008 88.863,239.117 88.957,239.211 89.066,239.211 89.191,239.211 89.238,239.102 89.27,239.008 Z" /><g
          id="g2856"><path
             inkscape:connector-curvature="0"
             id="path2858"
             style="fill:#ffffff;stroke:#000000;stroke-width:0.3985;stroke-miterlimit:10"
             d="M 37.344,213.07 H 63.688 V 243.621 H 37.344 Z" /></g><path
          inkscape:connector-curvature="0"
          id="path2860"
          style="fill:#000000"
          d="M 49.594,222.023 C 49.875,222.086 50.703,222.289 50.703,223.148 50.703,223.664 50.266,224.258 49.484,224.258 49.203,224.258 48.719,224.227 48.312,223.945 47.891,223.68 47.859,223.258 47.844,223.086 47.844,222.914 47.828,222.727 47.516,222.727 47.156,222.727 47.156,222.945 47.156,223.148 V 224.461 C 47.156,224.617 47.156,224.867 47.453,224.867 47.672,224.867 47.734,224.727 47.828,224.414 48.219,224.711 48.828,224.867 49.469,224.867 50.625,224.867 51.344,223.992 51.344,223.102 51.344,222.461 50.984,222.039 50.875,221.914 50.453,221.523 50.188,221.445 49.406,221.273 L 48.609,221.086 C 48.188,220.977 47.812,220.617 47.812,220.148 47.812,219.648 48.297,219.164 49,219.164 50.172,219.164 50.328,220.102 50.391,220.414 50.422,220.633 50.531,220.695 50.734,220.695 51.078,220.695 51.078,220.477 51.078,220.289 V 218.961 C 51.078,218.805 51.078,218.555 50.781,218.555 50.531,218.555 50.484,218.727 50.406,219.023 50,218.68 49.469,218.555 49.016,218.555 47.906,218.555 47.156,219.352 47.156,220.195 47.156,220.867 47.625,221.523 48.438,221.758 48.484,221.773 49.453,221.992 49.594,222.023 Z" /><path
          inkscape:connector-curvature="0"
          id="path2862"
          style="fill:#000000"
          d="M 49.906,229.617 C 49.953,229.508 49.953,229.477 49.953,229.43 49.953,229.32 49.875,229.227 49.766,229.227 49.672,229.227 49.594,229.289 49.531,229.461 L 47.781,234.039 C 47.766,234.102 47.734,234.164 47.734,234.211 47.734,234.242 47.734,234.273 47.781,234.383 L 49.531,238.961 C 49.578,239.07 49.625,239.211 49.766,239.211 49.875,239.211 49.953,239.117 49.953,239.008 49.953,238.977 49.953,238.961 49.906,238.852 L 48.141,234.211 Z" /><path
          inkscape:connector-curvature="0"
          id="path2864"
          style="fill:#000000"
          d="M 53.234,234.383 C 53.281,234.273 53.281,234.242 53.281,234.211 53.281,234.195 53.281,234.164 53.234,234.055 L 51.5,229.461 C 51.438,229.289 51.375,229.227 51.266,229.227 51.156,229.227 51.062,229.32 51.062,229.43 51.062,229.461 51.062,229.477 51.109,229.586 L 52.875,234.211 51.109,238.82 C 51.062,238.93 51.062,238.961 51.062,239.008 51.062,239.117 51.156,239.211 51.266,239.211 51.391,239.211 51.438,239.102 51.469,239.008 Z" /><text
          xml:space="preserve"
          style="font-size:12.000032px;line-height:1.25;font-family:'Arial Black';-inkscape-font-specification:'Arial Black, Normal';letter-spacing:0px;word-spacing:0px;fill:#000000;stroke-width:0.750002"
          x="-20.0284"
          y="-8.57607"
          id="text1371"
          transform="rotate(90)"><tspan
             sodipodi:role="line"
             id="tspan1369"
             x="-20.0284"
             y="-8.57607"
             style="font-size:12.00003px;font-family:Arial;-inkscape-font-specification:Arial">Core1</tspan></text>
<text
          xml:space="preserve"
          style="font-size:12.000032px;line-height:1.25;font-family:'Arial Black';-inkscape-font-specification:'Arial Black, Normal';letter-spacing:0px;word-spacing:0px;fill:#000000;stroke-width:0.750002"
          x="-24.3643"
          y="-46.2211"
          id="text1371-3"
          transform="rotate(90)"><tspan
             sodipodi:role="line"
             id="tspan1369-1"
             x="-24.3643"
             y="-46.2211"
             style="font-size:12.00003px;font-family:Arial;-inkscape-font-specification:Arial">Cache1</tspan></text>
<text
          xml:space="preserve"
          style="font-size:12.000032px;line-height:1.25;font-family:'Arial Black';-inkscape-font-specification:'Arial Black, Normal';letter-spacing:0px;word-spacing:0px;fill:#000000;stroke-width:0.750002"
          x="-25.1496"
          y="-84.0211"
          id="text1371-3-4"
          transform="rotate(90)"><tspan
             sodipodi:role="line"
             id="tspan1369-1-9"
             x="-25.1496"
             y="-84.0211"
             style="font-size:12.00003px;font-family:Arial;-inkscape-font-specification:Arial">Cache2</tspan></text>
<text
          xml:space="preserve"
          style="font-size:12.000032px;line-height:1.25;font-family:'Arial Black';-inkscape-font-specification:'Arial Black, Normal';letter-spacing:0px;word-spacing:0px;fill:#000000;stroke-width:0.750002"
          x="-38.0284"
          y="-134.763"
          id="text1371-3-4-2"
          transform="rotate(90)"><tspan
             sodipodi:role="line"
             id="tspan1369-1-9-0"
             x="-38.0284"
             y="-134.763"
             style="font-size:12.00003px;font-family:Arial;-inkscape-font-specification:Arial">Interconnect</tspan></text>
</g></svg>