<?xml version="1.0" encoding="UTF-8" standalone="no"?>
<!-- Created with Inkscape (http://www.inkscape.org/) -->

<svg
   xmlns:dc="http://purl.org/dc/elements/1.1/"
   xmlns:cc="http://creativecommons.org/ns#"
   xmlns:rdf="http://www.w3.org/1999/02/22-rdf-syntax-ns#"
   xmlns:svg="http://www.w3.org/2000/svg"
   xmlns="http://www.w3.org/2000/svg"
   xmlns:sodipodi="http://sodipodi.sourceforge.net/DTD/sodipodi-0.dtd"
   xmlns:inkscape="http://www.inkscape.org/namespaces/inkscape"
   width="135.33925mm"
   height="48.675499mm"
   viewBox="0 0 135.33925 48.675499"
   version="1.1"
   id="svg3733"
   inkscape:version="0.92.4 5da689c313, 2019-01-14"
   sodipodi:docname="mingsong_program_block.svg">
  <defs
     id="defs3727">
    <clipPath
       clipPathUnits="userSpaceOnUse"
       id="clipPath858">
      <path
         d="M 0,0 H 549.235 V 195.613 H 0 Z"
         id="path856"
         inkscape:connector-curvature="0" />
    </clipPath>
  </defs>
  <sodipodi:namedview
     id="base"
     pagecolor="#ffffff"
     bordercolor="#666666"
     borderopacity="1.0"
     inkscape:pageopacity="0.0"
     inkscape:pageshadow="2"
     inkscape:zoom="1.4"
     inkscape:cx="317.05905"
     inkscape:cy="-35.527931"
     inkscape:document-units="mm"
     inkscape:current-layer="layer1"
     showgrid="false"
     fit-margin-top="0"
     fit-margin-left="0"
     fit-margin-right="0"
     fit-margin-bottom="0"
     inkscape:window-width="1918"
     inkscape:window-height="1059"
     inkscape:window-x="1"
     inkscape:window-y="20"
     inkscape:window-maximized="0" />
  <metadata
     id="metadata3730">
    <rdf:RDF>
      <cc:Work
         rdf:about="">
        <dc:format>image/svg+xml</dc:format>
        <dc:type
           rdf:resource="http://purl.org/dc/dcmitype/StillImage" />
        <dc:title></dc:title>
      </cc:Work>
    </rdf:RDF>
  </metadata>
  <g
     inkscape:label="Layer 1"
     inkscape:groupmode="layer"
     id="layer1"
     transform="translate(-40.431564,-4.2991547)">
    <g
       transform="matrix(0.2543563,0,0,-0.2543563,37.972254,53.290532)"
       id="g850">
      <g
         id="g852">
        <g
           clip-path="url(#clipPath858)"
           id="g854">
          <g
             transform="matrix(0.9546509,0,0,0.9546509,236.04697,170.80614)"
             id="g860">
            <path
               inkscape:connector-curvature="0"
               id="path862"
               style="fill:#a5afcd;fill-opacity:1;fill-rule:evenodd;stroke:none"
               d="m 0,0 c 0,4.92 4.02,8.88 8.94,8.88 4.92,0 8.88,-3.96 8.88,-8.88 0,-4.92 -3.96,-8.94 -8.88,-8.94 C 4.02,-8.94 0,-4.92 0,0" />
          </g>
          <g
             transform="matrix(0.9546509,0,0,0.9546509,236.04697,170.80614)"
             id="g864">
            <path
               inkscape:connector-curvature="0"
               id="path866"
               style="fill:none;stroke:#000000;stroke-width:0.75400001;stroke-linecap:round;stroke-linejoin:round;stroke-miterlimit:10;stroke-dasharray:none;stroke-opacity:1"
               d="m 0,0 c 0,4.92 4.02,8.88 8.94,8.88 4.92,0 8.88,-3.96 8.88,-8.88 0,-4.92 -3.96,-8.94 -8.88,-8.94 C 4.02,-8.94 0,-4.92 0,0 Z" />
          </g>
          <g
             transform="matrix(0.9546509,0,0,0.9546509,122.63446,170.80614)"
             id="g868">
            <path
               inkscape:connector-curvature="0"
               id="path870"
               style="fill:#a5afcd;fill-opacity:1;fill-rule:evenodd;stroke:none"
               d="m 0,0 c 0,4.92 4.02,8.88 8.94,8.88 4.92,0 8.88,-3.96 8.88,-8.88 0,-4.92 -3.96,-8.94 -8.88,-8.94 C 4.02,-8.94 0,-4.92 0,0" />
          </g>
          <g
             transform="matrix(0.9546509,0,0,0.9546509,122.63446,170.80614)"
             id="g872">
            <path
               inkscape:connector-curvature="0"
               id="path874"
               style="fill:none;stroke:#000000;stroke-width:0.75400001;stroke-linecap:round;stroke-linejoin:round;stroke-miterlimit:10;stroke-dasharray:none;stroke-opacity:1"
               d="m 0,0 c 0,4.92 4.02,8.88 8.94,8.88 4.92,0 8.88,-3.96 8.88,-8.88 0,-4.92 -3.96,-8.94 -8.88,-8.94 C 4.02,-8.94 0,-4.92 0,0 Z" />
          </g>
          <g
             transform="matrix(0.9546509,0,0,0.9546509,14.949829,170.80614)"
             id="g876">
            <path
               inkscape:connector-curvature="0"
               id="path878"
               style="fill:#a5afcd;fill-opacity:1;fill-rule:evenodd;stroke:none"
               d="M 0,0 C 0,4.92 3.96,8.88 8.88,8.88 13.8,8.88 17.82,4.92 17.82,0 17.82,-4.92 13.8,-8.94 8.88,-8.94 3.96,-8.94 0,-4.92 0,0" />
          </g>
          <g
             transform="matrix(0.9546509,0,0,0.9546509,14.949829,170.80614)"
             id="g880">
            <path
               inkscape:connector-curvature="0"
               id="path882"
               style="fill:none;stroke:#000000;stroke-width:0.75400001;stroke-linecap:round;stroke-linejoin:round;stroke-miterlimit:10;stroke-dasharray:none;stroke-opacity:1"
               d="M 0,0 C 0,4.92 3.96,8.88 8.88,8.88 13.8,8.88 17.82,4.92 17.82,0 17.82,-4.92 13.8,-8.94 8.88,-8.94 3.96,-8.94 0,-4.92 0,0 Z" />
          </g>
          <g
             transform="matrix(0.9546509,0,0,0.9546509,31.9617,170.80614)"
             id="g884">
            <path
               inkscape:connector-curvature="0"
               id="path886"
               style="fill:none;stroke:#000000;stroke-width:0.75400001;stroke-linecap:round;stroke-linejoin:round;stroke-miterlimit:10;stroke-dasharray:none;stroke-opacity:1"
               d="M 0,0 H 94.98" />
          </g>
          <g
             transform="matrix(0.9546509,0,0,0.9546509,117.59389,168.28586)"
             id="g888">
            <path
               inkscape:connector-curvature="0"
               id="path890"
               style="fill:none;stroke:#000000;stroke-width:0.75400001;stroke-linecap:round;stroke-linejoin:round;stroke-miterlimit:10;stroke-dasharray:none;stroke-opacity:1"
               d="M 0,0 5.28,2.64 0,5.28" />
          </g>
          <g
             transform="matrix(0.9546509,0,0,0.9546509,139.64633,170.80614)"
             id="g892">
            <path
               inkscape:connector-curvature="0"
               id="path894"
               style="fill:none;stroke:#000000;stroke-width:0.75400001;stroke-linecap:round;stroke-linejoin:round;stroke-miterlimit:10;stroke-dasharray:none;stroke-opacity:1"
               d="M 0,0 H 100.98" />
          </g>
          <g
             transform="matrix(0.9546509,0,0,0.9546509,231.00641,168.28586)"
             id="g896">
            <path
               inkscape:connector-curvature="0"
               id="path898"
               style="fill:none;stroke:#000000;stroke-width:0.75400001;stroke-linecap:round;stroke-linejoin:round;stroke-miterlimit:10;stroke-dasharray:none;stroke-opacity:1"
               d="M 0,0 5.28,2.64 0,5.28" />
          </g>
          <text
             id="text908"
             style="font-variant:normal;font-weight:normal;font-stretch:normal;font-size:8.01910019px;font-family:'Arial Unicode MS';-inkscape-font-specification:ArialUnicodeMS;writing-mode:lr-tb;fill:#42a848;fill-opacity:1;fill-rule:nonzero;stroke:none"
             transform="matrix(1,0,0,-1,9.0501,150.0138)">
            <tspan
               id="tspan900"
               sodipodi:role="line"
               y="0"
               x="0 5.3447304 7.9790044 12.433615 18.219395 22.674006 27.080502 110.31876 116.0444 120.51103 124.97768 129.44431 220.74979 226.10094 230.56195 234.57391 236.80563 242.53368 246.99469 251.45572">PreNodeNode1PostNode</tspan>
            <tspan
               id="tspan902"
               sodipodi:role="line"
               y="-8.4761887"
               x="51.546776 55.563541 57.743935 62.20977 64.446297 69.136673">c[0]=0</tspan>
            <tspan
               id="tspan904"
               sodipodi:role="line"
               y="-34.02504"
               x="85.339264 89.3424 91.565292 96.017494 98.240387 102.91713 107.59387 112.00597 116.47422 122.25759 124.03142 126.25431 130.93106 133.15395 137.60616 141.60928 143.83218 148.72543 150.49927 157.17276">c[0]&lt;=L1Hit+InstTime</tspan>
            <tspan
               id="tspan906"
               sodipodi:role="line"
               y="-8.4761887"
               x="143.47774 147.48729 149.7166 154.12711 156.36443 161.04759 165.73074 170.18936 174.64798 180.43777 182.218 184.3992 189.08235 191.31168 195.77029 199.72371 201.95302 206.85269 208.63292 215.31284">c[0]==L1Hit+InstTime</tspan>
          </text>
          <g
             transform="matrix(0.9546509,0,0,0.9546509,442.30885,170.80614)"
             id="g910">
            <path
               inkscape:connector-curvature="0"
               id="path912"
               style="fill:#a5afcd;fill-opacity:1;fill-rule:evenodd;stroke:none"
               d="m 0,0 c 0,4.92 4.02,8.88 8.94,8.88 4.92,0 8.88,-3.96 8.88,-8.88 0,-4.92 -3.96,-8.94 -8.88,-8.94 C 4.02,-8.94 0,-4.92 0,0" />
          </g>
          <g
             transform="matrix(0.9546509,0,0,0.9546509,442.30885,170.80614)"
             id="g914">
            <path
               inkscape:connector-curvature="0"
               id="path916"
               style="fill:none;stroke:#000000;stroke-width:0.75400001;stroke-linecap:round;stroke-linejoin:round;stroke-miterlimit:10;stroke-dasharray:none;stroke-opacity:1"
               d="m 0,0 c 0,4.92 4.02,8.88 8.94,8.88 4.92,0 8.88,-3.96 8.88,-8.88 0,-4.92 -3.96,-8.94 -8.88,-8.94 C 4.02,-8.94 0,-4.92 0,0 Z" />
          </g>
          <g
             transform="matrix(0.9546509,0,0,0.9546509,365.78403,170.80614)"
             id="g918">
            <path
               inkscape:connector-curvature="0"
               id="path920"
               style="fill:#a5afcd;fill-opacity:1;fill-rule:evenodd;stroke:none"
               d="M 0,0 C 0,4.92 3.96,8.88 8.88,8.88 13.8,8.88 17.82,4.92 17.82,0 17.82,-4.92 13.8,-8.94 8.88,-8.94 3.96,-8.94 0,-4.92 0,0" />
          </g>
          <g
             transform="matrix(0.9546509,0,0,0.9546509,365.78403,170.80614)"
             id="g922">
            <path
               inkscape:connector-curvature="0"
               id="path924"
               style="fill:none;stroke:#000000;stroke-width:0.75400001;stroke-linecap:round;stroke-linejoin:round;stroke-miterlimit:10;stroke-dasharray:none;stroke-opacity:1"
               d="M 0,0 C 0,4.92 3.96,8.88 8.88,8.88 13.8,8.88 17.82,4.92 17.82,0 17.82,-4.92 13.8,-8.94 8.88,-8.94 3.96,-8.94 0,-4.92 0,0 Z" />
          </g>
          <g
             transform="matrix(0.9546509,0,0,0.9546509,292.06589,170.80614)"
             id="g926">
            <path
               inkscape:connector-curvature="0"
               id="path928"
               style="fill:#a5afcd;fill-opacity:1;fill-rule:evenodd;stroke:none"
               d="M 0,0 C 0,4.92 3.96,8.88 8.88,8.88 13.8,8.88 17.82,4.92 17.82,0 17.82,-4.92 13.8,-8.94 8.88,-8.94 3.96,-8.94 0,-4.92 0,0" />
          </g>
          <g
             transform="matrix(0.9546509,0,0,0.9546509,292.06589,170.80614)"
             id="g930">
            <path
               inkscape:connector-curvature="0"
               id="path932"
               style="fill:none;stroke:#000000;stroke-width:0.75400001;stroke-linecap:round;stroke-linejoin:round;stroke-miterlimit:10;stroke-dasharray:none;stroke-opacity:1"
               d="M 0,0 C 0,4.92 3.96,8.88 8.88,8.88 13.8,8.88 17.82,4.92 17.82,0 17.82,-4.92 13.8,-8.94 8.88,-8.94 3.96,-8.94 0,-4.92 0,0 Z" />
          </g>
          <text
             id="text936"
             style="font-variant:normal;font-weight:normal;font-stretch:normal;font-size:10.0237999px;font-family:'Century Gothic';-inkscape-font-specification:CenturyGothic;writing-mode:lr-tb;fill:#000000;fill-opacity:1;fill-rule:nonzero;stroke:none"
             transform="matrix(1,0,0,-1,297.1064,167.8276)">
            <tspan
               id="tspan934"
               y="0"
               x="0">C</tspan>
          </text>
          <g
             transform="matrix(0.9546509,0,0,0.9546509,309.07776,170.80614)"
             id="g938">
            <path
               inkscape:connector-curvature="0"
               id="path940"
               style="fill:none;stroke:#000000;stroke-width:0.75400001;stroke-linecap:round;stroke-linejoin:round;stroke-miterlimit:10;stroke-dasharray:none;stroke-opacity:1"
               d="M 0,0 H 59.4" />
          </g>
          <g
             transform="matrix(0.9546509,0,0,0.9546509,360.74348,168.28586)"
             id="g942">
            <path
               inkscape:connector-curvature="0"
               id="path944"
               style="fill:none;stroke:#000000;stroke-width:0.75400001;stroke-linecap:round;stroke-linejoin:round;stroke-miterlimit:10;stroke-dasharray:none;stroke-opacity:1"
               d="M 0,0 5.28,2.64 0,5.28" />
          </g>
          <g
             transform="matrix(0.9546509,0,0,0.9546509,382.7959,170.80614)"
             id="g946">
            <path
               inkscape:connector-curvature="0"
               id="path948"
               style="fill:none;stroke:#000000;stroke-width:0.75400001;stroke-linecap:round;stroke-linejoin:round;stroke-miterlimit:10;stroke-dasharray:none;stroke-opacity:1"
               d="M 0,0 H 62.34" />
          </g>
          <g
             transform="matrix(0.9546509,0,0,0.9546509,437.26828,168.28586)"
             id="g950">
            <path
               inkscape:connector-curvature="0"
               id="path952"
               style="fill:none;stroke:#000000;stroke-width:0.75400001;stroke-linecap:round;stroke-linejoin:round;stroke-miterlimit:10;stroke-dasharray:none;stroke-opacity:1"
               d="M 0,0 5.28,2.64 0,5.28" />
          </g>
          <text
             id="text964"
             style="font-variant:normal;font-weight:normal;font-stretch:normal;font-size:8.01910019px;font-family:'Arial Unicode MS';-inkscape-font-specification:ArialUnicodeMS;writing-mode:lr-tb;fill:#42a0a8;fill-opacity:1;fill-rule:nonzero;stroke:none"
             transform="matrix(1,0,0,-1,288.7437,150.0138)">
            <tspan
               id="tspan954"
               sodipodi:role="line"
               y="0"
               x="0 5.7913942 10.251617 14.663726 19.131969 73.719589 79.510979 83.971207 88.383316 92.851555 153.10867 158.90088 163.30577 167.76678 172.22781">Node1Node2Node3</tspan>
            <tspan
               id="tspan956"
               sodipodi:role="line"
               y="-8.4761887"
               x="114.21604 118.17507 120.41 124.87423 127.10915 131.74179">c[0]=0</tspan>
            <tspan
               id="tspan958"
               sodipodi:role="line"
               y="-36.831726"
               x="144.11926 148.1264 150.30521 154.76141 156.98831 161.62897 166.32576 168.55266 173.00888 176.95988 179.19481 184.09207 185.8699 192.54741">c[0]&lt;=InstTime</tspan>
            <tspan
               id="tspan960"
               sodipodi:role="line"
               y="-8.4761887"
               x="171.72902 175.74339 177.97751 182.44093 184.61893 189.3069 193.99486 196.17285 200.63628 204.65063 206.88477 211.78925 213.5743 220.25902">c[0]==InstTime</tspan>
            <tspan
               id="tspan962"
               sodipodi:role="line"
               y="-26.920118"
               x="23.776632 28.187136 32.196686 36.206238 40.664856 44.618271 48.627823 53.976562 58.435181 62.444733 64.674042 69.084549 71.321877 99.156174 103.61559 107.62595 111.6363 116.09572 120.04993 124.06029 129.40984 133.86925 137.87961 140.10971 144.52103 146.75916">accessBus[0]!accessBus[0]?</tspan>
          </text>
          <g
             transform="matrix(0.9546509,0,0,0.9546509,513.22032,170.80614)"
             id="g966">
            <path
               inkscape:connector-curvature="0"
               id="path968"
               style="fill:#a5afcd;fill-opacity:1;fill-rule:evenodd;stroke:none"
               d="M 0,0 C 0,4.92 3.96,8.88 8.88,8.88 13.8,8.88 17.82,4.92 17.82,0 17.82,-4.92 13.8,-8.94 8.88,-8.94 3.96,-8.94 0,-4.92 0,0" />
          </g>
          <g
             transform="matrix(0.9546509,0,0,0.9546509,513.22032,170.80614)"
             id="g970">
            <path
               inkscape:connector-curvature="0"
               id="path972"
               style="fill:none;stroke:#000000;stroke-width:0.75400001;stroke-linecap:round;stroke-linejoin:round;stroke-miterlimit:10;stroke-dasharray:none;stroke-opacity:1"
               d="M 0,0 C 0,4.92 3.96,8.88 8.88,8.88 13.8,8.88 17.82,4.92 17.82,0 17.82,-4.92 13.8,-8.94 8.88,-8.94 3.96,-8.94 0,-4.92 0,0 Z" />
          </g>
          <text
             id="text976"
             style="font-variant:normal;font-weight:normal;font-stretch:normal;font-size:8.01910019px;font-family:'Arial Unicode MS';-inkscape-font-specification:ArialUnicodeMS;writing-mode:lr-tb;fill:#8d3863;fill-opacity:1;fill-rule:nonzero;stroke:none"
             transform="matrix(1,0,0,-1,506.9195,150.0138)">
            <tspan
               id="tspan974"
               sodipodi:role="line"
               y="0"
               x="0 5.363976 9.7736788 13.798466 16.043011 21.82398 26.233685 30.707541">PostNode</tspan>
          </text>
          <g
             transform="matrix(0.9546509,0,0,0.9546509,459.32072,170.80614)"
             id="g978">
            <path
               inkscape:connector-curvature="0"
               id="path980"
               style="fill:none;stroke:#000000;stroke-width:0.75400001;stroke-linecap:round;stroke-linejoin:round;stroke-miterlimit:10;stroke-dasharray:none;stroke-opacity:1"
               d="M 0,0 H 56.46" />
          </g>
          <g
             transform="matrix(0.9546509,0,0,0.9546509,508.17976,168.28586)"
             id="g982">
            <path
               inkscape:connector-curvature="0"
               id="path984"
               style="fill:none;stroke:#000000;stroke-width:0.75400001;stroke-linecap:round;stroke-linejoin:round;stroke-miterlimit:10;stroke-dasharray:none;stroke-opacity:1"
               d="M 0,0 5.28,2.64 0,5.28" />
          </g>
          <g
             transform="matrix(0.9546509,0,0,0.9546509,14.949829,71.598816)"
             id="g986">
            <path
               inkscape:connector-curvature="0"
               id="path988"
               style="fill:#a5afcd;fill-opacity:1;fill-rule:evenodd;stroke:none"
               d="M 0,0 C 0,4.92 3.96,8.88 8.88,8.88 13.8,8.88 17.82,4.92 17.82,0 17.82,-4.92 13.8,-8.94 8.88,-8.94 3.96,-8.94 0,-4.92 0,0" />
          </g>
          <g
             transform="matrix(0.9546509,0,0,0.9546509,14.949829,71.598816)"
             id="g990">
            <path
               inkscape:connector-curvature="0"
               id="path992"
               style="fill:none;stroke:#000000;stroke-width:0.75400001;stroke-linecap:round;stroke-linejoin:round;stroke-miterlimit:10;stroke-dasharray:none;stroke-opacity:1"
               d="M 0,0 C 0,4.92 3.96,8.88 8.88,8.88 13.8,8.88 17.82,4.92 17.82,0 17.82,-4.92 13.8,-8.94 8.88,-8.94 3.96,-8.94 0,-4.92 0,0 Z" />
          </g>
          <text
             id="text996"
             style="font-variant:normal;font-weight:normal;font-stretch:normal;font-size:10.0237999px;font-family:'Century Gothic';-inkscape-font-specification:CenturyGothic;writing-mode:lr-tb;fill:#000000;fill-opacity:1;fill-rule:nonzero;stroke:none"
             transform="matrix(1,0,0,-1,19.9331,68.6203)">
            <tspan
               id="tspan994"
               y="0"
               x="0">C</tspan>
          </text>
          <g
             transform="matrix(0.9546509,0,0,0.9546509,88.610702,102.75862)"
             id="g998">
            <path
               inkscape:connector-curvature="0"
               id="path1000"
               style="fill:#a5afcd;fill-opacity:1;fill-rule:evenodd;stroke:none"
               d="m 0,0 c 0,4.92 4.02,8.88 8.94,8.88 4.92,0 8.88,-3.96 8.88,-8.88 0,-4.92 -3.96,-8.94 -8.88,-8.94 C 4.02,-8.94 0,-4.92 0,0" />
          </g>
          <g
             transform="matrix(0.9546509,0,0,0.9546509,88.610702,102.75862)"
             id="g1002">
            <path
               inkscape:connector-curvature="0"
               id="path1004"
               style="fill:none;stroke:#000000;stroke-width:0.75400001;stroke-linecap:round;stroke-linejoin:round;stroke-miterlimit:10;stroke-dasharray:none;stroke-opacity:1"
               d="m 0,0 c 0,4.92 4.02,8.88 8.94,8.88 4.92,0 8.88,-3.96 8.88,-8.88 0,-4.92 -3.96,-8.94 -8.88,-8.94 C 4.02,-8.94 0,-4.92 0,0 Z" />
          </g>
          <g
             transform="matrix(0.9546509,0,0,0.9546509,88.610702,40.381729)"
             id="g1006">
            <path
               inkscape:connector-curvature="0"
               id="path1008"
               style="fill:#a5afcd;fill-opacity:1;fill-rule:evenodd;stroke:none"
               d="m 0,0 c 0,4.92 4.02,8.94 8.94,8.94 4.92,0 8.88,-4.02 8.88,-8.94 0,-4.92 -3.96,-8.88 -8.88,-8.88 C 4.02,-8.88 0,-4.92 0,0" />
          </g>
          <g
             transform="matrix(0.9546509,0,0,0.9546509,88.610702,40.381729)"
             id="g1010">
            <path
               inkscape:connector-curvature="0"
               id="path1012"
               style="fill:none;stroke:#000000;stroke-width:0.75400001;stroke-linecap:round;stroke-linejoin:round;stroke-miterlimit:10;stroke-dasharray:none;stroke-opacity:1"
               d="m 0,0 c 0,4.92 4.02,8.94 8.94,8.94 4.92,0 8.88,-4.02 8.88,-8.94 0,-4.92 -3.96,-8.88 -8.88,-8.88 C 4.02,-8.88 0,-4.92 0,0 Z" />
          </g>
          <g
             transform="matrix(0.9546509,0,0,0.9546509,162.32883,71.598816)"
             id="g1014">
            <path
               inkscape:connector-curvature="0"
               id="path1016"
               style="fill:#a5afcd;fill-opacity:1;fill-rule:evenodd;stroke:none"
               d="m 0,0 c 0,4.92 4.02,8.88 8.94,8.88 4.92,0 8.88,-3.96 8.88,-8.88 0,-4.92 -3.96,-8.94 -8.88,-8.94 C 4.02,-8.94 0,-4.92 0,0" />
          </g>
          <g
             transform="matrix(0.9546509,0,0,0.9546509,162.32883,71.598816)"
             id="g1018">
            <path
               inkscape:connector-curvature="0"
               id="path1020"
               style="fill:none;stroke:#000000;stroke-width:0.75400001;stroke-linecap:round;stroke-linejoin:round;stroke-miterlimit:10;stroke-dasharray:none;stroke-opacity:1"
               d="m 0,0 c 0,4.92 4.02,8.88 8.94,8.88 4.92,0 8.88,-3.96 8.88,-8.88 0,-4.92 -3.96,-8.94 -8.88,-8.94 C 4.02,-8.94 0,-4.92 0,0 Z" />
          </g>
          <g
             transform="matrix(0.9546509,0,0,0.9546509,233.24031,71.598816)"
             id="g1022">
            <path
               inkscape:connector-curvature="0"
               id="path1024"
               style="fill:#a5afcd;fill-opacity:1;fill-rule:evenodd;stroke:none"
               d="M 0,0 C 0,4.92 3.96,8.88 8.88,8.88 13.8,8.88 17.82,4.92 17.82,0 17.82,-4.92 13.8,-8.94 8.88,-8.94 3.96,-8.94 0,-4.92 0,0" />
          </g>
          <g
             transform="matrix(0.9546509,0,0,0.9546509,233.24031,71.598816)"
             id="g1026">
            <path
               inkscape:connector-curvature="0"
               id="path1028"
               style="fill:none;stroke:#000000;stroke-width:0.75400001;stroke-linecap:round;stroke-linejoin:round;stroke-miterlimit:10;stroke-dasharray:none;stroke-opacity:1"
               d="M 0,0 C 0,4.92 3.96,8.88 8.88,8.88 13.8,8.88 17.82,4.92 17.82,0 17.82,-4.92 13.8,-8.94 8.88,-8.94 3.96,-8.94 0,-4.92 0,0 Z" />
          </g>
          <g
             transform="matrix(0.9546509,0,0,0.9546509,30.243332,76.639374)"
             id="g1030">
            <path
               inkscape:connector-curvature="0"
               id="path1032"
               style="fill:none;stroke:#000000;stroke-width:0.75400001;stroke-linecap:round;stroke-linejoin:round;stroke-miterlimit:10;stroke-dasharray:none;stroke-opacity:1"
               d="M 0,0 62.46,22.74" />
          </g>
          <g
             transform="matrix(0.9546509,0,0,0.9546509,85.975861,94.281311)"
             id="g1034">
            <path
               inkscape:connector-curvature="0"
               id="path1036"
               style="fill:none;stroke:#000000;stroke-width:0.75400001;stroke-linecap:round;stroke-linejoin:round;stroke-miterlimit:10;stroke-dasharray:none;stroke-opacity:1"
               d="M 0,0 4.08,4.26 -1.8,4.92" />
          </g>
          <g
             transform="matrix(0.9546509,0,0,0.9546509,30.357895,66.61554)"
             id="g1038">
            <path
               inkscape:connector-curvature="0"
               id="path1040"
               style="fill:none;stroke:#000000;stroke-width:0.75400001;stroke-linecap:round;stroke-linejoin:round;stroke-miterlimit:10;stroke-dasharray:none;stroke-opacity:1"
               d="M 0,0 62.1,-23.28" />
          </g>
          <g
             transform="matrix(0.9546509,0,0,0.9546509,84.028381,43.818466)"
             id="g1042">
            <path
               inkscape:connector-curvature="0"
               id="path1044"
               style="fill:none;stroke:#000000;stroke-width:0.75400001;stroke-linecap:round;stroke-linejoin:round;stroke-miterlimit:10;stroke-dasharray:none;stroke-opacity:1"
               d="M 0,0 5.88,0.6 1.86,4.92" />
          </g>
          <g
             transform="matrix(0.9546509,0,0,0.9546509,104.41972,98.348145)"
             id="g1046">
            <path
               inkscape:connector-curvature="0"
               id="path1048"
               style="fill:none;stroke:#000000;stroke-width:0.75400001;stroke-linecap:round;stroke-linejoin:round;stroke-miterlimit:10;stroke-dasharray:none;stroke-opacity:1"
               d="M 0,0 62.1,-23.28" />
          </g>
          <g
             transform="matrix(0.9546509,0,0,0.9546509,158.09019,75.551071)"
             id="g1050">
            <path
               inkscape:connector-curvature="0"
               id="path1052"
               style="fill:none;stroke:#000000;stroke-width:0.75400001;stroke-linecap:round;stroke-linejoin:round;stroke-miterlimit:10;stroke-dasharray:none;stroke-opacity:1"
               d="M 0,0 5.88,0.6 1.86,4.92" />
          </g>
          <g
             transform="matrix(0.9546509,0,0,0.9546509,104.53427,44.620392)"
             id="g1054">
            <path
               inkscape:connector-curvature="0"
               id="path1056"
               style="fill:none;stroke:#000000;stroke-width:0.75400001;stroke-linecap:round;stroke-linejoin:round;stroke-miterlimit:10;stroke-dasharray:none;stroke-opacity:1"
               d="M 0,0 62.46,22.74" />
          </g>
          <g
             transform="matrix(0.9546509,0,0,0.9546509,160.2668,62.262329)"
             id="g1058">
            <path
               inkscape:connector-curvature="0"
               id="path1060"
               style="fill:none;stroke:#000000;stroke-width:0.75400001;stroke-linecap:round;stroke-linejoin:round;stroke-miterlimit:10;stroke-dasharray:none;stroke-opacity:1"
               d="M 0,0 4.08,4.26 -1.8,4.92" />
          </g>
          <g
             transform="matrix(0.9546509,0,0,0.9546509,179.34071,71.598816)"
             id="g1062">
            <path
               inkscape:connector-curvature="0"
               id="path1064"
               style="fill:none;stroke:#000000;stroke-width:0.75400001;stroke-linecap:round;stroke-linejoin:round;stroke-miterlimit:10;stroke-dasharray:none;stroke-opacity:1"
               d="M 0,0 H 56.46" />
          </g>
          <g
             transform="matrix(0.9546509,0,0,0.9546509,228.19974,69.078537)"
             id="g1066">
            <path
               inkscape:connector-curvature="0"
               id="path1068"
               style="fill:none;stroke:#000000;stroke-width:0.75400001;stroke-linecap:round;stroke-linejoin:round;stroke-miterlimit:10;stroke-dasharray:none;stroke-opacity:1"
               d="M 0,0 5.28,2.64 0,5.28" />
          </g>
          <text
             id="text1100"
             style="font-variant:normal;font-weight:normal;font-stretch:normal;font-size:8.01910019px;font-family:'Arial Unicode MS';-inkscape-font-specification:ArialUnicodeMS;writing-mode:lr-tb;fill:#4242a8;fill-opacity:1;fill-rule:nonzero;stroke:none"
             transform="matrix(1,0,0,-1,11.6276,52.1812)">
            <tspan
               id="tspan1070"
               sodipodi:role="line"
               y="0"
               x="0 5.7921958 10.197087 14.658113 19.119139">Node1</tspan>
            <tspan
               id="tspan1072"
               sodipodi:role="line"
               y="-34.02504"
               x="75.090851 80.885452 85.348885 89.812317 94.219612">Node2</tspan>
            <tspan
               id="tspan1074"
               sodipodi:role="line"
               y="31.162224"
               x="73.719589 79.51178 83.916672 88.377701 92.838722">Node3</tspan>
            <tspan
               id="tspan1076"
               sodipodi:role="line"
               y="-3.5611959e-15"
               x="147.43918 153.16481 157.63145 162.09808 166.56473 212.50615 217.8573 222.31831 226.33028 228.562 234.29004 238.75105 243.21208">Node4PostNode</tspan>
            <tspan
               id="tspan1078"
               sodipodi:role="line"
               y="-31.218355"
               x="144.05511 148.06866 150.30199 154.76462 156.99794 161.63699 166.33217 168.56549 172.97198 176.98555 179.21887 184.12254 185.9068 192.59071">c[0]&lt;=InstTime</tspan>
            <tspan
               id="tspan1080"
               sodipodi:role="line"
               y="-8.5323219"
               x="167.4789 171.48926 173.66324 178.12265 180.35277 185.03673 189.67256 191.90268 196.36209 200.31631 202.55444 207.45493 209.23596 215.91667">c[0]==InstTime</tspan>
            <tspan
               id="tspan1082"
               sodipodi:role="line"
               y="9.9116077"
               x="109.68525 113.69961 115.8776 120.34103 122.57515 127.26311 131.90297 136.36639 140.82983 146.55226 148.33731">c[0]==L1Hit</tspan>
            <tspan
               id="tspan1084"
               sodipodi:role="line"
               y="-2.8628187"
               x="68.555283 72.562431 74.789337 79.197433 81.432358 86.113106 90.793854 95.250069 99.706284 105.49367 107.2715">c[0]&lt;=L1Hit</tspan>
            <tspan
               id="tspan1086"
               sodipodi:role="line"
               y="21.250614"
               x="30.520695 34.538265 36.775593 41.186096 43.423428 48.114601">c[0]=0</tspan>
            <tspan
               id="tspan1088"
               sodipodi:role="line"
               y="9.9116077"
               x="22.044506 24.278627 30.923254 33.157375 34.942425 39.405857 43.813156 46.047276 47.832329 50.066448 54.754414 59.394264">fmflag[i]==0</tspan>
            <tspan
               id="tspan1090"
               sodipodi:role="line"
               y="-48.916512"
               x="14.482494 16.657274 23.354826 25.585741 27.367584 31.779694 36.247936 38.478851 40.260693 42.491608 47.12825">fmflag[i]=0</tspan>
            <tspan
               id="tspan1092"
               sodipodi:role="line"
               y="-58.828117"
               x="14.939583 17.174507 23.819935 26.054857 27.840712 32.304943 36.769176 39.004101 40.789955 42.968742 47.657513 52.346279">fmflag[i]==1</tspan>
            <tspan
               id="tspan1094"
               sodipodi:role="line"
               y="-38.267143"
               x="3.8812444 8.292551 12.302903 16.313255 20.772676 24.783028 28.793381 34.142921 38.55423 42.564579 44.794693 49.254112 51.484226">accessBus[0]!</tspan>
            <tspan
               id="tspan1096"
               sodipodi:role="line"
               y="-49.606152"
               x="107.15923 111.62026 115.63222 119.58804 124.05708 128.06903 132.08099 137.43214 141.89316 145.84898 148.0807 152.54173 154.77344">accessBus[0]?</tspan>
            <tspan
               id="tspan1098"
               sodipodi:role="line"
               y="-39.694546"
               x="119.8214 123.83896 126.07629 130.54292 132.72412 137.4153">c[0]=0</tspan>
          </text>
          <g
             transform="matrix(0.9546509,0,0,0.9546509,292.06589,71.598816)"
             id="g1102">
            <path
               inkscape:connector-curvature="0"
               id="path1104"
               style="fill:#a5afcd;fill-opacity:1;fill-rule:evenodd;stroke:none"
               d="M 0,0 C 0,4.92 3.96,8.88 8.88,8.88 13.8,8.88 17.82,4.92 17.82,0 17.82,-4.92 13.8,-8.94 8.88,-8.94 3.96,-8.94 0,-4.92 0,0" />
          </g>
          <g
             transform="matrix(0.9546509,0,0,0.9546509,292.06589,71.598816)"
             id="g1106">
            <path
               inkscape:connector-curvature="0"
               id="path1108"
               style="fill:none;stroke:#000000;stroke-width:0.75400001;stroke-linecap:round;stroke-linejoin:round;stroke-miterlimit:10;stroke-dasharray:none;stroke-opacity:1"
               d="M 0,0 C 0,4.92 3.96,8.88 8.88,8.88 13.8,8.88 17.82,4.92 17.82,0 17.82,-4.92 13.8,-8.94 8.88,-8.94 3.96,-8.94 0,-4.92 0,0 Z" />
          </g>
          <text
             id="text1112"
             style="font-variant:normal;font-weight:normal;font-stretch:normal;font-size:10.0237999px;font-family:'Century Gothic';-inkscape-font-specification:CenturyGothic;writing-mode:lr-tb;fill:#000000;fill-opacity:1;fill-rule:nonzero;stroke:none"
             transform="matrix(1,0,0,-1,297.1064,68.6203)">
            <tspan
               id="tspan1110"
               y="0"
               x="0">C</tspan>
          </text>
          <g
             transform="matrix(0.9546509,0,0,0.9546509,365.78403,102.75862)"
             id="g1114">
            <path
               inkscape:connector-curvature="0"
               id="path1116"
               style="fill:#a5afcd;fill-opacity:1;fill-rule:evenodd;stroke:none"
               d="M 0,0 C 0,4.92 3.96,8.88 8.88,8.88 13.8,8.88 17.82,4.92 17.82,0 17.82,-4.92 13.8,-8.94 8.88,-8.94 3.96,-8.94 0,-4.92 0,0" />
          </g>
          <g
             transform="matrix(0.9546509,0,0,0.9546509,365.78403,102.75862)"
             id="g1118">
            <path
               inkscape:connector-curvature="0"
               id="path1120"
               style="fill:none;stroke:#000000;stroke-width:0.75400001;stroke-linecap:round;stroke-linejoin:round;stroke-miterlimit:10;stroke-dasharray:none;stroke-opacity:1"
               d="M 0,0 C 0,4.92 3.96,8.88 8.88,8.88 13.8,8.88 17.82,4.92 17.82,0 17.82,-4.92 13.8,-8.94 8.88,-8.94 3.96,-8.94 0,-4.92 0,0 Z" />
          </g>
          <g
             transform="matrix(0.9546509,0,0,0.9546509,365.78403,40.381729)"
             id="g1122">
            <path
               inkscape:connector-curvature="0"
               id="path1124"
               style="fill:#a5afcd;fill-opacity:1;fill-rule:evenodd;stroke:none"
               d="M 0,0 C 0,4.92 3.96,8.94 8.88,8.94 13.8,8.94 17.82,4.92 17.82,0 17.82,-4.92 13.8,-8.88 8.88,-8.88 3.96,-8.88 0,-4.92 0,0" />
          </g>
          <g
             transform="matrix(0.9546509,0,0,0.9546509,365.78403,40.381729)"
             id="g1126">
            <path
               inkscape:connector-curvature="0"
               id="path1128"
               style="fill:none;stroke:#000000;stroke-width:0.75400001;stroke-linecap:round;stroke-linejoin:round;stroke-miterlimit:10;stroke-dasharray:none;stroke-opacity:1"
               d="M 0,0 C 0,4.92 3.96,8.94 8.88,8.94 13.8,8.94 17.82,4.92 17.82,0 17.82,-4.92 13.8,-8.88 8.88,-8.88 3.96,-8.88 0,-4.92 0,0 Z" />
          </g>
          <g
             transform="matrix(0.9546509,0,0,0.9546509,439.50218,71.598816)"
             id="g1130">
            <path
               inkscape:connector-curvature="0"
               id="path1132"
               style="fill:#a5afcd;fill-opacity:1;fill-rule:evenodd;stroke:none"
               d="M 0,0 C 0,4.92 3.96,8.88 8.88,8.88 13.8,8.88 17.82,4.92 17.82,0 17.82,-4.92 13.8,-8.94 8.88,-8.94 3.96,-8.94 0,-4.92 0,0" />
          </g>
          <g
             transform="matrix(0.9546509,0,0,0.9546509,439.50218,71.598816)"
             id="g1134">
            <path
               inkscape:connector-curvature="0"
               id="path1136"
               style="fill:none;stroke:#000000;stroke-width:0.75400001;stroke-linecap:round;stroke-linejoin:round;stroke-miterlimit:10;stroke-dasharray:none;stroke-opacity:1"
               d="M 0,0 C 0,4.92 3.96,8.88 8.88,8.88 13.8,8.88 17.82,4.92 17.82,0 17.82,-4.92 13.8,-8.94 8.88,-8.94 3.96,-8.94 0,-4.92 0,0 Z" />
          </g>
          <g
             transform="matrix(0.9546509,0,0,0.9546509,510.35637,71.598816)"
             id="g1138">
            <path
               inkscape:connector-curvature="0"
               id="path1140"
               style="fill:#a5afcd;fill-opacity:1;fill-rule:evenodd;stroke:none"
               d="m 0,0 c 0,4.92 4.02,8.88 8.94,8.88 4.92,0 8.88,-3.96 8.88,-8.88 0,-4.92 -3.96,-8.94 -8.88,-8.94 C 4.02,-8.94 0,-4.92 0,0" />
          </g>
          <g
             transform="matrix(0.9546509,0,0,0.9546509,510.35637,71.598816)"
             id="g1142">
            <path
               inkscape:connector-curvature="0"
               id="path1144"
               style="fill:none;stroke:#000000;stroke-width:0.75400001;stroke-linecap:round;stroke-linejoin:round;stroke-miterlimit:10;stroke-dasharray:none;stroke-opacity:1"
               d="m 0,0 c 0,4.92 4.02,8.88 8.94,8.88 4.92,0 8.88,-3.96 8.88,-8.88 0,-4.92 -3.96,-8.94 -8.88,-8.94 C 4.02,-8.94 0,-4.92 0,0 Z" />
          </g>
          <g
             transform="matrix(0.9546509,0,0,0.9546509,307.41669,76.639374)"
             id="g1146">
            <path
               inkscape:connector-curvature="0"
               id="path1148"
               style="fill:none;stroke:#000000;stroke-width:0.75400001;stroke-linecap:round;stroke-linejoin:round;stroke-miterlimit:10;stroke-dasharray:none;stroke-opacity:1"
               d="M 0,0 62.4,22.74" />
          </g>
          <g
             transform="matrix(0.9546509,0,0,0.9546509,363.14919,94.281311)"
             id="g1150">
            <path
               inkscape:connector-curvature="0"
               id="path1152"
               style="fill:none;stroke:#000000;stroke-width:0.75400001;stroke-linecap:round;stroke-linejoin:round;stroke-miterlimit:10;stroke-dasharray:none;stroke-opacity:1"
               d="M 0,0 4.02,4.26 -1.8,4.92" />
          </g>
          <g
             transform="matrix(0.9546509,0,0,0.9546509,307.47395,66.61554)"
             id="g1154">
            <path
               inkscape:connector-curvature="0"
               id="path1156"
               style="fill:none;stroke:#000000;stroke-width:0.75400001;stroke-linecap:round;stroke-linejoin:round;stroke-miterlimit:10;stroke-dasharray:none;stroke-opacity:1"
               d="M 0,0 62.1,-23.28" />
          </g>
          <g
             transform="matrix(0.9546509,0,0,0.9546509,361.20171,43.818466)"
             id="g1158">
            <path
               inkscape:connector-curvature="0"
               id="path1160"
               style="fill:none;stroke:#000000;stroke-width:0.75400001;stroke-linecap:round;stroke-linejoin:round;stroke-miterlimit:10;stroke-dasharray:none;stroke-opacity:1"
               d="M 0,0 5.82,0.6 1.8,4.92" />
          </g>
          <g
             transform="matrix(0.9546509,0,0,0.9546509,381.53577,98.348145)"
             id="g1162">
            <path
               inkscape:connector-curvature="0"
               id="path1164"
               style="fill:none;stroke:#000000;stroke-width:0.75400001;stroke-linecap:round;stroke-linejoin:round;stroke-miterlimit:10;stroke-dasharray:none;stroke-opacity:1"
               d="M 0,0 62.1,-23.28" />
          </g>
          <g
             transform="matrix(0.9546509,0,0,0.9546509,435.26352,75.551071)"
             id="g1166">
            <path
               inkscape:connector-curvature="0"
               id="path1168"
               style="fill:none;stroke:#000000;stroke-width:0.75400001;stroke-linecap:round;stroke-linejoin:round;stroke-miterlimit:10;stroke-dasharray:none;stroke-opacity:1"
               d="M 0,0 5.82,0.6 1.8,4.92" />
          </g>
          <g
             transform="matrix(0.9546509,0,0,0.9546509,381.65033,44.620392)"
             id="g1170">
            <path
               inkscape:connector-curvature="0"
               id="path1172"
               style="fill:none;stroke:#000000;stroke-width:0.75400001;stroke-linecap:round;stroke-linejoin:round;stroke-miterlimit:10;stroke-dasharray:none;stroke-opacity:1"
               d="M 0,0 62.46,22.74" />
          </g>
          <g
             transform="matrix(0.9546509,0,0,0.9546509,437.38284,62.262329)"
             id="g1174">
            <path
               inkscape:connector-curvature="0"
               id="path1176"
               style="fill:none;stroke:#000000;stroke-width:0.75400001;stroke-linecap:round;stroke-linejoin:round;stroke-miterlimit:10;stroke-dasharray:none;stroke-opacity:1"
               d="M 0,0 4.08,4.26 -1.8,4.92" />
          </g>
          <g
             transform="matrix(0.9546509,0,0,0.9546509,456.51405,71.598816)"
             id="g1178">
            <path
               inkscape:connector-curvature="0"
               id="path1180"
               style="fill:none;stroke:#000000;stroke-width:0.75400001;stroke-linecap:round;stroke-linejoin:round;stroke-miterlimit:10;stroke-dasharray:none;stroke-opacity:1"
               d="M 0,0 H 56.4" />
          </g>
          <g
             transform="matrix(0.9546509,0,0,0.9546509,505.31581,69.078537)"
             id="g1182">
            <path
               inkscape:connector-curvature="0"
               id="path1184"
               style="fill:none;stroke:#000000;stroke-width:0.75400001;stroke-linecap:round;stroke-linejoin:round;stroke-miterlimit:10;stroke-dasharray:none;stroke-opacity:1"
               d="M 0,0 5.28,2.64 0,5.28" />
          </g>
          <text
             id="text1212"
             style="font-variant:normal;font-weight:normal;font-stretch:normal;font-size:8.01910019px;font-family:'Arial Unicode MS';-inkscape-font-specification:ArialUnicodeMS;writing-mode:lr-tb;fill:#4242a8;fill-opacity:1;fill-rule:nonzero;stroke:none"
             transform="matrix(1,0,0,-1,288.7437,52.1812)">
            <tspan
               id="tspan1186"
               sodipodi:role="line"
               y="0"
               x="0 5.7913942 10.251617 14.663726 19.131969">Node1</tspan>
            <tspan
               id="tspan1188"
               sodipodi:role="line"
               y="-34.02504"
               x="75.146988 80.939178 85.34407 89.805099 94.266121">Node2</tspan>
            <tspan
               id="tspan1190"
               sodipodi:role="line"
               y="31.162224"
               x="73.711571 79.50296 83.963188 88.37529 92.843536">Node3</tspan>
            <tspan
               id="tspan1192"
               sodipodi:role="line"
               y="-3.5611959e-15"
               x="147.43115 153.22334 157.62823 162.08926 166.55029 212.49814 217.86211 222.2718 226.2966 228.54114 234.32211 238.73181 243.20567">Node4PostNode</tspan>
            <tspan
               id="tspan1194"
               sodipodi:role="line"
               y="-31.218355"
               x="144.10323 148.11037 150.28915 154.74538 156.97227 161.61293 166.30972 168.53662 172.99284 176.94385 179.17877 184.07603 185.85387 192.53137">c[0]&lt;=InstTime</tspan>
            <tspan
               id="tspan1196"
               sodipodi:role="line"
               y="-8.5323219"
               x="167.47089 171.47562 173.70012 178.10582 180.33833 185.01668 189.65492 191.87943 196.33324 200.33797 202.56247 207.45732 209.23276 215.90785">c[0]==InstTime</tspan>
            <tspan
               id="tspan1198"
               sodipodi:role="line"
               y="9.9116077"
               x="108.24181 112.24815 114.47426 118.92966 121.15577 125.83572 130.51567 134.92296 139.3864 145.17297 146.95001">c[0]==L1Hit</tspan>
            <tspan
               id="tspan1200"
               sodipodi:role="line"
               y="-2.8628187"
               x="68.547264 72.553612 74.779709 79.235123 81.461227 86.141174 90.821121 95.228416 99.691849 105.47843 107.25546">c[0]&lt;=L1Hit</tspan>
            <tspan
               id="tspan1202"
               sodipodi:role="line"
               y="8.4761887"
               x="31.948095 35.965664 38.202991 42.613499 44.850826 49.542">c[0]=0</tspan>
            <tspan
               id="tspan1204"
               sodipodi:role="line"
               y="-42.557365"
               x="9.5507479 14.01017 18.020521 21.974739 26.442181 30.452532 34.462883 39.812428 44.271847 48.2822 50.456177 54.923618 57.153728">accessBus[0]!</tspan>
            <tspan
               id="tspan1206"
               sodipodi:role="line"
               y="-49.606152"
               x="107.15121 111.61143 115.62259 119.63374 124.04585 128.05701 132.06816 137.4185 141.87872 145.88988 148.12079 152.5329 154.76382">accessBus[0]?</tspan>
            <tspan
               id="tspan1208"
               sodipodi:role="line"
               y="-39.694546"
               x="119.86951 123.82854 126.06346 130.52769 132.76262 137.39525">c[0]=0</tspan>
            <tspan
               id="tspan1210"
               sodipodi:role="line"
               y="19.815195"
               x="-157.30266 -153.2851 -151.04776 -146.58113 -144.39993 -139.70876 117.00669 121.02425 123.26159 127.67209 129.90942 134.60059">c[0]=0c[0]=0</tspan>
          </text>
          <text
             id="text1220"
             style="font-variant:normal;font-weight:normal;font-stretch:normal;font-size:10.0237999px;font-family:'Times New Roman';-inkscape-font-specification:TimesNewRomanPSMT;writing-mode:lr-tb;fill:#000000;fill-opacity:1;fill-rule:nonzero;stroke:none"
             transform="matrix(1,0,0,-1,94.4532,132.3719)">
            <tspan
               id="tspan1214"
               sodipodi:role="line"
               y="0"
               x="0 3.3258967 7.7644353 11.090332 13.610315 20.83547 28.060625 30.580608 33.355198 38.355068 42.242298 45.016888 48.342781 53.342655 57.781193 60.555782 63.330368 68.330238">(a) AH instruction</tspan>
            <tspan
               id="tspan1216"
               sodipodi:role="line"
               y="1.3732606"
               x="278.89218 282.22009 287.22195 290.54987 293.06985 300.297 309.19815 311.71814 314.49472 319.49658 323.38583 326.16241 329.49033 334.49219 338.93274 341.70935 344.48593 349.48779">(b) AM instruction</tspan>
            <tspan
               id="tspan1218"
               sodipodi:role="line"
               y="128.98627"
               x="0 3.3279016 7.768445 11.096347 13.61633 19.179539 28.080673 30.600657 33.377251 38.379124 42.26836 45.044952 48.372852 53.374729 57.815273 60.591866 63.368458 68.370338 277.16809 280.496 285.49786 288.82578 291.34576 298.57291 305.24878 307.76874 310.54535 315.54721 319.43646 322.21304 325.54095 330.54282 334.98337 337.75995 340.53656 345.53842">(c) FM instruction(d) NC instruction</tspan>
          </text>
        </g>
      </g>
    </g>
  </g>
</svg>
