<?xml version="1.0" encoding="UTF-8" standalone="no"?>
<!-- Created with Inkscape (http://www.inkscape.org/) -->

<svg
   xmlns:dc="http://purl.org/dc/elements/1.1/"
   xmlns:cc="http://creativecommons.org/ns#"
   xmlns:rdf="http://www.w3.org/1999/02/22-rdf-syntax-ns#"
   xmlns:svg="http://www.w3.org/2000/svg"
   xmlns="http://www.w3.org/2000/svg"
   xmlns:sodipodi="http://sodipodi.sourceforge.net/DTD/sodipodi-0.dtd"
   xmlns:inkscape="http://www.inkscape.org/namespaces/inkscape"
   width="109.398mm"
   height="63.80719mm"
   viewBox="0 0 109.398 63.80719"
   version="1.1"
   id="svg1870"
   inkscape:version="0.92.4 5da689c313, 2019-01-14"
   sodipodi:docname="wuppaal_automaton.svg">
  <defs
     id="defs1864">
    <clipPath
       clipPathUnits="userSpaceOnUse"
       id="clipPath1557">
      <path
         d="M 0,0 H 562.999 V 328.999 H 0 Z"
         id="path1555"
         inkscape:connector-curvature="0" />
    </clipPath>
    <clipPath
       clipPathUnits="userSpaceOnUse"
       id="clipPath1567">
      <path
         d="M 0,0 H 563 V 329 H 0 Z"
         id="path1565"
         inkscape:connector-curvature="0" />
    </clipPath>
    <clipPath
       clipPathUnits="userSpaceOnUse"
       id="clipPath1577">
      <path
         d="M 0,0 H 845 V 494 H 0 Z"
         id="path1575"
         inkscape:connector-curvature="0" />
    </clipPath>
    <clipPath
       clipPathUnits="userSpaceOnUse"
       id="clipPath1589">
      <path
         d="M 0,0 V 494 H 845 V 0 Z"
         id="path1587"
         inkscape:connector-curvature="0" />
    </clipPath>
  </defs>
  <sodipodi:namedview
     id="base"
     pagecolor="#ffffff"
     bordercolor="#666666"
     borderopacity="1.0"
     inkscape:pageopacity="0.0"
     inkscape:pageshadow="2"
     inkscape:zoom="0.35"
     inkscape:cx="-292.97115"
     inkscape:cy="119.32067"
     inkscape:document-units="mm"
     inkscape:current-layer="layer1"
     showgrid="false"
     fit-margin-top="0"
     fit-margin-left="0"
     fit-margin-right="0"
     fit-margin-bottom="0"
     inkscape:window-width="958"
     inkscape:window-height="1059"
     inkscape:window-x="961"
     inkscape:window-y="20"
     inkscape:window-maximized="0" />
  <metadata
     id="metadata1867">
    <rdf:RDF>
      <cc:Work
         rdf:about="">
        <dc:format>image/svg+xml</dc:format>
        <dc:type
           rdf:resource="http://purl.org/dc/dcmitype/StillImage" />
        <dc:title></dc:title>
      </cc:Work>
    </rdf:RDF>
  </metadata>
  <g
     inkscape:label="Layer 1"
     inkscape:groupmode="layer"
     id="layer1"
     transform="translate(-50.300998,-116.59641)">
    <g
       transform="matrix(0.19502966,0,0,-0.19502966,50.277903,180.76097)"
       id="g1547">
      <g
         id="g1549">
        <g
           id="g1551">
          <g
             clip-path="url(#clipPath1557)"
             id="g1553">
            <g
               id="g1559">
              <g
                 id="g1561">
                <g
                   clip-path="url(#clipPath1567)"
                   id="g1563">
                  <g
                     transform="matrix(0.66599,0,0,-0.66599,0.11842,329)"
                     id="g1569">
                    <g
                       id="g1571">
                      <g
                         clip-path="url(#clipPath1577)"
                         id="g1573">
                        <g
                           id="g1579">
                          <g
                             id="g1581" />
                        </g>
                        <g
                           id="g1583">
                          <g
                             clip-path="url(#clipPath1589)"
                             id="g1585">
                            <g
                               id="g1591">
                              <g
                                 id="g1593">
                                <path
                                   inkscape:connector-curvature="0"
                                   id="path1595"
                                   style="fill:#ffffff;fill-opacity:1;fill-rule:nonzero;stroke:none"
                                   d="M 0,0 Z" />
                              </g>
                            </g>
                            <g
                               transform="matrix(1.5,0,0,1.5,325.5,345)"
                               id="g1597">
                              <path
                                 inkscape:connector-curvature="0"
                                 id="path1599"
                                 style="fill:#a5afcd;fill-opacity:1;fill-rule:nonzero;stroke:none"
                                 d="m -192,-76 c 0,6.627 -5.37,12 -12,12 -6.63,0 -12,-5.373 -12,-12 0,-6.627 5.37,-12 12,-12 6.63,0 12,5.373 12,12 z" />
                              <path
                                 inkscape:connector-curvature="0"
                                 id="path1601"
                                 style="fill:none;stroke:#000000;stroke-width:1;stroke-linecap:butt;stroke-linejoin:miter;stroke-miterlimit:10;stroke-dasharray:none;stroke-opacity:1"
                                 d="m -192,-76 c 0,6.627 -5.37,12 -12,12 -6.63,0 -12,-5.373 -12,-12 0,-6.627 5.37,-12 12,-12 6.63,0 12,5.373 12,12 z" />
                              <path
                                 inkscape:connector-curvature="0"
                                 id="path1603"
                                 style="fill:none;stroke:#000000;stroke-width:1;stroke-linecap:butt;stroke-linejoin:miter;stroke-miterlimit:10;stroke-dasharray:none;stroke-opacity:1"
                                 d="m -196,-76 c 0,4.418 -3.58,8 -8,8 -4.42,0 -8,-3.582 -8,-8 0,-4.418 3.58,-8 8,-8 4.42,0 8,3.582 8,8 z" />
                              <path
                                 inkscape:connector-curvature="0"
                                 id="path1605"
                                 style="fill:none;stroke:#000000;stroke-width:1;stroke-linecap:butt;stroke-linejoin:miter;stroke-miterlimit:10;stroke-dasharray:none;stroke-opacity:1"
                                 d="m -200.79,-79.83 c -2.02,-1.703 -5.03,-1.528 -6.85,0.399 -1.81,1.926 -1.81,4.936 0,6.862 1.82,1.927 4.83,2.102 6.85,0.399" />
                              <path
                                 inkscape:connector-curvature="0"
                                 id="path1607"
                                 style="fill:#a5afcd;fill-opacity:1;fill-rule:nonzero;stroke:none"
                                 d="m 4,85 c 0,6.627 -5.3726,12 -12,12 -6.627,0 -12,-5.373 -12,-12 0,-6.627 5.373,-12 12,-12 6.6274,0 12,5.373 12,12 z" />
                              <path
                                 inkscape:connector-curvature="0"
                                 id="path1609"
                                 style="fill:none;stroke:#000000;stroke-width:1;stroke-linecap:butt;stroke-linejoin:miter;stroke-miterlimit:10;stroke-dasharray:none;stroke-opacity:1"
                                 d="m 4,85 c 0,6.627 -5.3726,12 -12,12 -6.627,0 -12,-5.373 -12,-12 0,-6.627 5.373,-12 12,-12 6.6274,0 12,5.373 12,12 z" />
                              <path
                                 inkscape:connector-curvature="0"
                                 id="path1611"
                                 style="fill:#4242a8;fill-opacity:1;fill-rule:nonzero;stroke:none"
                                 d="m 44.347,-113 v -7.42 h 1.346 v 1.39 c 0.711,-1.04 1.582,-1.56 2.612,-1.56 0.642,0 1.155,0.21 1.538,0.61 0.383,0.41 0.574,0.96 0.574,1.65 V -113 H 49.07 v -4.89 c 0,-0.56 -0.081,-0.95 -0.242,-1.18 -0.162,-0.24 -0.43,-0.36 -0.804,-0.36 -0.824,0 -1.601,0.54 -2.331,1.62 v 4.81 z m 11.593,0.17 c -1.061,0 -1.909,-0.35 -2.543,-1.06 -0.633,-0.7 -0.95,-1.64 -0.95,-2.82 0,-1.2 0.318,-2.14 0.954,-2.84 0.636,-0.69 1.498,-1.04 2.587,-1.04 1.089,0 1.952,0.35 2.588,1.04 0.635,0.7 0.953,1.64 0.953,2.82 0,1.22 -0.319,2.17 -0.957,2.86 -0.638,0.69 -1.515,1.04 -2.632,1.04 z m 0.021,-1.01 c 1.426,0 2.14,-0.96 2.14,-2.89 0,-1.9 -0.705,-2.85 -2.113,-2.85 -1.403,0 -2.105,0.96 -2.105,2.87 0,1.91 0.693,2.87 2.078,2.87 z m 10.438,0.84 v -1.39 c -0.546,1.04 -1.371,1.56 -2.474,1.56 -0.893,0 -1.596,-0.32 -2.109,-0.98 -0.513,-0.65 -0.769,-1.54 -0.769,-2.67 0,-1.23 0.29,-2.23 0.871,-2.98 0.582,-0.75 1.346,-1.13 2.294,-1.13 0.879,0 1.609,0.34 2.187,1.01 v -4.21 h 1.354 V -113 Z m 0,-5.65 c -0.697,-0.62 -1.358,-0.93 -1.982,-0.93 -1.29,0 -1.935,0.99 -1.935,2.96 0,1.74 0.575,2.61 1.723,2.61 0.747,0 1.479,-0.41 2.194,-1.23 z m 9.489,5.41 c -0.903,0.27 -1.675,0.41 -2.318,0.41 -1.093,0 -1.986,-0.36 -2.676,-1.09 -0.69,-0.73 -1.036,-1.67 -1.036,-2.83 0,-1.12 0.305,-2.04 0.913,-2.76 0.608,-0.72 1.387,-1.08 2.334,-1.08 0.898,0 1.592,0.31 2.082,0.95 0.49,0.64 0.735,1.55 0.735,2.72 l -0.007,0.42 h -4.683 c 0.196,1.76 1.06,2.65 2.591,2.65 0.561,0 1.249,-0.15 2.065,-0.46 z m -4.594,-4.27 h 3.274 c 0,-1.38 -0.515,-2.07 -1.545,-2.07 -1.034,0 -1.611,0.69 -1.729,2.07 z m 7.123,2.23 v -1.01 h 8.094 v 1.01 z m 0,-2.53 v -1.01 h 8.094 v 1.01 z m 12.927,4.98 c -0.615,0 -1.363,-0.14 -2.242,-0.43 v -1.24 c 0.879,0.44 1.645,0.66 2.296,0.66 0.388,0 0.709,-0.11 0.964,-0.32 0.256,-0.2 0.383,-0.47 0.383,-0.78 0,-0.46 -0.358,-0.84 -1.073,-1.14 l -0.786,-0.34 c -1.162,-0.48 -1.743,-1.18 -1.743,-2.08 0,-0.65 0.229,-1.16 0.687,-1.53 0.458,-0.37 1.085,-0.56 1.883,-0.56 0.415,0 0.927,0.06 1.538,0.17 l 0.28,0.06 v 1.12 c -0.752,-0.22 -1.349,-0.34 -1.791,-0.34 -0.866,0 -1.299,0.32 -1.299,0.95 0,0.4 0.329,0.74 0.985,1.02 l 0.649,0.28 c 0.734,0.31 1.253,0.63 1.559,0.98 0.305,0.34 0.458,0.77 0.458,1.29 0,0.65 -0.258,1.18 -0.773,1.6 -0.515,0.42 -1.173,0.63 -1.975,0.63 z m 9.806,-0.17 v -1.39 c -0.71,1.04 -1.58,1.56 -2.601,1.56 -0.647,0 -1.162,-0.2 -1.545,-0.61 -0.383,-0.41 -0.574,-0.96 -0.574,-1.65 v -5.33 h 1.346 v 4.89 c 0,0.56 0.081,0.95 0.243,1.19 0.162,0.23 0.432,0.35 0.81,0.35 0.82,0 1.591,-0.54 2.321,-1.62 v -4.81 h 1.35 v 7.42 z m 6.95,0.17 c -1,0 -1.84,-0.37 -2.5,-1.11 -0.66,-0.75 -0.99,-1.68 -0.99,-2.81 0,-1.21 0.33,-2.15 0.98,-2.83 0.66,-0.67 1.57,-1.01 2.74,-1.01 0.58,0 1.23,0.08 1.94,0.24 v 1.13 c -0.76,-0.22 -1.38,-0.34 -1.86,-0.34 -0.69,0 -1.24,0.26 -1.65,0.78 -0.42,0.52 -0.63,1.21 -0.63,2.07 0,0.83 0.21,1.51 0.64,2.02 0.43,0.52 0.99,0.77 1.68,0.77 0.62,0 1.25,-0.15 1.9,-0.47 v 1.16 c -0.87,0.27 -1.62,0.4 -2.25,0.4 z m 7.17,0 c -1,0 -1.83,-0.37 -2.5,-1.11 -0.66,-0.75 -0.99,-1.68 -0.99,-2.81 0,-1.21 0.33,-2.15 0.98,-2.83 0.66,-0.67 1.57,-1.01 2.74,-1.01 0.58,0 1.23,0.08 1.94,0.24 v 1.13 c -0.76,-0.22 -1.38,-0.34 -1.86,-0.34 -0.68,0 -1.24,0.26 -1.65,0.78 -0.42,0.52 -0.63,1.21 -0.63,2.07 0,0.83 0.21,1.51 0.64,2.02 0.43,0.52 0.99,0.77 1.68,0.77 0.62,0 1.25,-0.15 1.91,-0.47 v 1.16 c -0.88,0.27 -1.63,0.4 -2.26,0.4 z m 4.27,1.85 v -12.81 h 2.7 v 1.01 h -1.52 v 10.79 h 1.52 v 1.01 z m 7.6,-1.77 c -1.05,0 -1.89,-0.49 -2.54,-1.47 -0.64,-0.98 -0.96,-2.26 -0.96,-3.85 0,-1.59 0.32,-2.87 0.97,-3.84 0.65,-0.97 1.51,-1.46 2.57,-1.46 1.06,0 1.92,0.49 2.56,1.46 0.65,0.97 0.98,2.24 0.98,3.82 0,1.63 -0.33,2.92 -0.98,3.89 -0.64,0.97 -1.51,1.45 -2.6,1.45 z m 0.01,-1.01 c 1.43,0 2.14,-1.45 2.14,-4.35 0,-2.83 -0.7,-4.25 -2.11,-4.25 -1.41,0 -2.11,1.43 -2.11,4.29 0,2.88 0.69,4.31 2.08,4.31 z m 7.66,2.78 v -12.81 h -2.7 v 1.01 h 1.51 v 10.79 h -1.51 v 1.01 z" />
                              <path
                                 inkscape:connector-curvature="0"
                                 id="path1613"
                                 style="fill:#4242a8;fill-opacity:1;fill-rule:nonzero;stroke:none"
                                 d="m 35.347,-20 v -7.424 h 1.346 v 1.395 c 0.711,-1.039 1.582,-1.559 2.612,-1.559 0.642,0 1.155,0.204 1.538,0.612 0.383,0.408 0.574,0.956 0.574,1.644 V -20 H 40.07 v -4.895 c 0,-0.551 -0.081,-0.944 -0.242,-1.179 -0.162,-0.234 -0.43,-0.352 -0.804,-0.352 -0.824,0 -1.601,0.54 -2.331,1.62 V -20 Z m 11.593,0.171 c -1.061,0 -1.909,-0.352 -2.543,-1.056 -0.633,-0.704 -0.95,-1.647 -0.95,-2.827 0,-1.194 0.318,-2.138 0.954,-2.833 0.636,-0.695 1.498,-1.043 2.587,-1.043 1.089,0 1.952,0.348 2.588,1.043 0.635,0.695 0.953,1.635 0.953,2.819 0,1.213 -0.319,2.165 -0.957,2.858 -0.638,0.693 -1.515,1.039 -2.632,1.039 z m 0.021,-1.012 c 1.426,0 2.14,-0.961 2.14,-2.885 0,-1.9 -0.705,-2.85 -2.113,-2.85 -1.403,0 -2.105,0.955 -2.105,2.864 0,1.914 0.693,2.871 2.078,2.871 z M 57.399,-20 v -1.395 c -0.546,1.044 -1.371,1.566 -2.474,1.566 -0.893,0 -1.596,-0.326 -2.109,-0.978 -0.513,-0.651 -0.769,-1.542 -0.769,-2.672 0,-1.236 0.29,-2.229 0.871,-2.981 0.582,-0.752 1.346,-1.128 2.294,-1.128 0.879,0 1.609,0.337 2.187,1.012 v -4.218 h 1.354 V -20 Z m 0,-5.653 c -0.697,-0.616 -1.358,-0.923 -1.982,-0.923 -1.29,0 -1.935,0.986 -1.935,2.96 0,1.736 0.575,2.604 1.723,2.604 0.747,0 1.479,-0.408 2.194,-1.223 z m 9.489,5.414 c -0.903,0.273 -1.675,0.41 -2.318,0.41 -1.093,0 -1.986,-0.364 -2.676,-1.09 -0.69,-0.727 -1.036,-1.67 -1.036,-2.827 0,-1.126 0.305,-2.049 0.913,-2.769 0.608,-0.72 1.387,-1.08 2.334,-1.08 0.898,0 1.592,0.319 2.082,0.957 0.49,0.638 0.735,1.545 0.735,2.721 l -0.007,0.417 h -4.683 c 0.196,1.764 1.06,2.646 2.591,2.646 0.561,0 1.249,-0.151 2.065,-0.452 z m -4.594,-4.273 h 3.274 c 0,-1.381 -0.515,-2.071 -1.545,-2.071 -1.034,0 -1.611,0.69 -1.729,2.071 z m 7.123,2.236 v -1.012 h 8.094 v 1.012 z m 0,-2.53 v -1.011 h 8.094 v 1.011 z m 12.927,4.977 c -0.615,0 -1.363,-0.144 -2.242,-0.431 v -1.237 c 0.879,0.437 1.645,0.656 2.296,0.656 0.388,0 0.709,-0.105 0.964,-0.314 0.256,-0.21 0.383,-0.472 0.383,-0.786 0,-0.461 -0.358,-0.841 -1.073,-1.142 l -0.786,-0.335 c -1.162,-0.483 -1.743,-1.178 -1.743,-2.085 0,-0.647 0.229,-1.156 0.687,-1.528 0.458,-0.371 1.085,-0.557 1.883,-0.557 0.415,0 0.927,0.057 1.538,0.171 l 0.28,0.055 v 1.121 c -0.752,-0.224 -1.349,-0.335 -1.791,-0.335 -0.866,0 -1.299,0.314 -1.299,0.943 0,0.406 0.329,0.748 0.985,1.026 l 0.649,0.273 c 0.734,0.31 1.253,0.637 1.559,0.981 0.305,0.344 0.458,0.774 0.458,1.289 0,0.651 -0.258,1.187 -0.773,1.606 -0.515,0.419 -1.173,0.629 -1.975,0.629 z M 92.153,-20 v -1.395 c -0.715,1.044 -1.583,1.566 -2.604,1.566 -0.647,0 -1.162,-0.204 -1.545,-0.612 -0.383,-0.408 -0.574,-0.958 -0.574,-1.651 v -5.332 h 1.346 v 4.895 c 0,0.556 0.081,0.951 0.243,1.186 0.162,0.234 0.432,0.352 0.81,0.352 0.82,0 1.595,-0.54 2.324,-1.62 v -4.813 H 93.5 V -20 Z m 6.946,0.171 c -1.003,0 -1.835,-0.372 -2.495,-1.114 -0.661,-0.743 -0.992,-1.68 -0.992,-2.81 0,-1.208 0.327,-2.149 0.981,-2.823 0.654,-0.675 1.567,-1.012 2.738,-1.012 0.579,0 1.229,0.08 1.939,0.239 v 1.128 c -0.76,-0.223 -1.378,-0.335 -1.857,-0.335 -0.688,0 -1.241,0.259 -1.658,0.776 -0.417,0.517 -0.625,1.207 -0.625,2.068 0,0.834 0.214,1.509 0.642,2.024 0.429,0.514 0.989,0.772 1.682,0.772 0.616,0 1.246,-0.157 1.896,-0.472 v 1.162 c -0.87,0.265 -1.618,0.397 -2.251,0.397 z m 7.171,0 c -1,0 -1.83,-0.372 -2.5,-1.114 -0.66,-0.743 -0.99,-1.68 -0.99,-2.81 0,-1.208 0.33,-2.149 0.98,-2.823 0.66,-0.675 1.57,-1.012 2.74,-1.012 0.58,0 1.23,0.08 1.94,0.239 v 1.128 c -0.76,-0.223 -1.38,-0.335 -1.86,-0.335 -0.68,0 -1.24,0.259 -1.65,0.776 -0.42,0.517 -0.63,1.207 -0.63,2.068 0,0.834 0.21,1.509 0.64,2.024 0.43,0.514 0.99,0.772 1.68,0.772 0.62,0 1.25,-0.157 1.91,-0.472 v 1.162 c -0.88,0.265 -1.63,0.397 -2.26,0.397 z m 4.27,1.852 v -12.817 h 2.7 v 1.012 h -1.52 v 10.794 h 1.52 v 1.011 z M 115.85,-20 v -1.012 h 2.03 v -7.984 l -2.03,0.506 v -1.039 l 3.38,-0.841 v 9.358 h 2.02 V -20 Z m 9.96,2.023 v -12.817 h -2.7 v 1.012 h 1.51 v 10.794 h -1.51 v 1.011 z" />
                              <path
                                 inkscape:connector-curvature="0"
                                 id="path1615"
                                 style="fill:#4242a8;fill-opacity:1;fill-rule:nonzero;stroke:none"
                                 d="m 103.37,-212.53 0.16,-1.17 c 0.78,0.37 1.55,0.55 2.3,0.55 1.52,0 2.28,-0.8 2.28,-2.41 v -1.17 c -0.5,1.04 -1.31,1.56 -2.45,1.56 -0.88,0 -1.59,-0.32 -2.12,-0.97 -0.52,-0.65 -0.78,-1.52 -0.78,-2.62 0,-1.13 0.3,-2.05 0.89,-2.76 0.6,-0.71 1.37,-1.07 2.32,-1.07 0.83,0 1.54,0.34 2.14,1.01 v -0.84 h 1.35 v 5.4 c 0,1.16 -0.06,2.02 -0.18,2.58 -0.12,0.56 -0.34,1.01 -0.68,1.37 -0.58,0.62 -1.5,0.93 -2.74,0.93 -0.86,0 -1.69,-0.13 -2.49,-0.39 z m 4.74,-5.04 v -3.08 c -0.59,-0.62 -1.24,-0.93 -1.93,-0.93 -0.62,0 -1.11,0.25 -1.46,0.75 -0.35,0.5 -0.53,1.18 -0.53,2.04 0,1.63 0.58,2.44 1.72,2.44 0.78,0 1.51,-0.4 2.2,-1.22 z m 9.41,2.33 c -0.9,0.27 -1.68,0.41 -2.32,0.41 -1.09,0 -1.99,-0.36 -2.68,-1.09 -0.69,-0.73 -1.03,-1.67 -1.03,-2.83 0,-1.12 0.3,-2.04 0.91,-2.76 0.61,-0.72 1.39,-1.08 2.34,-1.08 0.89,0 1.59,0.31 2.08,0.95 0.49,0.64 0.73,1.55 0.73,2.72 l -0.01,0.42 h -4.68 c 0.2,1.76 1.06,2.65 2.59,2.65 0.56,0 1.25,-0.15 2.07,-0.46 z m -4.6,-4.27 h 3.28 c 0,-1.38 -0.52,-2.07 -1.55,-2.07 -1.03,0 -1.61,0.69 -1.73,2.07 z m 9.18,4.68 c -0.68,0 -1.21,-0.2 -1.6,-0.59 -0.38,-0.39 -0.57,-0.93 -0.57,-1.63 v -4.36 H 119 v -1.01 h 0.93 v -1.35 l 1.35,-0.13 v 1.48 h 1.94 v 1.01 h -1.94 v 4.11 c 0,0.97 0.42,1.46 1.26,1.46 0.17,0 0.39,-0.03 0.64,-0.09 v 0.93 c -0.41,0.11 -0.77,0.17 -1.08,0.17 z m 1.67,2.19 v -1.01 h 7 v 1.01 z m 8.34,-2.36 v -7.42 h 1.35 v 1.39 c 0.71,-1.04 1.58,-1.56 2.61,-1.56 0.64,0 1.16,0.21 1.54,0.61 0.38,0.41 0.57,0.96 0.57,1.65 v 5.33 h -1.34 v -4.89 c 0,-0.56 -0.08,-0.95 -0.25,-1.18 -0.16,-0.24 -0.43,-0.36 -0.8,-0.36 -0.82,0 -1.6,0.54 -2.33,1.62 v 4.81 z m 14.13,-0.24 c -0.9,0.27 -1.67,0.41 -2.32,0.41 -1.09,0 -1.98,-0.36 -2.67,-1.09 -0.69,-0.73 -1.04,-1.67 -1.04,-2.83 0,-1.12 0.31,-2.04 0.92,-2.76 0.6,-0.72 1.38,-1.08 2.33,-1.08 0.9,0 1.59,0.31 2.08,0.95 0.49,0.64 0.74,1.55 0.74,2.72 l -0.01,0.42 h -4.68 c 0.19,1.76 1.06,2.65 2.59,2.65 0.56,0 1.25,-0.15 2.06,-0.46 z m -4.59,-4.27 h 3.27 c 0,-1.38 -0.51,-2.07 -1.54,-2.07 -1.04,0 -1.61,0.69 -1.73,2.07 z m 6.21,4.51 2.82,-3.83 -2.74,-3.59 h 1.6 l 2.16,2.85 1.97,-2.85 h 1.31 l -2.57,3.76 2.79,3.66 h -1.6 l -2.23,-2.94 -2.16,2.94 z m 11.56,0.17 c -0.69,0 -1.22,-0.2 -1.6,-0.59 -0.39,-0.39 -0.58,-0.93 -0.58,-1.63 v -4.36 h -0.93 v -1.01 h 0.93 v -1.35 l 1.35,-0.13 v 1.48 h 1.94 v 1.01 h -1.94 v 4.11 c 0,0.97 0.42,1.46 1.26,1.46 0.17,0 0.39,-0.03 0.65,-0.09 v 0.93 c -0.42,0.11 -0.78,0.17 -1.08,0.17 z m 5.7,0.92 v 0.93 c -0.98,-0.67 -1.76,-1.58 -2.34,-2.73 -0.57,-1.15 -0.86,-2.38 -0.86,-3.68 0,-1.3 0.29,-2.52 0.86,-3.67 0.58,-1.15 1.36,-2.06 2.34,-2.73 v 0.93 c -0.67,0.72 -1.14,1.51 -1.43,2.35 -0.28,0.84 -0.43,1.88 -0.43,3.12 0,1.25 0.15,2.29 0.43,3.13 0.29,0.84 0.76,1.62 1.43,2.35 z m 1.86,-1.09 v -7.42 h 1.34 v 1.39 c 0.71,-1.04 1.58,-1.56 2.61,-1.56 0.65,0 1.16,0.21 1.54,0.61 0.38,0.41 0.58,0.96 0.58,1.65 v 5.33 h -1.35 v -4.89 c 0,-0.56 -0.08,-0.95 -0.24,-1.18 -0.17,-0.24 -0.43,-0.36 -0.81,-0.36 -0.82,0 -1.6,0.54 -2.33,1.62 v 4.81 z m 11.59,0.17 c -1.06,0 -1.91,-0.35 -2.54,-1.06 -0.64,-0.7 -0.95,-1.64 -0.95,-2.82 0,-1.2 0.31,-2.14 0.95,-2.84 0.64,-0.69 1.5,-1.04 2.59,-1.04 1.09,0 1.95,0.35 2.58,1.04 0.64,0.7 0.96,1.64 0.96,2.82 0,1.22 -0.32,2.17 -0.96,2.86 -0.64,0.69 -1.51,1.04 -2.63,1.04 z m 0.02,-1.01 c 1.43,0 2.14,-0.96 2.14,-2.89 0,-1.9 -0.7,-2.85 -2.11,-2.85 -1.41,0 -2.11,0.96 -2.11,2.87 0,1.91 0.69,2.87 2.08,2.87 z m 10.44,0.84 v -1.39 c -0.55,1.04 -1.37,1.56 -2.48,1.56 -0.89,0 -1.59,-0.32 -2.11,-0.98 -0.51,-0.65 -0.76,-1.54 -0.76,-2.67 0,-1.23 0.29,-2.23 0.87,-2.98 0.58,-0.75 1.34,-1.13 2.29,-1.13 0.88,0 1.61,0.34 2.19,1.01 v -4.21 h 1.35 V -215 Z m 0,-5.65 c -0.7,-0.62 -1.36,-0.93 -1.98,-0.93 -1.29,0 -1.94,0.99 -1.94,2.96 0,1.74 0.58,2.61 1.72,2.61 0.75,0 1.48,-0.41 2.2,-1.23 z m 9.49,5.41 c -0.91,0.27 -1.68,0.41 -2.32,0.41 -1.09,0 -1.99,-0.36 -2.68,-1.09 -0.69,-0.73 -1.03,-1.67 -1.03,-2.83 0,-1.12 0.3,-2.04 0.91,-2.76 0.61,-0.72 1.39,-1.08 2.33,-1.08 0.9,0 1.6,0.31 2.09,0.95 0.49,0.64 0.73,1.55 0.73,2.72 l -0.01,0.42 h -4.68 c 0.2,1.76 1.06,2.65 2.59,2.65 0.56,0 1.25,-0.15 2.07,-0.46 z m -4.6,-4.27 h 3.28 c 0,-1.38 -0.52,-2.07 -1.55,-2.07 -1.03,0 -1.61,0.69 -1.73,2.07 z m 6.98,6.7 v -0.5 c 0.43,-0.12 0.65,-0.64 0.65,-1.55 V -215 h -0.65 v -1.69 h 1.68 v 1.46 c 0,1.5 -0.56,2.31 -1.68,2.42 z m 6.37,-2.02 c -0.61,0 -1.36,-0.14 -2.24,-0.43 v -1.24 c 0.88,0.44 1.65,0.66 2.3,0.66 0.39,0 0.71,-0.11 0.96,-0.32 0.26,-0.2 0.38,-0.47 0.38,-0.78 0,-0.46 -0.35,-0.84 -1.07,-1.14 l -0.78,-0.34 c -1.17,-0.48 -1.75,-1.18 -1.75,-2.08 0,-0.65 0.23,-1.16 0.69,-1.53 0.46,-0.37 1.09,-0.56 1.88,-0.56 0.42,0 0.93,0.06 1.54,0.17 l 0.28,0.06 v 1.12 c -0.75,-0.22 -1.35,-0.34 -1.79,-0.34 -0.87,0 -1.3,0.32 -1.3,0.95 0,0.4 0.33,0.74 0.99,1.02 l 0.64,0.28 c 0.74,0.31 1.26,0.63 1.56,0.98 0.31,0.34 0.46,0.77 0.46,1.29 0,0.65 -0.26,1.18 -0.77,1.6 -0.52,0.42 -1.17,0.63 -1.98,0.63 z m 9.81,-0.17 v -1.39 c -0.71,1.04 -1.58,1.56 -2.6,1.56 -0.65,0 -1.16,-0.2 -1.55,-0.61 -0.38,-0.41 -0.57,-0.96 -0.57,-1.65 v -5.33 h 1.35 v 4.89 c 0,0.56 0.08,0.95 0.24,1.19 0.16,0.23 0.43,0.35 0.81,0.35 0.82,0 1.59,-0.54 2.32,-1.62 v -4.81 h 1.35 v 7.42 z m 6.95,0.17 c -1,0 -1.84,-0.37 -2.5,-1.11 -0.66,-0.75 -0.99,-1.68 -0.99,-2.81 0,-1.21 0.33,-2.15 0.98,-2.83 0.66,-0.67 1.57,-1.01 2.74,-1.01 0.58,0 1.23,0.08 1.94,0.24 v 1.13 c -0.76,-0.22 -1.38,-0.34 -1.86,-0.34 -0.69,0 -1.24,0.26 -1.65,0.78 -0.42,0.52 -0.63,1.21 -0.63,2.07 0,0.83 0.21,1.51 0.64,2.02 0.43,0.52 0.99,0.77 1.68,0.77 0.62,0 1.25,-0.15 1.9,-0.47 v 1.16 c -0.87,0.27 -1.62,0.4 -2.25,0.4 z m 7.17,0 c -1,0 -1.84,-0.37 -2.5,-1.11 -0.66,-0.75 -0.99,-1.68 -0.99,-2.81 0,-1.21 0.33,-2.15 0.98,-2.83 0.66,-0.67 1.57,-1.01 2.74,-1.01 0.58,0 1.23,0.08 1.94,0.24 v 1.13 c -0.76,-0.22 -1.38,-0.34 -1.86,-0.34 -0.68,0 -1.24,0.26 -1.65,0.78 -0.42,0.52 -0.63,1.21 -0.63,2.07 0,0.83 0.21,1.51 0.64,2.02 0.43,0.52 0.99,0.77 1.68,0.77 0.62,0 1.25,-0.15 1.91,-0.47 v 1.16 c -0.88,0.27 -1.63,0.4 -2.26,0.4 z m 3.43,0.92 v 0.93 c 0.99,-0.67 1.77,-1.58 2.34,-2.73 0.58,-1.15 0.87,-2.38 0.87,-3.68 0,-1.3 -0.29,-2.52 -0.87,-3.67 -0.57,-1.15 -1.35,-2.06 -2.34,-2.73 v 0.93 c 0.67,0.72 1.15,1.51 1.43,2.35 0.29,0.84 0.43,1.88 0.43,3.12 0,1.25 -0.14,2.29 -0.43,3.13 -0.28,0.84 -0.76,1.62 -1.43,2.35 z" />
                              <path
                                 inkscape:connector-curvature="0"
                                 id="path1617"
                                 style="fill:#42a0a8;fill-opacity:1;fill-rule:nonzero;stroke:none"
                                 d="m 112.35,-34.3 v -10.124 h 1.34 v 1.395 c 0.55,-1.039 1.38,-1.559 2.48,-1.559 0.9,0 1.6,0.326 2.11,0.978 0.52,0.651 0.77,1.542 0.77,2.672 0,1.231 -0.29,2.223 -0.87,2.978 -0.58,0.754 -1.34,1.131 -2.29,1.131 -0.88,0 -1.61,-0.337 -2.2,-1.012 v 3.541 z m 1.34,-4.471 c 0.7,0.62 1.36,0.93 1.99,0.93 1.29,0 1.94,-0.986 1.94,-2.96 0,-1.741 -0.58,-2.611 -1.73,-2.611 -0.75,0 -1.48,0.408 -2.2,1.224 z M 125.8,-37 v -1.395 c -0.72,1.044 -1.58,1.566 -2.6,1.566 -0.65,0 -1.17,-0.204 -1.55,-0.612 -0.38,-0.408 -0.57,-0.958 -0.57,-1.651 v -5.332 h 1.34 v 4.895 c 0,0.556 0.08,0.951 0.25,1.186 0.16,0.234 0.43,0.352 0.81,0.352 0.82,0 1.59,-0.54 2.32,-1.62 v -4.813 h 1.35 V -37 Z m 6.02,0.171 c -0.62,0 -1.37,-0.144 -2.25,-0.431 v -1.237 c 0.88,0.437 1.65,0.656 2.3,0.656 0.39,0 0.71,-0.105 0.96,-0.314 0.26,-0.21 0.39,-0.472 0.39,-0.786 0,-0.461 -0.36,-0.841 -1.08,-1.142 l -0.78,-0.335 c -1.16,-0.483 -1.75,-1.178 -1.75,-2.085 0,-0.647 0.23,-1.156 0.69,-1.528 0.46,-0.371 1.09,-0.557 1.88,-0.557 0.42,0 0.93,0.057 1.54,0.171 l 0.28,0.055 v 1.121 c -0.75,-0.224 -1.35,-0.335 -1.79,-0.335 -0.86,0 -1.3,0.314 -1.3,0.943 0,0.406 0.33,0.748 0.99,1.026 l 0.65,0.273 c 0.73,0.31 1.25,0.637 1.56,0.981 0.3,0.344 0.45,0.774 0.45,1.289 0,0.651 -0.25,1.187 -0.77,1.606 -0.51,0.419 -1.17,0.629 -1.97,0.629 z M 136.98,-37 v -10.794 h 1.35 v 4.765 c 0.71,-1.039 1.58,-1.559 2.61,-1.559 0.64,0 1.16,0.204 1.54,0.612 0.38,0.408 0.57,0.956 0.57,1.644 V -37 h -1.34 v -4.895 c 0,-0.551 -0.08,-0.944 -0.25,-1.179 -0.16,-0.234 -0.43,-0.352 -0.8,-0.352 -0.82,0 -1.6,0.54 -2.33,1.62 V -37 Z m 11.06,0 v -9.044 h -3.59 v -1.073 h 8.61 v 1.073 h -3.59 V -37 Z m 9.39,0.171 c -1.06,0 -1.91,-0.352 -2.54,-1.056 -0.64,-0.704 -0.95,-1.647 -0.95,-2.827 0,-1.194 0.31,-2.138 0.95,-2.833 0.64,-0.695 1.5,-1.043 2.59,-1.043 1.09,0 1.95,0.348 2.58,1.043 0.64,0.695 0.96,1.635 0.96,2.819 0,1.213 -0.32,2.165 -0.96,2.858 -0.64,0.693 -1.51,1.039 -2.63,1.039 z m 0.02,-1.012 c 1.43,0 2.14,-0.961 2.14,-2.885 0,-1.9 -0.7,-2.85 -2.11,-2.85 -1.41,0 -2.11,0.955 -2.11,2.864 0,1.914 0.69,2.871 2.08,2.871 z m 5.67,2.864 v -12.817 h 2.7 v 1.012 h -1.51 v 10.794 h 1.51 v 1.011 z M 167.64,-37 v -10.117 h 5.65 v 1.073 h -4.22 v 3.391 h 3.54 v 1.059 h -3.54 V -37 Z m 7.5,0 v -10.117 h 5.65 v 1.073 h -4.21 v 3.247 h 3.53 v 1.06 h -3.53 v 3.664 h 4.51 V -37 Z m 10,0 v -9.044 h -3.59 v -1.073 h 8.61 v 1.073 h -3.59 V -37 Z m 10.78,0.253 c -1.58,0 -2.79,-0.461 -3.65,-1.384 -0.85,-0.923 -1.28,-2.23 -1.28,-3.921 0,-1.686 0.43,-2.994 1.31,-3.924 0.87,-0.929 2.1,-1.394 3.68,-1.394 0.91,0 1.97,0.148 3.19,0.444 v 1.347 c -1.39,-0.479 -2.45,-0.718 -3.21,-0.718 -1.09,0 -1.94,0.372 -2.55,1.114 -0.6,0.743 -0.9,1.791 -0.9,3.145 0,1.29 0.32,2.307 0.97,3.052 0.64,0.745 1.52,1.118 2.63,1.118 0.95,0 1.98,-0.294 3.07,-0.882 v 1.23 c -0.99,0.515 -2.08,0.773 -3.26,0.773 z M 201.27,-37 v -10.117 h 1.43 v 4.265 h 4.82 v -4.265 h 1.43 V -37 h -1.43 v -4.778 H 202.7 V -37 Z m 8.98,2.358 v -1.011 h 7 v 1.011 z m 10.29,-2.105 c -0.68,0 -1.55,-0.148 -2.61,-0.444 v -1.422 c 1.14,0.528 2.08,0.793 2.81,0.793 0.57,0 1.02,-0.148 1.37,-0.445 0.34,-0.296 0.51,-0.686 0.51,-1.169 0,-0.396 -0.11,-0.733 -0.33,-1.011 -0.23,-0.278 -0.65,-0.588 -1.25,-0.93 l -0.7,-0.403 c -0.86,-0.493 -1.47,-0.956 -1.82,-1.391 -0.35,-0.436 -0.53,-0.943 -0.53,-1.521 0,-0.78 0.28,-1.421 0.85,-1.925 0.56,-0.503 1.28,-0.755 2.16,-0.755 0.78,0 1.6,0.13 2.46,0.39 v 1.312 c -1.06,-0.419 -1.86,-0.629 -2.38,-0.629 -0.5,0 -0.91,0.132 -1.23,0.397 -0.32,0.264 -0.49,0.597 -0.49,0.998 0,0.337 0.12,0.635 0.36,0.895 0.24,0.26 0.67,0.57 1.3,0.93 l 0.72,0.41 c 0.88,0.497 1.49,0.966 1.83,1.408 0.35,0.442 0.52,0.973 0.52,1.593 0,0.88 -0.32,1.586 -0.97,2.119 -0.65,0.533 -1.51,0.8 -2.58,0.8 z M 228.5,-37 v -9.044 h -3.59 v -1.073 h 8.62 v 1.073 h -3.59 V -37 Z m 11.58,-3.869 -1.73,-4.361 -1.73,4.361 z m 1.51,3.869 -1.1,-2.803 h -4.28 L 235.09,-37 h -1.33 l 4.01,-10.117 h 1.42 L 243.15,-37 Z m 10.62,-0.273 c -1.23,0.35 -2.29,0.526 -3.21,0.526 -1.6,0 -2.84,-0.458 -3.7,-1.374 -0.86,-0.916 -1.29,-2.229 -1.29,-3.938 0,-1.677 0.44,-2.981 1.31,-3.913 0.87,-0.932 2.09,-1.398 3.66,-1.398 1.03,0 2.1,0.153 3.22,0.458 v 1.326 c -1.4,-0.474 -2.47,-0.711 -3.21,-0.711 -1.09,0 -1.94,0.372 -2.55,1.114 -0.6,0.743 -0.9,1.789 -0.9,3.138 0,1.335 0.32,2.373 0.97,3.114 0.65,0.74 1.55,1.111 2.72,1.111 0.48,0 1,-0.085 1.55,-0.253 v -3.295 h 1.43 z m 2.52,0.273 v -10.117 h 5.65 v 1.073 h -4.22 v 3.247 h 3.54 v 1.06 h -3.54 v 3.664 h 4.51 V -37 Z m 9.48,2.023 v -12.817 h -2.7 v 1.012 h 1.52 v 10.794 h -1.52 v 1.011 z M 267.1,-37 v -1.347 h 1.35 V -37 Z m 0.17,-2.7 -0.17,-5.394 v -2.023 h 1.35 v 2.023 l -0.17,5.394 z" />
                              <path
                                 inkscape:connector-curvature="0"
                                 id="path1619"
                                 style="fill:#a5afcd;fill-opacity:1;fill-rule:nonzero;stroke:none"
                                 d="m 344,-76 c 0,6.627 -5.37,12 -12,12 -6.63,0 -12,-5.373 -12,-12 0,-6.627 5.37,-12 12,-12 6.63,0 12,5.373 12,12 z" />
                              <path
                                 inkscape:connector-curvature="0"
                                 id="path1621"
                                 style="fill:none;stroke:#000000;stroke-width:1;stroke-linecap:butt;stroke-linejoin:miter;stroke-miterlimit:10;stroke-dasharray:none;stroke-opacity:1"
                                 d="m 344,-76 c 0,6.627 -5.37,12 -12,12 -6.63,0 -12,-5.373 -12,-12 0,-6.627 5.37,-12 12,-12 6.63,0 12,5.373 12,12 z" />
                              <path
                                 inkscape:connector-curvature="0"
                                 id="path1623"
                                 style="fill:none;stroke:#000000;stroke-width:1;stroke-linecap:butt;stroke-linejoin:miter;stroke-miterlimit:10;stroke-dasharray:none;stroke-opacity:1"
                                 d="m 335.21,-79.83 c -2.02,-1.703 -5.03,-1.528 -6.85,0.399 -1.81,1.926 -1.81,4.936 0,6.862 1.82,1.927 4.83,2.102 6.85,0.399" />
                              <path
                                 inkscape:connector-curvature="0"
                                 id="path1625"
                                 style="fill:#42a0a8;fill-opacity:1;fill-rule:nonzero;stroke:none"
                                 d="M -202.65,41.7 V 31.576 h 1.34 v 1.395 c 0.55,-1.039 1.38,-1.559 2.48,-1.559 0.9,0 1.6,0.326 2.11,0.978 0.52,0.651 0.77,1.542 0.77,2.672 0,1.231 -0.29,2.223 -0.87,2.978 -0.58,0.754 -1.34,1.131 -2.29,1.131 -0.88,0 -1.61,-0.337 -2.2,-1.012 V 41.7 Z m 1.34,-4.471 c 0.7,0.62 1.36,0.93 1.99,0.93 1.29,0 1.94,-0.986 1.94,-2.96 0,-1.741 -0.58,-2.611 -1.73,-2.611 -0.75,0 -1.48,0.408 -2.2,1.224 z m 7.47,1.771 v -7.424 h 1.34 v 1.395 c 0.54,-1.039 1.31,-1.559 2.33,-1.559 0.14,0 0.28,0.012 0.43,0.034 v 1.258 c -0.23,-0.077 -0.44,-0.116 -0.62,-0.116 -0.85,0 -1.56,0.506 -2.14,1.517 V 39 Z m 8.63,0.171 c -1.06,0 -1.91,-0.352 -2.54,-1.056 -0.63,-0.704 -0.95,-1.647 -0.95,-2.827 0,-1.194 0.32,-2.138 0.95,-2.833 0.64,-0.695 1.5,-1.043 2.59,-1.043 1.09,0 1.95,0.348 2.59,1.043 0.63,0.695 0.95,1.635 0.95,2.819 0,1.213 -0.32,2.165 -0.96,2.858 -0.63,0.693 -1.51,1.039 -2.63,1.039 z m 0.02,-1.012 c 1.43,0 2.14,-0.961 2.14,-2.885 0,-1.9 -0.7,-2.85 -2.11,-2.85 -1.4,0 -2.11,0.955 -2.11,2.864 0,1.914 0.7,2.871 2.08,2.871 z m 5.7,3.309 0.16,-1.169 c 0.78,0.369 1.55,0.554 2.3,0.554 1.52,0 2.28,-0.805 2.28,-2.414 v -1.168 c -0.5,1.039 -1.31,1.558 -2.45,1.558 -0.88,0 -1.59,-0.323 -2.12,-0.971 -0.52,-0.647 -0.78,-1.519 -0.78,-2.618 0,-1.13 0.3,-2.051 0.89,-2.761 0.6,-0.711 1.37,-1.067 2.32,-1.067 0.83,0 1.54,0.337 2.14,1.012 v -0.848 h 1.35 v 5.401 c 0,1.162 -0.06,2.022 -0.18,2.58 -0.12,0.558 -0.34,1.015 -0.68,1.371 -0.58,0.624 -1.5,0.936 -2.74,0.936 -0.86,0 -1.69,-0.132 -2.49,-0.396 z m 4.74,-5.038 v -3.083 c -0.59,-0.616 -1.24,-0.923 -1.93,-0.923 -0.62,0 -1.11,0.248 -1.46,0.745 -0.35,0.497 -0.53,1.178 -0.53,2.044 0,1.627 0.58,2.44 1.72,2.44 0.78,0 1.51,-0.408 2.2,-1.223 z m 2.62,4.928 v -1.011 h 7 v 1.011 z m 11.24,-2.187 c -1,0 -1.83,-0.372 -2.49,-1.114 -0.66,-0.743 -0.99,-1.68 -0.99,-2.81 0,-1.208 0.32,-2.149 0.98,-2.823 0.65,-0.675 1.57,-1.012 2.74,-1.012 0.58,0 1.22,0.08 1.94,0.239 v 1.128 c -0.76,-0.223 -1.38,-0.335 -1.86,-0.335 -0.69,0 -1.24,0.259 -1.66,0.776 -0.42,0.517 -0.62,1.207 -0.62,2.068 0,0.834 0.21,1.509 0.64,2.024 0.43,0.514 0.99,0.772 1.68,0.772 0.61,0 1.25,-0.157 1.9,-0.472 v 1.162 c -0.87,0.265 -1.62,0.397 -2.26,0.397 z m 7.18,0 c -1.06,0 -1.91,-0.352 -2.54,-1.056 -0.63,-0.704 -0.95,-1.647 -0.95,-2.827 0,-1.194 0.32,-2.138 0.95,-2.833 0.64,-0.695 1.5,-1.043 2.59,-1.043 1.09,0 1.95,0.348 2.59,1.043 0.63,0.695 0.95,1.635 0.95,2.819 0,1.213 -0.32,2.165 -0.96,2.858 -0.63,0.693 -1.51,1.039 -2.63,1.039 z m 0.02,-1.012 c 1.43,0 2.14,-0.961 2.14,-2.885 0,-1.9 -0.7,-2.85 -2.11,-2.85 -1.4,0 -2.11,0.955 -2.11,2.864 0,1.914 0.7,2.871 2.08,2.871 z m 5.68,0.841 v -7.424 h 1.34 v 1.395 c 0.66,-1.039 1.5,-1.559 2.53,-1.559 1,0 1.67,0.52 2.03,1.559 0.64,-1.044 1.47,-1.566 2.49,-1.566 0.66,0 1.17,0.193 1.53,0.578 0.36,0.385 0.54,0.924 0.54,1.617 V 39 h -1.36 v -5.188 c 0,-0.848 -0.33,-1.272 -1,-1.272 -0.7,0 -1.43,0.495 -2.2,1.483 V 39 h -1.35 v -5.188 c 0,-0.853 -0.34,-1.279 -1.03,-1.279 -0.68,0 -1.4,0.497 -2.18,1.49 V 39 Z m 13.07,2.7 V 31.576 h 1.34 v 1.395 c 0.55,-1.039 1.38,-1.559 2.48,-1.559 0.9,0 1.6,0.326 2.11,0.978 0.52,0.651 0.77,1.542 0.77,2.672 0,1.231 -0.29,2.223 -0.87,2.978 -0.58,0.754 -1.34,1.131 -2.29,1.131 -0.88,0 -1.61,-0.337 -2.2,-1.012 V 41.7 Z m 1.34,-4.471 c 0.7,0.62 1.36,0.93 1.99,0.93 1.29,0 1.94,-0.986 1.94,-2.96 0,-1.741 -0.58,-2.611 -1.73,-2.611 -0.75,0 -1.48,0.408 -2.2,1.224 z M -126.13,39 V 28.206 h 1.34 V 39 Z m 9.49,-0.239 c -0.91,0.273 -1.68,0.41 -2.32,0.41 -1.09,0 -1.99,-0.364 -2.68,-1.09 -0.69,-0.727 -1.03,-1.67 -1.03,-2.827 0,-1.126 0.3,-2.049 0.91,-2.769 0.61,-0.72 1.39,-1.08 2.33,-1.08 0.9,0 1.6,0.319 2.09,0.957 0.49,0.638 0.73,1.545 0.73,2.721 l -0.01,0.417 h -4.68 c 0.2,1.764 1.06,2.646 2.59,2.646 0.56,0 1.25,-0.151 2.07,-0.452 z m -4.6,-4.273 h 3.28 c 0,-1.381 -0.52,-2.071 -1.55,-2.071 -1.03,0 -1.61,0.69 -1.73,2.071 z m 9.18,4.683 c -0.68,0 -1.21,-0.196 -1.6,-0.588 -0.38,-0.392 -0.57,-0.937 -0.57,-1.634 v -4.361 h -0.93 v -1.012 h 0.93 v -1.347 l 1.35,-0.129 v 1.476 h 1.94 v 1.012 h -1.94 v 4.115 c 0,0.971 0.42,1.456 1.25,1.456 0.18,0 0.4,-0.029 0.65,-0.089 V 39 c -0.41,0.114 -0.77,0.171 -1.08,0.171 z m 8.45,-0.41 c -0.9,0.273 -1.67,0.41 -2.31,0.41 -1.1,0 -1.99,-0.364 -2.68,-1.09 -0.69,-0.727 -1.04,-1.67 -1.04,-2.827 0,-1.126 0.31,-2.049 0.92,-2.769 0.6,-0.72 1.38,-1.08 2.33,-1.08 0.9,0 1.59,0.319 2.08,0.957 0.49,0.638 0.74,1.545 0.74,2.721 l -0.01,0.417 h -4.68 c 0.19,1.764 1.06,2.646 2.59,2.646 0.56,0 1.25,-0.151 2.06,-0.452 z m -4.59,-4.273 h 3.27 c 0,-1.381 -0.51,-2.071 -1.54,-2.071 -1.04,0 -1.61,0.69 -1.73,2.071 z M -96.484,39 v -1.395 c -0.547,1.044 -1.372,1.566 -2.475,1.566 -0.893,0 -1.601,-0.326 -2.111,-0.978 -0.51,-0.651 -0.77,-1.542 -0.77,-2.672 0,-1.236 0.29,-2.229 0.87,-2.981 0.59,-0.752 1.35,-1.128 2.298,-1.128 0.88,0 1.609,0.337 2.188,1.012 v -4.218 h 1.353 V 39 Z m 0,-5.653 c -0.698,-0.616 -1.358,-0.923 -1.983,-0.923 -1.29,0 -1.933,0.986 -1.933,2.96 0,1.736 0.573,2.604 1.721,2.604 0.748,0 1.479,-0.408 2.195,-1.223 z M -92.246,39 v -1.347 h 1.347 V 39 Z m 0.171,-2.7 -0.171,-5.394 v -2.023 h 1.347 v 2.023 l -0.164,5.394 z" />
                              <path
                                 inkscape:connector-curvature="0"
                                 id="path1627"
                                 style="fill:#a5afcd;fill-opacity:1;fill-rule:nonzero;stroke:none"
                                 d="m 4,-76 c 0,6.627 -5.3726,12 -12,12 -6.627,0 -12,-5.373 -12,-12 0,-6.627 5.373,-12 12,-12 6.6274,0 12,5.373 12,12 z" />
                              <path
                                 inkscape:connector-curvature="0"
                                 id="path1629"
                                 style="fill:none;stroke:#000000;stroke-width:1;stroke-linecap:butt;stroke-linejoin:miter;stroke-miterlimit:10;stroke-dasharray:none;stroke-opacity:1"
                                 d="m 4,-76 c 0,6.627 -5.3726,12 -12,12 -6.627,0 -12,-5.373 -12,-12 0,-6.627 5.373,-12 12,-12 6.6274,0 12,5.373 12,12 z" />
                              <path
                                 inkscape:connector-curvature="0"
                                 id="path1631"
                                 style="fill:#42a0a8;fill-opacity:1;fill-rule:nonzero;stroke:none"
                                 d="m 120.35,-127.3 v -10.12 h 1.34 v 1.39 c 0.55,-1.04 1.38,-1.56 2.48,-1.56 0.9,0 1.6,0.33 2.11,0.98 0.52,0.65 0.77,1.54 0.77,2.67 0,1.23 -0.29,2.23 -0.87,2.98 -0.58,0.75 -1.34,1.13 -2.29,1.13 -0.88,0 -1.61,-0.34 -2.2,-1.01 v 3.54 z m 1.34,-4.47 c 0.7,0.62 1.36,0.93 1.99,0.93 1.29,0 1.94,-0.99 1.94,-2.96 0,-1.74 -0.58,-2.61 -1.73,-2.61 -0.75,0 -1.48,0.41 -2.2,1.22 z m 12.11,1.77 v -1.39 c -0.72,1.04 -1.58,1.56 -2.6,1.56 -0.65,0 -1.17,-0.2 -1.55,-0.61 -0.38,-0.41 -0.57,-0.96 -0.57,-1.65 v -5.33 h 1.34 v 4.89 c 0,0.56 0.08,0.95 0.25,1.19 0.16,0.23 0.43,0.35 0.81,0.35 0.82,0 1.59,-0.54 2.32,-1.62 v -4.81 h 1.35 v 7.42 z m 6.02,0.17 c -0.62,0 -1.37,-0.14 -2.25,-0.43 v -1.24 c 0.88,0.44 1.65,0.66 2.3,0.66 0.39,0 0.71,-0.11 0.96,-0.32 0.26,-0.2 0.39,-0.47 0.39,-0.78 0,-0.46 -0.36,-0.84 -1.08,-1.14 l -0.78,-0.34 c -1.16,-0.48 -1.75,-1.18 -1.75,-2.08 0,-0.65 0.23,-1.16 0.69,-1.53 0.46,-0.37 1.09,-0.56 1.88,-0.56 0.42,0 0.93,0.06 1.54,0.17 l 0.28,0.06 v 1.12 c -0.75,-0.22 -1.35,-0.34 -1.79,-0.34 -0.86,0 -1.3,0.32 -1.3,0.95 0,0.4 0.33,0.74 0.99,1.02 l 0.65,0.28 c 0.73,0.31 1.25,0.63 1.56,0.98 0.3,0.34 0.45,0.77 0.45,1.29 0,0.65 -0.25,1.18 -0.77,1.6 -0.51,0.42 -1.17,0.63 -1.97,0.63 z m 5.16,-0.17 v -10.79 h 1.35 v 4.76 c 0.71,-1.04 1.58,-1.56 2.61,-1.56 0.64,0 1.16,0.21 1.54,0.61 0.38,0.41 0.57,0.96 0.57,1.65 v 5.33 h -1.34 v -4.89 c 0,-0.56 -0.08,-0.95 -0.25,-1.18 -0.16,-0.24 -0.43,-0.36 -0.8,-0.36 -0.82,0 -1.6,0.54 -2.33,1.62 v 4.81 z m 11.06,0 v -9.04 h -3.59 v -1.08 h 8.61 v 1.08 h -3.59 v 9.04 z m 9.39,0.17 c -1.06,0 -1.91,-0.35 -2.54,-1.06 -0.64,-0.7 -0.95,-1.64 -0.95,-2.82 0,-1.2 0.31,-2.14 0.95,-2.84 0.64,-0.69 1.5,-1.04 2.59,-1.04 1.09,0 1.95,0.35 2.58,1.04 0.64,0.7 0.96,1.64 0.96,2.82 0,1.22 -0.32,2.17 -0.96,2.86 -0.64,0.69 -1.51,1.04 -2.63,1.04 z m 0.02,-1.01 c 1.43,0 2.14,-0.96 2.14,-2.89 0,-1.9 -0.7,-2.85 -2.11,-2.85 -1.41,0 -2.11,0.96 -2.11,2.87 0,1.91 0.69,2.87 2.08,2.87 z m 5.67,2.86 v -12.81 h 2.7 v 1.01 h -1.51 v 10.79 h 1.51 v 1.01 z m 4.52,-2.02 v -10.12 h 5.65 v 1.08 h -4.22 v 3.39 h 3.54 v 1.06 h -3.54 v 4.59 z m 7.5,0 v -10.12 h 5.65 v 1.08 h -4.21 v 3.24 h 3.53 v 1.06 h -3.53 v 3.67 h 4.51 v 1.07 z m 10,0 v -9.04 h -3.59 v -1.08 h 8.61 v 1.08 h -3.59 v 9.04 z m 10.78,0.25 c -1.58,0 -2.79,-0.46 -3.65,-1.38 -0.85,-0.92 -1.28,-2.23 -1.28,-3.92 0,-1.69 0.43,-3 1.31,-3.93 0.87,-0.93 2.1,-1.39 3.68,-1.39 0.91,0 1.97,0.15 3.19,0.44 v 1.35 c -1.39,-0.48 -2.45,-0.72 -3.21,-0.72 -1.09,0 -1.94,0.37 -2.55,1.12 -0.6,0.74 -0.9,1.79 -0.9,3.14 0,1.29 0.32,2.31 0.97,3.05 0.64,0.75 1.52,1.12 2.63,1.12 0.95,0 1.98,-0.29 3.07,-0.88 v 1.23 c -0.99,0.52 -2.08,0.77 -3.26,0.77 z m 5.35,-0.25 v -10.12 h 1.43 v 4.27 h 4.82 v -4.27 h 1.43 V -130 h -1.43 v -4.78 h -4.82 v 4.78 z m 8.98,2.36 v -1.01 h 7 v 1.01 z m 10.29,-2.11 c -0.68,0 -1.55,-0.15 -2.61,-0.44 v -1.42 c 1.14,0.53 2.08,0.79 2.81,0.79 0.57,0 1.02,-0.15 1.37,-0.44 0.34,-0.3 0.51,-0.69 0.51,-1.17 0,-0.4 -0.11,-0.74 -0.33,-1.02 -0.23,-0.27 -0.65,-0.58 -1.25,-0.93 l -0.7,-0.4 c -0.86,-0.49 -1.47,-0.95 -1.82,-1.39 -0.35,-0.43 -0.53,-0.94 -0.53,-1.52 0,-0.78 0.28,-1.42 0.85,-1.92 0.56,-0.51 1.28,-0.76 2.16,-0.76 0.78,0 1.6,0.13 2.46,0.39 v 1.31 c -1.06,-0.42 -1.86,-0.63 -2.38,-0.63 -0.5,0 -0.91,0.14 -1.23,0.4 -0.32,0.26 -0.49,0.6 -0.49,1 0,0.33 0.12,0.63 0.36,0.89 0.24,0.26 0.67,0.57 1.3,0.93 l 0.72,0.41 c 0.88,0.5 1.49,0.97 1.83,1.41 0.35,0.44 0.52,0.97 0.52,1.59 0,0.88 -0.32,1.59 -0.97,2.12 -0.65,0.54 -1.51,0.8 -2.58,0.8 z m 7.96,-0.25 v -9.04 h -3.59 v -1.08 h 8.62 v 1.08 h -3.59 v 9.04 z m 11.58,-3.87 -1.73,-4.36 -1.73,4.36 z m 1.51,3.87 -1.1,-2.8 h -4.28 l -1.12,2.8 h -1.33 l 4.01,-10.12 h 1.42 l 3.96,10.12 z m 10.62,-0.27 c -1.23,0.35 -2.29,0.52 -3.21,0.52 -1.6,0 -2.84,-0.46 -3.7,-1.37 -0.86,-0.92 -1.29,-2.23 -1.29,-3.94 0,-1.68 0.44,-2.98 1.31,-3.91 0.87,-0.93 2.09,-1.4 3.66,-1.4 1.03,0 2.1,0.15 3.22,0.46 v 1.32 c -1.4,-0.47 -2.47,-0.71 -3.21,-0.71 -1.09,0 -1.94,0.37 -2.55,1.12 -0.6,0.74 -0.9,1.79 -0.9,3.14 0,1.33 0.32,2.37 0.97,3.11 0.65,0.74 1.55,1.11 2.72,1.11 0.48,0 1,-0.08 1.55,-0.25 v -3.3 h 1.43 z m 2.52,0.27 v -10.12 h 5.65 v 1.08 h -4.22 v 3.24 h 3.54 v 1.06 h -3.54 v 3.67 h 4.51 v 1.07 z m 9.48,2.02 v -12.81 h -2.7 v 1.01 h 1.52 v 10.79 h -1.52 v 1.01 z m 2.89,-2.02 v -1.35 h 1.35 v 1.35 z m 0.17,-2.7 -0.17,-5.39 v -2.03 h 1.35 v 2.03 l -0.17,5.39 z" />
                              <path
                                 inkscape:connector-curvature="0"
                                 id="path1633"
                                 style="fill:#42a848;fill-opacity:1;fill-rule:nonzero;stroke:none"
                                 d="m -199.68,23.171 c -0.62,0 -1.37,-0.144 -2.25,-0.431 v -1.237 c 0.88,0.437 1.65,0.656 2.3,0.656 0.39,0 0.71,-0.105 0.96,-0.314 0.26,-0.21 0.39,-0.472 0.39,-0.786 0,-0.461 -0.36,-0.841 -1.08,-1.142 l -0.78,-0.335 c -1.16,-0.483 -1.75,-1.178 -1.75,-2.085 0,-0.647 0.23,-1.156 0.69,-1.528 0.46,-0.371 1.09,-0.557 1.88,-0.557 0.42,0 0.93,0.057 1.54,0.171 l 0.28,0.055 v 1.121 c -0.75,-0.224 -1.35,-0.335 -1.79,-0.335 -0.86,0 -1.3,0.314 -1.3,0.943 0,0.406 0.33,0.748 0.99,1.026 l 0.65,0.273 c 0.73,0.31 1.25,0.637 1.56,0.981 0.3,0.344 0.45,0.774 0.45,1.289 0,0.651 -0.25,1.187 -0.77,1.606 -0.51,0.419 -1.17,0.629 -1.97,0.629 z m 9.8,-0.171 v -1.395 c -0.71,1.044 -1.58,1.566 -2.6,1.566 -0.65,0 -1.16,-0.204 -1.54,-0.612 -0.39,-0.408 -0.58,-0.958 -0.58,-1.651 v -5.332 h 1.35 v 4.895 c 0,0.556 0.08,0.951 0.24,1.186 0.16,0.234 0.43,0.352 0.81,0.352 0.82,0 1.6,-0.54 2.32,-1.62 v -4.813 h 1.35 V 23 Z m 6.95,0.171 c -1,0 -1.83,-0.372 -2.49,-1.114 -0.67,-0.743 -1,-1.68 -1,-2.81 0,-1.208 0.33,-2.149 0.98,-2.823 0.66,-0.675 1.57,-1.012 2.74,-1.012 0.58,0 1.23,0.08 1.94,0.239 v 1.128 c -0.76,-0.223 -1.38,-0.335 -1.86,-0.335 -0.68,0 -1.24,0.259 -1.65,0.776 -0.42,0.517 -0.63,1.207 -0.63,2.068 0,0.834 0.22,1.509 0.64,2.024 0.43,0.514 0.99,0.772 1.69,0.772 0.61,0 1.24,-0.157 1.9,-0.472 v 1.162 c -0.87,0.265 -1.63,0.397 -2.26,0.397 z m 7.17,0 c -1,0 -1.83,-0.372 -2.49,-1.114 -0.66,-0.743 -1,-1.68 -1,-2.81 0,-1.208 0.33,-2.149 0.99,-2.823 0.65,-0.675 1.56,-1.012 2.73,-1.012 0.58,0 1.23,0.08 1.95,0.239 v 1.128 c -0.77,-0.223 -1.39,-0.335 -1.86,-0.335 -0.69,0 -1.25,0.259 -1.66,0.776 -0.42,0.517 -0.63,1.207 -0.63,2.068 0,0.834 0.22,1.509 0.65,2.024 0.42,0.514 0.98,0.772 1.68,0.772 0.61,0 1.25,-0.157 1.9,-0.472 v 1.162 c -0.87,0.265 -1.63,0.397 -2.26,0.397 z m 4.27,1.852 V 12.206 h 2.7 v 1.012 h -1.51 v 10.794 h 1.51 v 1.011 z m 7.6,-1.77 c -1.05,0 -1.89,-0.491 -2.53,-1.473 -0.65,-0.982 -0.97,-2.264 -0.97,-3.845 0,-1.595 0.32,-2.878 0.97,-3.849 0.65,-0.971 1.51,-1.456 2.57,-1.456 1.06,0 1.92,0.485 2.57,1.456 0.65,0.971 0.97,2.247 0.97,3.828 0,1.622 -0.32,2.918 -0.97,3.886 -0.65,0.969 -1.52,1.453 -2.61,1.453 z m 0.01,-1.012 c 1.43,0 2.14,-1.449 2.14,-4.347 0,-2.835 -0.7,-4.252 -2.11,-4.252 -1.4,0 -2.11,1.431 -2.11,4.293 0,2.871 0.7,4.306 2.08,4.306 z m 7.66,2.782 V 12.206 h -2.7 v 1.012 h 1.52 v 10.794 h -1.52 v 1.011 z m 10.96,-2.023 -8.1,-4.047 8.1,-4.047 v 1.128 l -5.83,2.919 5.83,2.912 z m 3.03,-2.276 v -1.012 h 8.1 v 1.012 z m 0,-2.53 v -1.011 h 8.1 v 1.011 z m 14,5.059 c -1.04,0 -1.89,-0.491 -2.53,-1.473 -0.65,-0.982 -0.97,-2.264 -0.97,-3.845 0,-1.595 0.33,-2.878 0.98,-3.849 0.65,-0.971 1.5,-1.456 2.56,-1.456 1.06,0 1.92,0.485 2.57,1.456 0.65,0.971 0.97,2.247 0.97,3.828 0,1.622 -0.32,2.918 -0.97,3.886 -0.65,0.969 -1.52,1.453 -2.61,1.453 z m 0.02,-1.012 c 1.42,0 2.13,-1.449 2.13,-4.347 0,-2.835 -0.7,-4.252 -2.11,-4.252 -1.4,0 -2.1,1.431 -2.1,4.293 0,2.871 0.69,4.306 2.08,4.306 z m 16.13,0.759 -0.5,-0.602 c -0.75,0.57 -1.62,0.855 -2.62,0.855 -1.06,0 -1.93,-0.307 -2.61,-0.92 -0.68,-0.612 -1.02,-1.393 -1.02,-2.341 0,-1.558 0.82,-2.616 2.47,-3.172 -0.46,-0.825 -0.68,-1.51 -0.68,-2.057 0,-0.597 0.23,-1.102 0.71,-1.514 0.48,-0.413 1.05,-0.619 1.73,-0.619 0.66,0 1.2,0.192 1.63,0.578 0.42,0.385 0.64,0.873 0.64,1.466 0,1.012 -0.75,1.891 -2.23,2.638 0.68,1.204 1.47,2.327 2.38,3.371 0.41,-0.602 0.62,-1.454 0.62,-2.557 l -0.01,-0.506 h 1.34 c 0,1.495 -0.45,2.785 -1.34,3.869 0.41,0.52 0.88,1.023 1.4,1.511 z m -1.09,-1.381 c -0.96,-1.176 -1.87,-2.509 -2.73,-3.999 -1.06,0.419 -1.58,1.101 -1.58,2.044 0,0.716 0.24,1.324 0.73,1.825 0.48,0.502 1.07,0.752 1.77,0.752 0.63,0 1.24,-0.207 1.81,-0.622 z m -1.88,-5.161 c 0.97,-0.442 1.45,-1.03 1.45,-1.764 0,-0.701 -0.35,-1.052 -1.05,-1.052 -0.7,0 -1.04,0.353 -1.04,1.059 0,0.465 0.21,1.051 0.64,1.757 z m 12.73,6.542 -0.5,-0.602 c -0.75,0.57 -1.62,0.855 -2.62,0.855 -1.05,0 -1.92,-0.307 -2.61,-0.92 -0.68,-0.612 -1.02,-1.393 -1.02,-2.341 0,-1.558 0.83,-2.616 2.47,-3.172 -0.46,-0.825 -0.68,-1.51 -0.68,-2.057 0,-0.597 0.23,-1.102 0.71,-1.514 0.48,-0.413 1.06,-0.619 1.73,-0.619 0.66,0 1.2,0.192 1.63,0.578 0.42,0.385 0.64,0.873 0.64,1.466 0,1.012 -0.74,1.891 -2.22,2.638 0.67,1.204 1.46,2.327 2.37,3.371 0.41,-0.602 0.62,-1.454 0.62,-2.557 l -0.01,-0.506 h 1.34 c 0,1.495 -0.44,2.785 -1.34,3.869 0.41,0.52 0.88,1.023 1.4,1.511 z m -1.09,-1.381 c -0.95,-1.176 -1.87,-2.509 -2.73,-3.999 -1.05,0.419 -1.58,1.101 -1.58,2.044 0,0.716 0.24,1.324 0.73,1.825 0.48,0.502 1.07,0.752 1.77,0.752 0.63,0 1.24,-0.207 1.81,-0.622 z m -1.88,-5.161 c 0.97,-0.442 1.45,-1.03 1.45,-1.764 0,-0.701 -0.35,-1.052 -1.05,-1.052 -0.69,0 -1.04,0.353 -1.04,1.059 0,0.465 0.21,1.051 0.64,1.757 z m 13.224,6.713 c -0.616,0 -1.363,-0.144 -2.243,-0.431 v -1.237 c 0.88,0.437 1.646,0.656 2.297,0.656 0.388,0 0.709,-0.105 0.964,-0.314 0.255,-0.21 0.383,-0.472 0.383,-0.786 0,-0.461 -0.358,-0.841 -1.073,-1.142 l -0.786,-0.335 c -1.163,-0.483 -1.744,-1.178 -1.744,-2.085 0,-0.647 0.229,-1.156 0.687,-1.528 0.458,-0.371 1.086,-0.557 1.884,-0.557 0.414,0 0.927,0.057 1.538,0.171 l 0.28,0.055 v 1.121 c -0.752,-0.224 -1.349,-0.335 -1.791,-0.335 -0.866,0 -1.299,0.314 -1.299,0.943 0,0.406 0.328,0.748 0.985,1.026 l 0.649,0.273 c 0.734,0.31 1.253,0.637 1.559,0.981 0.305,0.344 0.458,0.774 0.458,1.289 0,0.651 -0.258,1.187 -0.773,1.606 -0.515,0.419 -1.173,0.629 -1.975,0.629 z M -82.257,23 v -1.395 c -0.715,1.044 -1.583,1.566 -2.604,1.566 -0.647,0 -1.162,-0.204 -1.545,-0.612 -0.383,-0.408 -0.574,-0.958 -0.574,-1.651 v -5.332 h 1.346 v 4.895 c 0,0.556 0.081,0.951 0.243,1.186 0.162,0.234 0.432,0.352 0.81,0.352 0.82,0 1.595,-0.54 2.324,-1.62 v -4.813 h 1.347 V 23 Z m 6.945,0.171 c -1.002,0 -1.834,-0.372 -2.495,-1.114 -0.66,-0.743 -0.991,-1.68 -0.991,-2.81 0,-1.208 0.327,-2.149 0.981,-2.823 0.654,-0.675 1.567,-1.012 2.738,-1.012 0.579,0 1.226,0.08 1.941,0.239 v 1.128 c -0.761,-0.223 -1.381,-0.335 -1.859,-0.335 -0.688,0 -1.241,0.259 -1.658,0.776 -0.417,0.517 -0.625,1.207 -0.625,2.068 0,0.834 0.214,1.509 0.642,2.024 0.429,0.514 0.989,0.772 1.682,0.772 0.615,0 1.249,-0.157 1.9,-0.472 v 1.162 c -0.87,0.265 -1.622,0.397 -2.256,0.397 z m 7.171,0 c -1.002,0 -1.834,-0.372 -2.495,-1.114 -0.661,-0.743 -0.991,-1.68 -0.991,-2.81 0,-1.208 0.327,-2.149 0.981,-2.823 0.654,-0.675 1.567,-1.012 2.738,-1.012 0.579,0 1.226,0.08 1.941,0.239 v 1.128 c -0.761,-0.223 -1.381,-0.335 -1.859,-0.335 -0.688,0 -1.241,0.259 -1.658,0.776 -0.417,0.517 -0.625,1.207 -0.625,2.068 0,0.834 0.214,1.509 0.642,2.024 0.429,0.514 0.989,0.772 1.682,0.772 0.615,0 1.249,-0.157 1.9,-0.472 v 1.162 c -0.87,0.265 -1.622,0.397 -2.256,0.397 z m 4.273,1.852 V 12.206 h 2.7 v 1.012 h -1.518 v 10.794 h 1.518 v 1.011 z M -58.557,23 v -1.012 h 2.024 v -7.984 l -2.024,0.506 v -1.039 l 3.377,-0.841 v 9.358 h 2.024 V 23 Z m 9.953,2.023 V 12.206 h -2.7 v 1.012 h 1.518 v 10.794 h -1.518 v 1.011 z M -37.646,23 l -8.093,-4.047 8.093,-4.047 v 1.128 l -5.831,2.919 5.831,2.912 z m 3.036,-2.276 v -1.012 h 8.093 v 1.012 z m 0,-2.53 v -1.011 h 8.093 v 1.011 z m 14,5.059 c -1.044,0 -1.888,-0.491 -2.533,-1.473 -0.645,-0.982 -0.967,-2.264 -0.967,-3.845 0,-1.595 0.324,-2.878 0.974,-3.849 0.649,-0.971 1.505,-1.456 2.567,-1.456 1.062,0 1.917,0.485 2.567,1.456 0.649,0.971 0.974,2.247 0.974,3.828 0,1.622 -0.325,2.918 -0.974,3.886 -0.65,0.969 -1.519,1.453 -2.608,1.453 z m 0.013,-1.012 c 1.427,0 2.14,-1.449 2.14,-4.347 0,-2.835 -0.704,-4.252 -2.112,-4.252 -1.404,0 -2.106,1.431 -2.106,4.293 0,2.871 0.693,4.306 2.078,4.306 z" />
                              <path
                                 inkscape:connector-curvature="0"
                                 id="path1635"
                                 style="fill:#8c3863;fill-opacity:1;fill-rule:nonzero;stroke:none"
                                 d="M -40.694,65 V 54.883 h 5.653 v 1.073 h -4.218 v 3.247 h 3.534 v 1.06 h -3.534 v 3.664 h 4.512 V 65 Z m 7.588,0 V 54.883 h 1.408 l 5.093,7.813 v -7.813 h 1.23 V 65 h -1.401 l -5.1,-7.813 V 65 Z m 10.342,0 V 54.883 h 3.364 c 1.002,0 1.812,0.111 2.43,0.335 0.617,0.223 1.152,0.601 1.603,1.135 0.715,0.847 1.073,1.964 1.073,3.349 0,1.682 -0.444,2.985 -1.333,3.91 -0.889,0.925 -2.14,1.388 -3.753,1.388 z m 1.436,-1.073 h 1.839 c 1.312,0 2.242,-0.353 2.789,-1.06 0.588,-0.752 0.882,-1.761 0.882,-3.028 0,-1.19 -0.29,-2.124 -0.869,-2.803 -0.35,-0.415 -0.77,-0.698 -1.257,-0.851 -0.488,-0.153 -1.222,-0.229 -2.202,-0.229 h -1.182 z" />
                              <path
                                 inkscape:connector-curvature="0"
                                 id="path1637"
                                 style="fill:#4242a8;fill-opacity:1;fill-rule:nonzero;stroke:none"
                                 d="m -142.63,-85.532 0.16,-1.169 c 0.78,0.369 1.55,0.554 2.3,0.554 1.52,0 2.28,-0.805 2.28,-2.414 v -1.168 c -0.5,1.039 -1.31,1.558 -2.45,1.558 -0.88,0 -1.59,-0.323 -2.12,-0.971 -0.52,-0.647 -0.78,-1.519 -0.78,-2.618 0,-1.13 0.3,-2.051 0.89,-2.761 0.6,-0.711 1.37,-1.067 2.32,-1.067 0.83,0 1.54,0.337 2.14,1.012 v -0.848 h 1.35 v 5.401 c 0,1.162 -0.06,2.022 -0.18,2.58 -0.12,0.558 -0.34,1.015 -0.68,1.371 -0.58,0.624 -1.5,0.936 -2.74,0.936 -0.86,0 -1.69,-0.132 -2.49,-0.396 z m 4.74,-5.038 v -3.083 c -0.59,-0.616 -1.24,-0.923 -1.93,-0.923 -0.62,0 -1.11,0.248 -1.46,0.745 -0.35,0.497 -0.53,1.178 -0.53,2.044 0,1.627 0.58,2.44 1.72,2.44 0.78,0 1.51,-0.408 2.2,-1.223 z m 9.41,2.331 c -0.9,0.273 -1.68,0.41 -2.32,0.41 -1.09,0 -1.99,-0.364 -2.68,-1.09 -0.69,-0.727 -1.03,-1.67 -1.03,-2.827 0,-1.126 0.3,-2.049 0.91,-2.769 0.61,-0.72 1.39,-1.08 2.34,-1.08 0.89,0 1.59,0.319 2.08,0.957 0.49,0.638 0.73,1.545 0.73,2.721 l -0.01,0.417 h -4.68 c 0.2,1.764 1.06,2.646 2.59,2.646 0.56,0 1.25,-0.151 2.07,-0.452 z m -4.6,-4.273 h 3.28 c 0,-1.381 -0.52,-2.071 -1.55,-2.071 -1.03,0 -1.61,0.69 -1.73,2.071 z m 9.18,4.683 c -0.68,0 -1.21,-0.196 -1.6,-0.588 -0.38,-0.392 -0.57,-0.937 -0.57,-1.634 v -4.361 H -127 v -1.012 h 0.93 v -1.347 l 1.35,-0.129 v 1.476 h 1.94 v 1.012 h -1.94 v 4.115 c 0,0.971 0.42,1.456 1.26,1.456 0.17,0 0.39,-0.029 0.64,-0.089 V -88 c -0.41,0.114 -0.77,0.171 -1.08,0.171 z m 1.67,2.187 v -1.011 h 7 v 1.011 z m 8.34,-2.358 v -7.424 h 1.35 V -88 Z m 0,-8.771 v -1.346 h 1.35 v 1.346 z m 4.05,8.771 v -7.424 h 1.35 v 1.395 c 0.71,-1.039 1.58,-1.559 2.61,-1.559 0.64,0 1.15,0.204 1.54,0.612 0.38,0.408 0.57,0.956 0.57,1.644 V -88 h -1.35 v -4.895 c 0,-0.551 -0.08,-0.944 -0.24,-1.179 -0.16,-0.234 -0.43,-0.352 -0.8,-0.352 -0.83,0 -1.6,0.54 -2.33,1.62 V -88 Z m 8.69,0 v -7.424 h 1.344 V -88 Z m 0,-8.771 v -1.346 h 1.344 v 1.346 z m 6.273,8.942 c -0.684,0 -1.217,-0.196 -1.6,-0.588 -0.382,-0.392 -0.574,-0.937 -0.574,-1.634 v -4.361 h -0.929 v -1.012 h 0.929 v -1.347 l 1.347,-0.129 v 1.476 h 1.941 v 1.012 h -1.941 v 4.115 c 0,0.971 0.419,1.456 1.258,1.456 0.177,0 0.394,-0.029 0.649,-0.089 V -88 c -0.415,0.114 -0.775,0.171 -1.08,0.171 z m 5.708,0.923 v 0.929 c -0.984,-0.669 -1.765,-1.58 -2.341,-2.731 -0.577,-1.15 -0.865,-2.377 -0.865,-3.681 0,-1.299 0.288,-2.523 0.865,-3.674 0.576,-1.151 1.357,-2.061 2.341,-2.731 v 0.93 c -0.67,0.729 -1.147,1.513 -1.432,2.351 -0.285,0.839 -0.427,1.88 -0.427,3.124 0,1.249 0.142,2.293 0.427,3.131 0.285,0.839 0.762,1.623 1.432,2.352 z m 3.821,-0.923 c -0.615,0 -1.362,-0.144 -2.242,-0.431 v -1.237 c 0.88,0.437 1.645,0.656 2.297,0.656 0.387,0 0.709,-0.105 0.964,-0.314 0.255,-0.21 0.383,-0.472 0.383,-0.786 0,-0.461 -0.358,-0.841 -1.074,-1.142 l -0.786,-0.335 c -1.162,-0.483 -1.743,-1.178 -1.743,-2.085 0,-0.647 0.229,-1.156 0.687,-1.528 0.458,-0.371 1.086,-0.557 1.883,-0.557 0.415,0 0.928,0.057 1.539,0.171 l 0.28,0.055 v 1.121 c -0.752,-0.224 -1.349,-0.335 -1.791,-0.335 -0.866,0 -1.299,0.314 -1.299,0.943 0,0.406 0.328,0.748 0.984,1.026 l 0.65,0.273 c 0.734,0.31 1.253,0.637 1.558,0.981 0.306,0.344 0.458,0.774 0.458,1.289 0,0.651 -0.257,1.187 -0.772,1.606 -0.515,0.419 -1.174,0.629 -1.976,0.629 z m 9.81,-0.171 v -1.395 c -0.716,1.044 -1.584,1.566 -2.605,1.566 -0.647,0 -1.162,-0.204 -1.545,-0.612 -0.382,-0.408 -0.574,-0.958 -0.574,-1.651 v -5.332 h 1.347 v 4.895 c 0,0.556 0.081,0.951 0.243,1.186 0.161,0.234 0.431,0.352 0.81,0.352 0.82,0 1.595,-0.54 2.324,-1.62 v -4.813 h 1.347 V -88 Z m 6.945,0.171 c -1.002,0 -1.834,-0.372 -2.495,-1.114 -0.661,-0.743 -0.991,-1.68 -0.991,-2.81 0,-1.208 0.327,-2.149 0.981,-2.823 0.654,-0.675 1.566,-1.012 2.738,-1.012 0.578,0 1.226,0.08 1.941,0.239 v 1.128 c -0.761,-0.223 -1.381,-0.335 -1.859,-0.335 -0.688,0 -1.241,0.259 -1.658,0.776 -0.417,0.517 -0.626,1.207 -0.626,2.068 0,0.834 0.215,1.509 0.643,2.024 0.428,0.514 0.989,0.772 1.682,0.772 0.615,0 1.248,-0.157 1.9,-0.472 v 1.162 c -0.87,0.265 -1.622,0.397 -2.256,0.397 z m 7.171,0 c -1.002,0 -1.834,-0.372 -2.495,-1.114 -0.661,-0.743 -0.991,-1.68 -0.991,-2.81 0,-1.208 0.327,-2.149 0.981,-2.823 0.654,-0.675 1.566,-1.012 2.738,-1.012 0.578,0 1.225,0.08 1.941,0.239 v 1.128 c -0.761,-0.223 -1.381,-0.335 -1.859,-0.335 -0.689,0 -1.241,0.259 -1.658,0.776 -0.417,0.517 -0.626,1.207 -0.626,2.068 0,0.834 0.215,1.509 0.643,2.024 0.428,0.514 0.989,0.772 1.682,0.772 0.615,0 1.248,-0.157 1.9,-0.472 v 1.162 c -0.87,0.265 -1.622,0.397 -2.256,0.397 z m 3.432,0.923 v 0.929 c 0.984,-0.669 1.765,-1.58 2.341,-2.731 0.577,-1.15 0.865,-2.377 0.865,-3.681 0,-1.299 -0.288,-2.523 -0.865,-3.674 -0.576,-1.151 -1.357,-2.061 -2.341,-2.731 v 0.93 c 0.67,0.729 1.147,1.513 1.432,2.351 0.285,0.839 0.427,1.88 0.427,3.124 0,1.249 -0.142,2.293 -0.427,3.131 -0.285,0.839 -0.762,1.623 -1.432,2.352 z" />
                              <path
                                 inkscape:connector-curvature="0"
                                 id="path1639"
                                 style="fill:#42a848;fill-opacity:1;fill-rule:nonzero;stroke:none"
                                 d="m 46.315,-129.83 c -0.615,0 -1.362,-0.14 -2.242,-0.43 v -1.24 c 0.88,0.44 1.645,0.66 2.297,0.66 0.387,0 0.709,-0.11 0.964,-0.32 0.255,-0.2 0.383,-0.47 0.383,-0.78 0,-0.46 -0.358,-0.84 -1.073,-1.14 l -0.787,-0.34 c -1.162,-0.48 -1.743,-1.18 -1.743,-2.08 0,-0.65 0.229,-1.16 0.687,-1.53 0.458,-0.37 1.086,-0.56 1.884,-0.56 0.414,0 0.927,0.06 1.538,0.17 l 0.28,0.06 v 1.12 c -0.752,-0.22 -1.349,-0.34 -1.791,-0.34 -0.866,0 -1.299,0.32 -1.299,0.95 0,0.4 0.328,0.74 0.984,1.02 l 0.65,0.28 c 0.734,0.31 1.253,0.63 1.558,0.98 0.306,0.34 0.458,0.77 0.458,1.29 0,0.65 -0.257,1.18 -0.772,1.6 -0.515,0.42 -1.173,0.63 -1.976,0.63 z m 9.81,-0.17 v -1.39 c -0.715,1.04 -1.584,1.56 -2.604,1.56 -0.648,0 -1.163,-0.2 -1.545,-0.61 -0.383,-0.41 -0.575,-0.96 -0.575,-1.65 v -5.33 h 1.347 v 4.89 c 0,0.56 0.081,0.95 0.243,1.19 0.162,0.23 0.432,0.35 0.81,0.35 0.82,0 1.595,-0.54 2.324,-1.62 v -4.81 h 1.347 v 7.42 z m 6.945,0.17 c -1.002,0 -1.834,-0.37 -2.495,-1.11 -0.661,-0.75 -0.991,-1.68 -0.991,-2.81 0,-1.21 0.327,-2.15 0.981,-2.83 0.654,-0.67 1.567,-1.01 2.738,-1.01 0.579,0 1.226,0.08 1.941,0.24 v 1.13 c -0.761,-0.22 -1.381,-0.34 -1.859,-0.34 -0.688,0 -1.241,0.26 -1.658,0.78 -0.417,0.52 -0.625,1.21 -0.625,2.07 0,0.83 0.214,1.51 0.642,2.02 0.429,0.52 0.989,0.77 1.682,0.77 0.615,0 1.248,-0.15 1.9,-0.47 v 1.16 c -0.87,0.27 -1.622,0.4 -2.256,0.4 z m 7.171,0 c -1.002,0 -1.834,-0.37 -2.495,-1.11 -0.661,-0.75 -0.991,-1.68 -0.991,-2.81 0,-1.21 0.327,-2.15 0.981,-2.83 0.654,-0.67 1.566,-1.01 2.738,-1.01 0.578,0 1.226,0.08 1.941,0.24 v 1.13 c -0.761,-0.22 -1.381,-0.34 -1.859,-0.34 -0.688,0 -1.241,0.26 -1.658,0.78 -0.417,0.52 -0.626,1.21 -0.626,2.07 0,0.83 0.215,1.51 0.643,2.02 0.428,0.52 0.989,0.77 1.682,0.77 0.615,0 1.248,-0.15 1.9,-0.47 v 1.16 c -0.87,0.27 -1.622,0.4 -2.256,0.4 z m 4.273,1.85 v -12.81 h 2.7 v 1.01 h -1.518 v 10.79 h 1.518 v 1.01 z m 7.594,-1.77 c -1.043,0 -1.887,-0.49 -2.532,-1.47 -0.645,-0.98 -0.968,-2.26 -0.968,-3.85 0,-1.59 0.325,-2.87 0.975,-3.84 0.649,-0.97 1.505,-1.46 2.566,-1.46 1.062,0 1.918,0.49 2.567,1.46 0.65,0.97 0.974,2.24 0.974,3.82 0,1.63 -0.324,2.92 -0.974,3.89 -0.649,0.97 -1.518,1.45 -2.608,1.45 z m 0.014,-1.01 c 1.427,0 2.14,-1.45 2.14,-4.35 0,-2.83 -0.704,-4.25 -2.113,-4.25 -1.403,0 -2.105,1.43 -2.105,4.29 0,2.88 0.693,4.31 2.078,4.31 z m 7.656,2.78 v -12.81 h -2.7 v 1.01 h 1.518 v 10.79 h -1.518 v 1.01 z m 2.865,-2.02 8.097,-4.05 -8.097,-4.04 v 1.12 l 5.831,2.92 -5.831,2.92 z m 13.997,0.25 c -1.04,0 -1.89,-0.49 -2.53,-1.47 -0.64,-0.98 -0.97,-2.26 -0.97,-3.85 0,-1.59 0.33,-2.87 0.98,-3.84 0.65,-0.97 1.5,-1.46 2.56,-1.46 1.07,0 1.92,0.49 2.57,1.46 0.65,0.97 0.97,2.24 0.97,3.82 0,1.63 -0.32,2.92 -0.97,3.89 -0.65,0.97 -1.52,1.45 -2.61,1.45 z m 0.02,-1.01 c 1.42,0 2.14,-1.45 2.14,-4.35 0,-2.83 -0.71,-4.25 -2.12,-4.25 -1.4,0 -2.1,1.43 -2.1,4.29 0,2.88 0.69,4.31 2.08,4.31 z" />
                              <path
                                 inkscape:connector-curvature="0"
                                 id="path1641"
                                 style="fill:#42a848;fill-opacity:1;fill-rule:nonzero;stroke:none"
                                 d="m 37.315,-36.829 c -0.615,0 -1.362,-0.144 -2.242,-0.431 v -1.237 c 0.88,0.437 1.645,0.656 2.297,0.656 0.387,0 0.709,-0.105 0.964,-0.314 0.255,-0.21 0.383,-0.472 0.383,-0.786 0,-0.461 -0.358,-0.841 -1.073,-1.142 l -0.787,-0.335 c -1.162,-0.483 -1.743,-1.178 -1.743,-2.085 0,-0.647 0.229,-1.156 0.687,-1.528 0.458,-0.371 1.086,-0.557 1.884,-0.557 0.414,0 0.927,0.057 1.538,0.171 l 0.28,0.055 v 1.121 c -0.752,-0.224 -1.349,-0.335 -1.791,-0.335 -0.866,0 -1.299,0.314 -1.299,0.943 0,0.406 0.328,0.748 0.984,1.026 l 0.65,0.273 c 0.734,0.31 1.253,0.637 1.558,0.981 0.306,0.344 0.458,0.774 0.458,1.289 0,0.651 -0.257,1.187 -0.772,1.606 -0.515,0.419 -1.173,0.629 -1.976,0.629 z M 47.125,-37 v -1.395 c -0.715,1.044 -1.584,1.566 -2.604,1.566 -0.648,0 -1.163,-0.204 -1.545,-0.612 -0.383,-0.408 -0.575,-0.958 -0.575,-1.651 v -5.332 h 1.347 v 4.895 c 0,0.556 0.081,0.951 0.243,1.186 0.162,0.234 0.432,0.352 0.81,0.352 0.82,0 1.595,-0.54 2.324,-1.62 v -4.813 h 1.347 V -37 Z m 6.945,0.171 c -1.002,0 -1.834,-0.372 -2.495,-1.114 -0.661,-0.743 -0.991,-1.68 -0.991,-2.81 0,-1.208 0.327,-2.149 0.981,-2.823 0.654,-0.675 1.567,-1.012 2.738,-1.012 0.579,0 1.226,0.08 1.941,0.239 v 1.128 c -0.761,-0.223 -1.381,-0.335 -1.859,-0.335 -0.688,0 -1.241,0.259 -1.658,0.776 -0.417,0.517 -0.625,1.207 -0.625,2.068 0,0.834 0.214,1.509 0.642,2.024 0.429,0.514 0.989,0.772 1.682,0.772 0.615,0 1.248,-0.157 1.9,-0.472 v 1.162 c -0.87,0.265 -1.622,0.397 -2.256,0.397 z m 7.171,0 c -1.002,0 -1.834,-0.372 -2.495,-1.114 -0.661,-0.743 -0.991,-1.68 -0.991,-2.81 0,-1.208 0.327,-2.149 0.981,-2.823 0.654,-0.675 1.566,-1.012 2.738,-1.012 0.578,0 1.226,0.08 1.941,0.239 v 1.128 c -0.761,-0.223 -1.381,-0.335 -1.859,-0.335 -0.688,0 -1.241,0.259 -1.658,0.776 -0.417,0.517 -0.626,1.207 -0.626,2.068 0,0.834 0.215,1.509 0.643,2.024 0.428,0.514 0.989,0.772 1.682,0.772 0.615,0 1.248,-0.157 1.9,-0.472 v 1.162 c -0.87,0.265 -1.622,0.397 -2.256,0.397 z m 4.273,1.852 v -12.817 h 2.7 v 1.012 h -1.518 v 10.794 h 1.518 v 1.011 z M 70.825,-37 v -1.012 h 2.024 v -7.984 l -2.024,0.506 v -1.039 l 3.377,-0.841 v 9.358 h 2.024 V -37 Z m 9.953,2.023 v -12.817 h -2.7 v 1.012 h 1.518 v 10.794 h -1.518 v 1.011 z m 2.865,-2.023 8.093,-4.047 -8.093,-4.047 v 1.128 l 5.831,2.919 -5.831,2.912 z m 14,0.253 c -1.044,0 -1.888,-0.491 -2.533,-1.473 -0.645,-0.982 -0.967,-2.264 -0.967,-3.845 0,-1.595 0.324,-2.878 0.974,-3.849 0.649,-0.971 1.505,-1.456 2.567,-1.456 1.061,0 1.917,0.485 2.566,1.456 0.65,0.971 0.97,2.247 0.97,3.828 0,1.622 -0.32,2.918 -0.97,3.886 -0.649,0.969 -1.518,1.453 -2.607,1.453 z m 0.013,-1.012 c 1.427,0 2.14,-1.449 2.14,-4.347 0,-2.835 -0.704,-4.252 -2.112,-4.252 -1.404,0 -2.106,1.431 -2.106,4.293 0,2.871 0.693,4.306 2.078,4.306 z" />
                              <path
                                 inkscape:connector-curvature="0"
                                 id="path1643"
                                 style="fill:none;stroke:#000000;stroke-width:1;stroke-linecap:round;stroke-linejoin:bevel;stroke-miterlimit:10;stroke-dasharray:none;stroke-opacity:1"
                                 d="M -191,-76 H -21" />
                              <path
                                 inkscape:connector-curvature="0"
                                 id="path1645"
                                 style="fill:none;stroke:#000000;stroke-width:1;stroke-linecap:round;stroke-linejoin:bevel;stroke-miterlimit:10;stroke-dasharray:none;stroke-opacity:1"
                                 d="M -30.659,-73.412 -21,-76 l -9.659,-2.588" />
                              <path
                                 inkscape:connector-curvature="0"
                                 id="path1647"
                                 style="fill:none;stroke:#000000;stroke-width:1;stroke-linecap:round;stroke-linejoin:bevel;stroke-miterlimit:10;stroke-dasharray:none;stroke-opacity:1"
                                 d="M 4.8337,-78.073 143.13,-100.41 c 6.58,-1.06 13.17,-1.11 19.77,-0.15 l 156.24,22.691" />
                              <path
                                 inkscape:connector-curvature="0"
                                 id="path1649"
                                 style="fill:none;stroke:#000000;stroke-width:1;stroke-linecap:round;stroke-linejoin:bevel;stroke-miterlimit:10;stroke-dasharray:none;stroke-opacity:1"
                                 d="m 309.2,-76.696 9.94,-1.173 -9.19,-3.949" />
                              <path
                                 inkscape:connector-curvature="0"
                                 id="path1651"
                                 style="fill:none;stroke:#000000;stroke-width:1;stroke-linecap:round;stroke-linejoin:bevel;stroke-miterlimit:10;stroke-dasharray:none;stroke-opacity:1"
                                 d="M 4.8461,-74.005 143.12,-52.534 c 6.59,1.023 13.18,1.073 19.78,0.151 l 156.22,-21.819" />
                              <path
                                 inkscape:connector-curvature="0"
                                 id="path1653"
                                 style="fill:none;stroke:#000000;stroke-width:1;stroke-linecap:round;stroke-linejoin:bevel;stroke-miterlimit:10;stroke-dasharray:none;stroke-opacity:1"
                                 d="m 309.92,-70.302 9.2,-3.9 -9.92,-1.227" />
                              <path
                                 inkscape:connector-curvature="0"
                                 id="path1655"
                                 style="fill:none;stroke:#000000;stroke-width:1;stroke-linecap:round;stroke-linejoin:bevel;stroke-miterlimit:10;stroke-dasharray:none;stroke-opacity:1"
                                 d="m 332,-89 v -104 c 0,-6.67 -3.33,-10 -10,-10 H 2 c -6.6667,0 -10,3.33 -10,10 v 104" />
                              <path
                                 inkscape:connector-curvature="0"
                                 id="path1657"
                                 style="fill:none;stroke:#000000;stroke-width:1;stroke-linecap:round;stroke-linejoin:bevel;stroke-miterlimit:10;stroke-dasharray:none;stroke-opacity:1"
                                 d="M -10.588,-98.659 -8,-89 l 2.5882,-9.659" />
                              <path
                                 inkscape:connector-curvature="0"
                                 id="path1659"
                                 style="fill:none;stroke:#000000;stroke-width:1;stroke-linecap:round;stroke-linejoin:bevel;stroke-miterlimit:10;stroke-dasharray:none;stroke-opacity:1"
                                 d="M -8,-63 V 72" />
                              <path
                                 inkscape:connector-curvature="0"
                                 id="path1661"
                                 style="fill:none;stroke:#000000;stroke-width:1;stroke-linecap:round;stroke-linejoin:bevel;stroke-miterlimit:10;stroke-dasharray:none;stroke-opacity:1"
                                 d="M -10.588,62.341 -8,72 -5.4118,62.341" />
                              <g
                                 transform="matrix(0.66667,0,0,0.66667,-217,-230)"
                                 id="g1663" />
                            </g>
                          </g>
                        </g>
                      </g>
                    </g>
                  </g>
                </g>
              </g>
            </g>
          </g>
        </g>
      </g>
    </g>
  </g>
</svg>
