<?xml version="1.0" encoding="UTF-8" standalone="no"?>
<!-- Created with Inkscape (http://www.inkscape.org/) -->

<svg
   xmlns:dc="http://purl.org/dc/elements/1.1/"
   xmlns:cc="http://creativecommons.org/ns#"
   xmlns:rdf="http://www.w3.org/1999/02/22-rdf-syntax-ns#"
   xmlns:svg="http://www.w3.org/2000/svg"
   xmlns="http://www.w3.org/2000/svg"
   xmlns:sodipodi="http://sodipodi.sourceforge.net/DTD/sodipodi-0.dtd"
   xmlns:inkscape="http://www.inkscape.org/namespaces/inkscape"
   width="109.29633mm"
   height="61.921066mm"
   viewBox="0 0 109.29633 61.921066"
   version="1.1"
   id="svg1271"
   inkscape:version="0.92.4 5da689c313, 2019-01-14"
   sodipodi:docname="wuppaal_cache.svg">
  <defs
     id="defs1265">
    <clipPath
       clipPathUnits="userSpaceOnUse"
       id="clipPath916">
      <path
         d="M 0,0 H 796.998 V 463.251 H 0 Z"
         id="path914"
         inkscape:connector-curvature="0" />
    </clipPath>
    <clipPath
       clipPathUnits="userSpaceOnUse"
       id="clipPath926">
      <path
         d="M 0,0 H 797 V 639 H 0 Z"
         id="path924"
         inkscape:connector-curvature="0" />
    </clipPath>
    <clipPath
       clipPathUnits="userSpaceOnUse"
       id="clipPath936">
      <path
         d="M 0,0 H 893 V 506 H 0 Z"
         id="path934"
         inkscape:connector-curvature="0" />
    </clipPath>
    <clipPath
       clipPathUnits="userSpaceOnUse"
       id="clipPath948">
      <path
         d="M 0,0 V 506 H 893 V 0 Z"
         id="path946"
         inkscape:connector-curvature="0" />
    </clipPath>
  </defs>
  <sodipodi:namedview
     id="base"
     pagecolor="#ffffff"
     bordercolor="#666666"
     borderopacity="1.0"
     inkscape:pageopacity="0.0"
     inkscape:pageshadow="2"
     inkscape:zoom="0.98994949"
     inkscape:cx="204.9836"
     inkscape:cy="-93.133473"
     inkscape:document-units="mm"
     inkscape:current-layer="layer1"
     showgrid="false"
     fit-margin-top="0"
     fit-margin-left="0"
     fit-margin-right="0"
     fit-margin-bottom="0"
     inkscape:window-width="958"
     inkscape:window-height="1059"
     inkscape:window-x="961"
     inkscape:window-y="20"
     inkscape:window-maximized="0" />
  <metadata
     id="metadata1268">
    <rdf:RDF>
      <cc:Work
         rdf:about="">
        <dc:format>image/svg+xml</dc:format>
        <dc:type
           rdf:resource="http://purl.org/dc/dcmitype/StillImage" />
        <dc:title></dc:title>
      </cc:Work>
    </rdf:RDF>
  </metadata>
  <g
     inkscape:label="Layer 1"
     inkscape:groupmode="layer"
     id="layer1"
     transform="translate(-43.625641,-90.658517)">
    <g
       transform="matrix(0.13776677,0,0,-0.13776677,43.625641,153.67662)"
       id="g906">
      <g
         id="g908">
        <g
           id="g910">
          <g
             clip-path="url(#clipPath916)"
             id="g912">
            <g
               transform="translate(0,-87.874)"
               id="g918">
              <g
                 id="g920">
                <g
                   clip-path="url(#clipPath926)"
                   id="g922">
                  <g
                     transform="matrix(0.8925,0,0,-0.8925,0,545.3)"
                     id="g928">
                    <g
                       id="g930">
                      <g
                         clip-path="url(#clipPath936)"
                         id="g932">
                        <g
                           id="g938">
                          <g
                             id="g940" />
                        </g>
                        <g
                           id="g942">
                          <g
                             clip-path="url(#clipPath948)"
                             id="g944">
                            <g
                               id="g950">
                              <g
                                 id="g952">
                                <path
                                   inkscape:connector-curvature="0"
                                   id="path954"
                                   style="fill:#ffffff;fill-opacity:1;fill-rule:nonzero;stroke:none"
                                   d="M 0,0 Z" />
                              </g>
                            </g>
                            <g
                               transform="matrix(1.5,0,0,1.5,14676,15332)"
                               id="g956">
                              <path
                                 inkscape:connector-curvature="0"
                                 id="path958"
                                 style="fill:#a5afcd;fill-opacity:1;fill-rule:nonzero;stroke:none"
                                 d="m -9236,-10081 c 0,7 -5.4,12 -12,12 -6.6,0 -12,-5 -12,-12 0,-7 5.4,-12 12,-12 6.6,0 12,5 12,12 z" />
                              <path
                                 inkscape:connector-curvature="0"
                                 id="path960"
                                 style="fill:none;stroke:#000000;stroke-width:1;stroke-linecap:butt;stroke-linejoin:miter;stroke-miterlimit:10;stroke-dasharray:none;stroke-opacity:1"
                                 d="m -9236,-10081 c 0,7 -5.4,12 -12,12 -6.6,0 -12,-5 -12,-12 0,-7 5.4,-12 12,-12 6.6,0 12,5 12,12 z" />
                              <path
                                 inkscape:connector-curvature="0"
                                 id="path962"
                                 style="fill:#a5afcd;fill-opacity:1;fill-rule:nonzero;stroke:none"
                                 d="m -9465,-10081 c 0,7 -5.4,12 -12,12 -6.6,0 -12,-5 -12,-12 0,-7 5.4,-12 12,-12 6.6,0 12,5 12,12 z" />
                              <path
                                 inkscape:connector-curvature="0"
                                 id="path964"
                                 style="fill:none;stroke:#000000;stroke-width:1;stroke-linecap:butt;stroke-linejoin:miter;stroke-miterlimit:10;stroke-dasharray:none;stroke-opacity:1"
                                 d="m -9465,-10081 c 0,7 -5.4,12 -12,12 -6.6,0 -12,-5 -12,-12 0,-7 5.4,-12 12,-12 6.6,0 12,5 12,12 z" />
                              <path
                                 inkscape:connector-curvature="0"
                                 id="path966"
                                 style="fill:#a5afcd;fill-opacity:1;fill-rule:nonzero;stroke:none"
                                 d="m -9576,-9919 c 0,6.6 -5.4,12 -12,12 -6.6,0 -12,-5.4 -12,-12 0,-6.6 5.4,-12 12,-12 6.6,0 12,5.4 12,12 z" />
                              <path
                                 inkscape:connector-curvature="0"
                                 id="path968"
                                 style="fill:none;stroke:#000000;stroke-width:1;stroke-linecap:butt;stroke-linejoin:miter;stroke-miterlimit:10;stroke-dasharray:none;stroke-opacity:1"
                                 d="m -9576,-9919 c 0,6.6 -5.4,12 -12,12 -6.6,0 -12,-5.4 -12,-12 0,-6.6 5.4,-12 12,-12 6.6,0 12,5.4 12,12 z" />
                              <path
                                 inkscape:connector-curvature="0"
                                 id="path970"
                                 style="fill:#a742a8;fill-opacity:1;fill-rule:nonzero;stroke:none"
                                 d="m -9621.4,-9888 2.8,-3.8 -2.7,-3.6 h 1.6 l 2.2,2.8 1.9,-2.8 h 1.3 l -2.5,3.7 2.8,3.7 h -1.6 l -2.3,-2.9 -2.1,2.9 z m 17.6,0 -8.1,-4 8.1,-4.1 v 1.1 l -5.8,3 5.8,2.9 z m 3,-2.3 v -1 h 8.1 v 1 z m 0,-2.5 v -1 h 8.1 v 1 z m 15.3,5.1 c -1.6,0 -2.8,-0.5 -3.7,-1.4 -0.8,-1 -1.2,-2.3 -1.2,-4 0,-1.6 0.4,-2.9 1.3,-3.9 0.8,-0.9 2.1,-1.4 3.7,-1.4 0.9,0 1.9,0.2 3.1,0.5 v 1.3 c -1.3,-0.5 -2.4,-0.7 -3.2,-0.7 -1.1,0 -1.9,0.4 -2.5,1.1 -0.6,0.8 -0.9,1.8 -0.9,3.2 0,1.3 0.3,2.3 0.9,3 0.7,0.8 1.6,1.1 2.7,1.1 0.9,0 2,-0.3 3.1,-0.9 v 1.3 c -1,0.5 -2.1,0.8 -3.3,0.8 z m 10.5,-4.2 -1.8,-4.3 -1.7,4.3 z m 1.5,3.9 -1.1,-2.8 h -4.3 l -1.1,2.8 h -1.4 l 4.1,-10.1 h 1.4 l 3.9,10.1 z m 7.3,0.3 c -1.5,0 -2.8,-0.5 -3.6,-1.4 -0.9,-1 -1.3,-2.3 -1.3,-4 0,-1.6 0.4,-2.9 1.3,-3.9 0.9,-0.9 2.1,-1.4 3.7,-1.4 0.9,0 2,0.2 3.2,0.5 v 1.3 c -1.4,-0.5 -2.5,-0.7 -3.2,-0.7 -1.1,0 -2,0.4 -2.6,1.1 -0.6,0.8 -0.9,1.8 -0.9,3.2 0,1.3 0.3,2.3 1,3 0.6,0.8 1.5,1.1 2.6,1.1 1,0 2,-0.3 3.1,-0.9 v 1.3 c -1,0.5 -2.1,0.8 -3.3,0.8 z m 5.4,-0.3 v -10.1 h 1.4 v 4.2 h 4.8 v -4.2 h 1.5 v 10.1 h -1.5 v -4.8 h -4.8 v 4.8 z m 10.3,0 v -10.1 h 5.6 v 1.1 h -4.2 v 3.2 h 3.5 v 1.1 h -3.5 v 3.6 h 4.5 v 1.1 z m 6.3,2.4 v -1.1 h 7 v 1.1 z m 10.2,-2.1 c -0.6,0 -1.5,-0.2 -2.6,-0.5 v -1.4 c 1.2,0.5 2.1,0.8 2.8,0.8 0.6,0 1.1,-0.2 1.4,-0.5 0.4,-0.3 0.5,-0.7 0.5,-1.1 0,-0.4 -0.1,-0.8 -0.3,-1 -0.2,-0.3 -0.7,-0.6 -1.3,-1 l -0.7,-0.4 c -0.8,-0.5 -1.4,-0.9 -1.8,-1.4 -0.3,-0.4 -0.5,-0.9 -0.5,-1.5 0,-0.8 0.3,-1.4 0.8,-1.9 0.6,-0.5 1.3,-0.8 2.2,-0.8 0.8,0 1.6,0.2 2.5,0.4 v 1.3 c -1.1,-0.4 -1.9,-0.6 -2.4,-0.6 -0.5,0 -0.9,0.1 -1.3,0.4 -0.3,0.3 -0.4,0.6 -0.4,1 0,0.3 0.1,0.6 0.3,0.9 0.3,0.3 0.7,0.6 1.3,0.9 l 0.7,0.4 c 0.9,0.5 1.5,1 1.9,1.4 0.3,0.5 0.5,1 0.5,1.6 0,0.9 -0.3,1.6 -1,2.2 -0.6,0.5 -1.5,0.8 -2.6,0.8 z m 5.6,-0.3 v -10.1 h 2.8 c 1.2,0 2.1,0.2 2.6,0.6 0.5,0.4 0.8,1.1 0.8,2 0,1.1 -0.4,2 -1.1,2.6 -0.7,0.6 -1.8,0.9 -3,0.9 h -0.7 v 4 z m 1.4,-5.1 h 0.6 c 0.9,0 1.5,-0.2 2,-0.6 0.4,-0.4 0.7,-0.9 0.7,-1.7 0,-0.6 -0.2,-1 -0.6,-1.3 -0.3,-0.2 -0.9,-0.3 -1.8,-0.3 h -0.9 z m 6.3,5.1 v -10.1 h 5.7 v 1.1 h -4.2 v 3.2 h 3.5 v 1.1 h -3.5 v 3.6 h 4.5 v 1.1 z m 7.6,0 v -10.1 h 5.7 v 1.1 h -4.2 v 3.2 h 3.5 v 1.1 h -3.5 v 3.6 h 4.5 v 1.1 z m 7.6,0 v -10.1 h 3.4 c 1,0 1.8,0.1 2.4,0.3 0.6,0.2 1.2,0.6 1.6,1.2 0.7,0.8 1.1,1.9 1.1,3.3 0,1.7 -0.5,3 -1.4,3.9 -0.8,0.9 -2.1,1.4 -3.7,1.4 z m 1.4,-1.1 h 1.9 c 1.3,0 2.2,-0.3 2.8,-1 0.6,-0.8 0.9,-1.8 0.9,-3.1 0,-1.2 -0.3,-2.1 -0.9,-2.8 -0.4,-0.4 -0.8,-0.7 -1.3,-0.8 -0.5,-0.2 -1.2,-0.2 -2.2,-0.2 h -1.2 z" />
                              <path
                                 inkscape:connector-curvature="0"
                                 id="path972"
                                 style="fill:#4242a8;fill-opacity:1;fill-rule:nonzero;stroke:none"
                                 d="m -9314.7,-10016 v -10 h 2.8 c 1.2,0 2.1,0 2.6,1 0.5,0 0.8,1 0.8,2 0,1 -0.4,1 -1.1,2 -0.7,1 -1.7,1 -3,1 h -0.7 v 4 z m 1.4,-5 h 0.6 c 0.9,0 1.5,0 2,-1 0.4,0 0.7,-1 0.7,-1 0,-1 -0.2,-1 -0.6,-2 -0.3,0 -0.9,0 -1.8,0 h -0.9 z m 6.3,5 v -10 h 2 l 2.8,8 2.9,-8 h 1.8 v 10 h -1.3 v -8 l -2.8,7 h -1.4 l -2.7,-7 v 8 z m 14.5,0 v -9 h -3.6 v -1 h 8.6 v 1 h -3.6 v 9 z m 6.2,-4 v -1 h 6 v 1 z m 8.1,0 v -1 h 6 v 1 z" />
                              <path
                                 inkscape:connector-curvature="0"
                                 id="path974"
                                 style="fill:#42a0a8;fill-opacity:1;fill-rule:nonzero;stroke:none"
                                 d="m -9467.7,-9973 v -10.1 h 1.4 v 4.2 h 4.9 v -4.2 h 1.4 v 10.1 h -1.4 v -4.8 h -4.9 v 4.8 z m 15,0 v -1.4 c -0.7,1 -1.6,1.6 -2.6,1.6 -0.7,0 -1.2,-0.2 -1.6,-0.6 -0.4,-0.4 -0.5,-1 -0.5,-1.7 v -5.3 h 1.3 v 4.9 c 0,0.5 0.1,0.9 0.2,1.2 0.2,0.2 0.5,0.3 0.9,0.3 0.8,0 1.5,-0.5 2.3,-1.6 v -4.8 h 1.3 v 7.4 z m 4,0 v -7.4 h 1.4 v 1.4 c 0.5,-1.1 1.3,-1.6 2.3,-1.6 0.1,0 0.3,0 0.4,0 v 1.3 c -0.2,-0.1 -0.4,-0.1 -0.6,-0.1 -0.8,0 -1.6,0.5 -2.1,1.5 v 4.9 z m 5.8,0 v -7.4 h 1.3 v 1.4 c 0.5,-1.1 1.3,-1.6 2.3,-1.6 0.2,0 0.3,0 0.5,0 v 1.3 c -0.3,-0.1 -0.5,-0.1 -0.7,-0.1 -0.8,0 -1.5,0.5 -2.1,1.5 v 4.9 z m 6.1,2.7 1.2,-2.7 -2.9,-7.4 h 1.5 l 2.1,5.6 2.3,-5.6 h 1.3 l -4.1,10.1 z m 7.1,-2.7 v -1.3 h 1.3 v 1.3 z m 0.2,-2.7 -0.2,-5.4 v -2 h 1.3 v 2 l -0.1,5.4 z" />
                              <path
                                 inkscape:connector-curvature="0"
                                 id="path976"
                                 style="fill:#42a0a8;fill-opacity:1;fill-rule:nonzero;stroke:none"
                                 d="m -9416.7,-10016 v -10 h 2 l 2.8,8 2.9,-8 h 1.8 v 10 h -1.4 v -8 l -2.8,7 h -1.4 l -2.7,-7 v 8 z m 15.9,-1 c -0.8,1 -1.6,1 -2.3,1 -0.6,0 -1.1,0 -1.5,0 -0.4,-1 -0.6,-1 -0.6,-2 0,-1 0.3,-1 1,-2 0.7,0 1.6,0 2.9,0 h 0.3 v -1 c 0,-1 -0.4,-2 -1.3,-2 -0.7,0 -1.5,1 -2.3,1 v -1 c 0.9,0 1.8,-1 2.6,-1 0.8,0 1.4,1 1.8,1 0.4,0 0.6,1 0.6,2 v 3 c 0,1 0.2,1 0.7,1 0.1,0 0.1,0 0.3,0 v 1 c -0.3,0 -0.6,0 -1,0 -0.6,0 -1,0 -1.2,-1 z m -0.2,-1 v -2 h -0.4 c -0.8,0 -1.4,1 -1.8,1 -0.5,0 -0.7,0 -0.7,1 0,0 0.1,1 0.4,1 0.2,0 0.5,0 0.8,0 0.5,0 1.1,0 1.7,-1 z m 4.1,2 v -7 h 1.4 v 7 z m 0,-9 v -1 h 1.4 v 1 z m 4.1,9 v -7 h 1.3 v 1 c 0.7,-1 1.6,-2 2.6,-2 0.7,0 1.2,1 1.6,1 0.4,0 0.6,1 0.6,2 v 5 h -1.4 v -5 c 0,0 -0.1,-1 -0.2,-1 -0.2,0 -0.5,0 -0.8,0 -0.9,0 -1.6,0 -2.4,1 v 5 z m 8.6,0 v -10 h 2 l 2.8,8 2.9,-8 h 1.8 v 10 h -1.4 v -8 l -2.7,7 h -1.4 l -2.7,-7 v 8 z m 17.6,0 c -0.9,0 -1.7,0 -2.3,0 -1.1,0 -2,0 -2.7,-1 -0.7,-1 -1.1,-2 -1.1,-3 0,-1 0.3,-2 1,-3 0.6,0 1.3,-1 2.3,-1 0.9,0 1.6,1 2.1,1 0.5,1 0.7,2 0.7,3 v 0 h -4.7 c 0.2,2 1.1,3 2.6,3 0.6,0 1.3,0 2.1,0 z m -4.6,-5 h 3.3 c 0,-1 -0.6,-2 -1.6,-2 -1,0 -1.6,1 -1.7,2 z m 6.9,5 v -7 h 1.4 v 1 c 0.6,-1 1.5,-2 2.5,-2 1,0 1.7,1 2,2 0.7,-1 1.5,-2 2.5,-2 0.7,0 1.2,1 1.5,1 0.4,0 0.6,1 0.6,2 v 5 h -1.4 v -5 c 0,-1 -0.3,-1 -1,-1 -0.7,0 -1.4,0 -2.2,1 v 5 h -1.3 v -5 c 0,-1 -0.4,-1 -1,-1 -0.7,0 -1.4,0 -2.2,1 v 5 z m 13.1,0 v -10 h 5.6 v 1 h -4.2 v 3 h 3.5 v 1 h -3.5 v 4 h 4.5 v 1 z m 7.6,0 v -7 h 1.3 v 1 c 0.7,-1 1.6,-2 2.6,-2 0.7,0 1.2,1 1.6,1 0.4,0 0.6,1 0.6,2 v 5 h -1.4 v -5 c 0,0 -0.1,-1 -0.2,-1 -0.2,0 -0.5,0 -0.8,0 -0.9,0 -1.6,0 -2.4,1 v 5 z m 13.4,0 v -1 c -0.5,1 -1.3,1 -2.4,1 -0.9,0 -1.6,0 -2.1,-1 -0.6,0 -0.8,-1 -0.8,-2 0,-2 0.3,-3 0.9,-3 0.5,-1 1.3,-2 2.3,-2 0.8,0 1.6,1 2.1,1 v -4 h 1.4 v 11 z m 0,-6 c -0.7,0 -1.3,-1 -1.9,-1 -1.3,0 -2,1 -2,3 0,2 0.6,3 1.7,3 0.8,0 1.5,0 2.2,-1 z m 4.5,6 v -1 h 1.3 v 1 z m 0,-3 v 0 c 0,-1 0.3,-2 1,-3 h 0.4 c 0.7,-1 1.1,-2 1.1,-2 0,0 -0.2,-1 -0.5,-1 -0.3,0 -0.8,0 -1.3,0 -0.7,0 -1.4,0 -2.2,0 v -1 c 0.8,0 1.6,0 2.4,0 0.9,0 1.6,0 2.2,0 0.5,1 0.8,1 0.8,2 0,0 -0.1,1 -0.2,1 -0.2,0 -0.5,1 -0.9,1 h -0.5 c -0.4,1 -0.7,1 -0.8,1 -0.1,1 -0.2,1 -0.2,2 v 0 z" />
                              <path
                                 inkscape:connector-curvature="0"
                                 id="path978"
                                 style="fill:#a5afcd;fill-opacity:1;fill-rule:nonzero;stroke:none"
                                 d="m -9465,-10208 c 0,7 -5.4,12 -12,12 -6.6,0 -12,-5 -12,-12 0,-7 5.4,-12 12,-12 6.6,0 12,5 12,12 z" />
                              <path
                                 inkscape:connector-curvature="0"
                                 id="path980"
                                 style="fill:none;stroke:#000000;stroke-width:1;stroke-linecap:butt;stroke-linejoin:miter;stroke-miterlimit:10;stroke-dasharray:none;stroke-opacity:1"
                                 d="m -9465,-10208 c 0,7 -5.4,12 -12,12 -6.6,0 -12,-5 -12,-12 0,-7 5.4,-12 12,-12 6.6,0 12,5 12,12 z" />
                              <path
                                 inkscape:connector-curvature="0"
                                 id="path982"
                                 style="fill:none;stroke:#000000;stroke-width:1;stroke-linecap:butt;stroke-linejoin:miter;stroke-miterlimit:10;stroke-dasharray:none;stroke-opacity:1"
                                 d="m -9469,-10208 c 0,4 -3.6,8 -8,8 -4.4,0 -8,-4 -8,-8 0,-4 3.6,-8 8,-8 4.4,0 8,4 8,8 z" />
                              <path
                                 inkscape:connector-curvature="0"
                                 id="path984"
                                 style="fill:#42a0a8;fill-opacity:1;fill-rule:nonzero;stroke:none"
                                 d="m -9781.7,-10092 v -10 h 1.4 v 10 z m 4.1,0 v -7 h 1.3 v 1 c 0.7,-1 1.6,-2 2.6,-2 0.7,0 1.2,1 1.6,1 0.4,0 0.6,1 0.6,2 v 5 h -1.4 v -5 c 0,0 -0.1,-1 -0.2,-1 -0.2,0 -0.5,0 -0.8,0 -0.9,0 -1.6,0 -2.4,1 v 5 z m 10.6,0 c -0.6,0 -1.3,0 -2.2,0 v -1 c 0.9,0 1.6,0 2.3,0 0.4,0 0.7,0 1,0 0.2,0 0.3,-1 0.3,-1 0,0 -0.3,-1 -1,-1 h -0.8 c -1.2,-1 -1.8,-2 -1.8,-3 0,0 0.3,-1 0.7,-1 0.5,0 1.1,-1 1.9,-1 0.4,0 0.9,0 1.5,1 h 0.3 v 1 c -0.7,0 -1.3,-1 -1.8,-1 -0.8,0 -1.3,1 -1.3,1 0,1 0.4,1 1,1 l 0.7,1 c 0.7,0 1.2,0 1.5,1 0.3,0 0.5,0 0.5,1 0,1 -0.3,1 -0.8,2 -0.5,0 -1.2,0 -2,0 z m 7.4,0 c -0.6,0 -1.2,0 -1.6,0 -0.3,-1 -0.5,-1 -0.5,-2 v -4 h -1 v -1 h 1 v -2 h 1.3 v 2 h 1.9 v 1 h -1.9 v 4 c 0,1 0.4,1 1.3,1 0.1,0 0.4,0 0.6,0 v 1 c -0.4,0 -0.8,0 -1.1,0 z m 3,0 v -7 h 1.4 v 1 c 0.5,-1 1.3,-2 2.3,-2 0.1,0 0.3,0 0.4,0 v 2 c -0.2,0 -0.4,0 -0.6,0 -0.8,0 -1.5,0 -2.1,1 v 5 z m 10.4,0 v -1 c -0.7,1 -1.6,1 -2.6,1 -0.6,0 -1.2,0 -1.5,0 -0.4,-1 -0.6,-1 -0.6,-2 v -5 h 1.3 v 4 c 0,1 0.1,1 0.3,2 0.1,0 0.4,0 0.8,0 0.8,0 1.6,-1 2.3,-2 v -4 h 1.4 v 7 z m 7,0 c -1,0 -1.9,0 -2.5,-1 -0.7,-1 -1,-2 -1,-3 0,-1 0.3,-2 1,-3 0.6,0 1.5,-1 2.7,-1 0.6,0 1.2,0 1.9,1 v 1 c -0.7,0 -1.4,-1 -1.8,-1 -0.7,0 -1.3,1 -1.7,1 -0.4,1 -0.6,1 -0.6,2 0,1 0.2,2 0.6,2 0.5,1 1,1 1.7,1 0.6,0 1.3,0 1.9,0 v 1 c -0.9,0 -1.6,0 -2.2,0 z m 6.5,0 c -0.7,0 -1.3,0 -1.6,0 -0.4,-1 -0.6,-1 -0.6,-2 v -4 h -0.9 v -1 h 0.9 v -2 h 1.3 v 2 h 2 v 1 h -2 v 4 c 0,1 0.4,1 1.3,1 0.2,0 0.4,0 0.6,0 v 1 c -0.4,0 -0.7,0 -1,0 z m 3,0 v -7 h 1.3 v 7 z m 0,-9 v -1 h 1.3 v 1 z m 6.9,9 c -1,0 -1.9,0 -2.5,-1 -0.7,-1 -1,-2 -1,-3 0,-1 0.3,-2 1,-3 0.6,0 1.5,-1 2.6,-1 1.1,0 1.9,1 2.6,1 0.6,1 0.9,2 0.9,3 0,1 -0.3,2 -1,3 -0.6,1 -1.5,1 -2.6,1 z m 0,-1 c 1.5,0 2.2,-1 2.2,-3 0,-2 -0.7,-3 -2.1,-3 -1.4,0 -2.1,1 -2.1,3 0,2 0.7,3 2,3 z m 5.7,1 v -7 h 1.4 v 1 c 0.7,-1 1.5,-2 2.6,-2 0.6,0 1.1,1 1.5,1 0.4,0 0.6,1 0.6,2 v 5 h -1.4 v -5 c 0,0 0,-1 -0.2,-1 -0.2,0 -0.4,0 -0.8,0 -0.8,0 -1.6,0 -2.3,1 v 5 z m 13,0 c -1.6,0 -2.8,0 -3.7,-1 -0.8,-1 -1.2,-2 -1.2,-4 0,-2 0.4,-3 1.3,-4 0.8,-1 2.1,-1 3.7,-1 0.9,0 1.9,0 3.1,0 v 1 c -1.3,0 -2.4,0 -3.2,0 -1.1,0 -1.9,0 -2.5,1 -0.6,1 -0.9,2 -0.9,3 0,1 0.3,2 1,3 0.6,1 1.5,1 2.6,1 0.9,0 2,0 3.1,-1 v 1 c -1,1 -2.1,1 -3.3,1 z m 9.2,-1 c -0.8,1 -1.6,1 -2.3,1 -0.6,0 -1.1,0 -1.5,0 -0.5,-1 -0.7,-1 -0.7,-2 0,-1 0.4,-1 1.1,-2 0.6,0 1.6,0 2.9,0 h 0.3 v -1 c 0,-1 -0.4,-2 -1.3,-2 -0.7,0 -1.5,1 -2.3,1 v -1 c 0.9,0 1.7,-1 2.5,-1 0.9,0 1.5,1 1.9,1 0.4,0 0.6,1 0.6,2 v 3 c 0,1 0.2,1 0.7,1 0,0 0.1,0 0.2,0 l 0.1,1 c -0.3,0 -0.6,0 -1,0 -0.6,0 -1,0 -1.2,-1 z m -0.2,-1 v -2 h -0.4 c -0.8,0 -1.4,1 -1.8,1 -0.5,0 -0.7,0 -0.7,1 0,0 0.1,1 0.3,1 0.3,0 0.5,0 0.9,0 0.5,0 1.1,0 1.7,-1 z m 7,2 c -1,0 -1.8,0 -2.5,-1 -0.6,-1 -1,-2 -1,-3 0,-1 0.4,-2 1,-3 0.7,0 1.6,-1 2.7,-1 0.6,0 1.3,0 2,1 v 1 c -0.8,0 -1.4,-1 -1.9,-1 -0.7,0 -1.2,1 -1.6,1 -0.4,1 -0.7,1 -0.7,2 0,1 0.3,2 0.7,2 0.4,1 1,1 1.7,1 0.6,0 1.2,0 1.9,0 v 1 c -0.9,0 -1.6,0 -2.3,0 z m 4.3,0 v -11 h 1.3 v 5 c 0.7,-1 1.6,-2 2.6,-2 0.7,0 1.2,1 1.6,1 0.4,0 0.6,1 0.6,2 v 5 h -1.4 v -5 c 0,0 -0.1,-1 -0.2,-1 -0.2,0 -0.5,0 -0.8,0 -0.9,0 -1.6,0 -2.4,1 v 5 z m 14.1,0 c -0.9,0 -1.7,0 -2.3,0 -1.1,0 -2,0 -2.7,-1 -0.7,-1 -1,-2 -1,-3 0,-1 0.3,-2 0.9,-3 0.6,0 1.4,-1 2.3,-1 0.9,0 1.6,1 2.1,1 0.5,1 0.8,2 0.8,3 h -0.1 -4.6 c 0.2,2 1,3 2.6,3 0.5,0 1.2,0 2,0 z m -4.6,-5 h 3.3 c 0,-1 -0.5,-2 -1.5,-2 -1.1,0 -1.7,1 -1.8,2 z m 6.9,5 v -10 h 3.1 c 1,0 1.7,0 2.2,1 0.5,0 0.8,1 0.8,1 0,2 -0.7,3 -2,3 l 3.3,5 h -1.7 l -2.9,-4 h -1.3 v 4 z m 1.5,-5 h 0.4 c 1.8,0 2.7,-1 2.7,-2 0,-2 -0.7,-2 -2.2,-2 h -0.9 z m 12.9,5 c -0.9,0 -1.7,0 -2.3,0 -1.1,0 -2,0 -2.7,-1 -0.7,-1 -1.1,-2 -1.1,-3 0,-1 0.3,-2 1,-3 0.6,0 1.3,-1 2.3,-1 0.9,0 1.6,1 2.1,1 0.5,1 0.7,2 0.7,3 v 0 h -4.7 c 0.2,2 1.1,3 2.6,3 0.6,0 1.3,0 2.1,0 z m -4.6,-5 h 3.3 c 0,-1 -0.6,-2 -1.6,-2 -1,0 -1.6,1 -1.7,2 z m 10.8,4 c -0.8,1 -1.6,1 -2.4,1 -0.6,0 -1.1,0 -1.5,0 -0.4,-1 -0.6,-1 -0.6,-2 0,-1 0.3,-1 1,-2 0.7,0 1.7,0 2.9,0 h 0.4 v -1 c 0,-1 -0.5,-2 -1.4,-2 -0.7,0 -1.4,1 -2.3,1 v -1 c 0.9,0 1.8,-1 2.6,-1 0.8,0 1.4,1 1.8,1 0.4,0 0.6,1 0.6,2 v 3 c 0,1 0.2,1 0.7,1 0.1,0 0.2,0 0.3,0 l 0.1,1 c -0.3,0 -0.7,0 -1,0 -0.7,0 -1.1,0 -1.2,-1 z m -0.2,-1 v -2 h -0.5 c -0.7,0 -1.3,1 -1.8,1 -0.4,0 -0.7,0 -0.7,1 0,0 0.1,1 0.4,1 0.2,0 0.5,0 0.8,0 0.6,0 1.2,0 1.8,-1 z m 8.8,2 v -1 c -0.5,1 -1.3,1 -2.4,1 -0.9,0 -1.6,0 -2.2,-1 -0.5,0 -0.7,-1 -0.7,-2 0,-2 0.3,-3 0.8,-3 0.6,-1 1.4,-2 2.3,-2 0.9,0 1.6,1 2.2,1 v -4 h 1.4 v 11 z m 0,-6 c -0.7,0 -1.3,-1 -2,-1 -1.2,0 -1.9,1 -1.9,3 0,2 0.6,3 1.7,3 0.8,0 1.5,0 2.2,-1 z m 4,6 v -10 h 5.7 v 1 h -4.2 v 3 h 3.5 v 1 h -3.5 v 4 h 4.5 v 1 z m 7.7,0 v -7 h 1.3 v 1 c 0.7,-1 1.6,-2 2.6,-2 0.7,0 1.2,1 1.6,1 0.3,0 0.5,1 0.5,2 v 5 h -1.3 v -5 c 0,0 -0.1,-1 -0.3,-1 -0.1,0 -0.4,0 -0.8,0 -0.8,0 -1.6,0 -2.3,1 v 5 z m 13.4,0 v -1 c -0.5,1 -1.4,1 -2.5,1 -0.9,0 -1.6,0 -2.1,-1 -0.5,0 -0.7,-1 -0.7,-2 0,-2 0.3,-3 0.8,-3 0.6,-1 1.4,-2 2.3,-2 0.9,0 1.6,1 2.2,1 v -4 h 1.4 v 11 z m 0,-6 c -0.7,0 -1.3,-1 -2,-1 -1.3,0 -1.9,1 -1.9,3 0,2 0.6,3 1.7,3 0.8,0 1.5,0 2.2,-1 z m 4.3,6 v -1 h 1.3 v 1 z m 0.1,-3 -0.1,-5 v -2 h 1.3 v 2 l -0.2,5 z" />
                              <path
                                 inkscape:connector-curvature="0"
                                 id="path986"
                                 style="fill:#42a0a8;fill-opacity:1;fill-rule:nonzero;stroke:none"
                                 d="m -9467.7,-10177 v -10 h 1.4 v 10 z m 4.1,0 v -7 h 1.3 v 1 c 0.7,-1 1.6,-2 2.6,-2 0.7,0 1.2,1 1.6,1 0.4,0 0.6,1 0.6,2 v 5 h -1.4 v -5 c 0,0 -0.1,-1 -0.2,-1 -0.2,0 -0.5,0 -0.8,0 -0.9,0 -1.6,0 -2.4,1 v 5 z m 10.6,0 c -0.6,0 -1.3,0 -2.2,0 v -1 c 0.9,0 1.6,0 2.3,0 0.4,0 0.7,0 1,0 0.2,0 0.3,-1 0.3,-1 0,0 -0.3,-1 -1,-1 h -0.8 c -1.2,-1 -1.8,-2 -1.8,-3 0,0 0.3,-1 0.7,-1 0.5,0 1.1,-1 1.9,-1 0.4,0 0.9,0 1.5,1 h 0.3 v 1 c -0.7,0 -1.3,-1 -1.8,-1 -0.8,0 -1.3,1 -1.3,1 0,1 0.4,1 1,1 l 0.7,1 c 0.7,0 1.2,0 1.5,1 0.3,0 0.5,0 0.5,1 0,1 -0.3,1 -0.8,2 -0.5,0 -1.2,0 -2,0 z m 7.4,0 c -0.6,0 -1.2,0 -1.6,0 -0.3,-1 -0.5,-1 -0.5,-2 v -4 h -1 v -1 h 1 v -2 h 1.3 v 2 h 1.9 v 1 h -1.9 v 4 c 0,1 0.4,1 1.3,1 0.1,0 0.4,0 0.6,0 v 1 c -0.4,0 -0.8,0 -1.1,0 z m 3,0 v -7 h 1.4 v 1 c 0.5,-1 1.3,-2 2.3,-2 0.1,0 0.3,0 0.4,0 v 2 c -0.2,0 -0.4,0 -0.6,0 -0.8,0 -1.5,0 -2.1,1 v 5 z m 10.4,0 v -1 c -0.7,1 -1.6,1 -2.6,1 -0.6,0 -1.2,0 -1.5,0 -0.4,-1 -0.6,-1 -0.6,-2 v -5 h 1.3 v 4 c 0,1 0.1,1 0.3,2 0.1,0 0.4,0 0.8,0 0.8,0 1.6,-1 2.3,-2 v -4 h 1.4 v 7 z m 7,0 c -1,0 -1.9,0 -2.5,-1 -0.7,-1 -1,-2 -1,-3 0,-1 0.3,-2 1,-3 0.6,0 1.5,-1 2.7,-1 0.6,0 1.2,0 1.9,1 v 1 c -0.7,0 -1.4,-1 -1.8,-1 -0.7,0 -1.3,1 -1.7,1 -0.4,1 -0.6,1 -0.6,2 0,1 0.2,2 0.6,2 0.5,1 1,1 1.7,1 0.6,0 1.3,0 1.9,0 v 1 c -0.9,0 -1.6,0 -2.2,0 z m 6.5,0 c -0.7,0 -1.3,0 -1.6,0 -0.4,-1 -0.6,-1 -0.6,-2 v -4 h -0.9 v -1 h 0.9 v -2 h 1.3 v 2 h 2 v 1 h -2 v 4 c 0,1 0.4,1 1.3,1 0.2,0 0.4,0 0.6,0 v 1 c -0.4,0 -0.7,0 -1,0 z m 3,0 v -7 h 1.3 v 7 z m 0,-9 v -1 h 1.3 v 1 z m 6.9,9 c -1,0 -1.9,0 -2.5,-1 -0.7,-1 -1,-2 -1,-3 0,-1 0.3,-2 1,-3 0.6,0 1.5,-1 2.6,-1 1.1,0 1.9,1 2.6,1 0.6,1 0.9,2 0.9,3 0,1 -0.3,2 -1,3 -0.6,1 -1.5,1 -2.6,1 z m 0,-1 c 1.5,0 2.2,-1 2.2,-3 0,-2 -0.7,-3 -2.1,-3 -1.4,0 -2.1,1 -2.1,3 0,2 0.7,3 2,3 z m 5.7,1 v -7 h 1.4 v 1 c 0.7,-1 1.5,-2 2.6,-2 0.6,0 1.1,1 1.5,1 0.4,0 0.6,1 0.6,2 v 5 h -1.4 v -5 c 0,0 0,-1 -0.2,-1 -0.2,0 -0.4,0 -0.8,0 -0.8,0 -1.6,0 -2.3,1 v 5 z m 13,0 c -1.6,0 -2.8,0 -3.7,-1 -0.8,-1 -1.2,-2 -1.2,-4 0,-2 0.4,-3 1.3,-4 0.8,-1 2.1,-1 3.7,-1 0.9,0 1.9,0 3.1,0 v 1 c -1.3,0 -2.4,0 -3.2,0 -1.1,0 -1.9,0 -2.5,1 -0.6,1 -0.9,2 -0.9,3 0,1 0.3,2 1,3 0.6,1 1.5,1 2.6,1 0.9,0 2,0 3.1,-1 v 1 c -1,1 -2.1,1 -3.3,1 z m 9.2,-1 c -0.8,1 -1.6,1 -2.3,1 -0.6,0 -1.1,0 -1.5,0 -0.5,-1 -0.7,-1 -0.7,-2 0,-1 0.4,-1 1.1,-2 0.6,0 1.6,0 2.9,0 h 0.3 v -1 c 0,-1 -0.4,-2 -1.3,-2 -0.7,0 -1.5,1 -2.3,1 v -1 c 0.9,0 1.7,-1 2.5,-1 0.9,0 1.5,1 1.9,1 0.4,0 0.6,1 0.6,2 v 3 c 0,1 0.2,1 0.7,1 0,0 0.1,0 0.2,0 l 0.1,1 c -0.3,0 -0.6,0 -1,0 -0.6,0 -1,0 -1.2,-1 z m -0.2,-1 v -2 h -0.4 c -0.8,0 -1.4,1 -1.8,1 -0.5,0 -0.7,0 -0.7,1 0,0 0.1,1 0.3,1 0.3,0 0.5,0 0.9,0 0.5,0 1.1,0 1.7,-1 z m 7,2 c -1,0 -1.8,0 -2.5,-1 -0.6,-1 -1,-2 -1,-3 0,-1 0.4,-2 1,-3 0.7,0 1.6,-1 2.7,-1 0.6,0 1.3,0 2,1 v 1 c -0.8,0 -1.4,-1 -1.9,-1 -0.7,0 -1.2,1 -1.6,1 -0.4,1 -0.7,1 -0.7,2 0,1 0.3,2 0.7,2 0.4,1 1,1 1.7,1 0.6,0 1.2,0 1.9,0 v 1 c -0.9,0 -1.6,0 -2.3,0 z m 4.3,0 v -11 h 1.3 v 5 c 0.7,-1 1.6,-2 2.6,-2 0.7,0 1.2,1 1.6,1 0.4,0 0.6,1 0.6,2 v 5 h -1.4 v -5 c 0,0 -0.1,-1 -0.2,-1 -0.2,0 -0.5,0 -0.8,0 -0.9,0 -1.6,0 -2.4,1 v 5 z m 14.1,0 c -0.9,0 -1.7,0 -2.3,0 -1.1,0 -2,0 -2.7,-1 -0.7,-1 -1,-2 -1,-3 0,-1 0.3,-2 0.9,-3 0.6,0 1.4,-1 2.3,-1 0.9,0 1.6,1 2.1,1 0.5,1 0.8,2 0.8,3 l -0.1,1 h -4.6 c 0.2,1 1,2 2.6,2 0.5,0 1.2,0 2,0 z m -4.6,-5 h 3.3 c 0,-1 -0.5,-2 -1.5,-2 -1.1,0 -1.7,1 -1.8,2 z m 6.9,5 v -10 h 3.1 c 1,0 1.7,0 2.2,1 0.5,0 0.8,1 0.8,1 0,2 -0.7,3 -2,3 l 3.3,5 h -1.7 l -2.9,-4 h -1.3 v 4 z m 1.5,-5 h 0.4 c 1.8,0 2.7,-1 2.7,-2 0,-2 -0.7,-2 -2.2,-2 h -0.9 z m 12.9,5 c -0.9,0 -1.7,0 -2.3,0 -1.1,0 -2,0 -2.7,-1 -0.7,-1 -1.1,-2 -1.1,-3 0,-1 0.3,-2 1,-3 0.6,0 1.3,-1 2.3,-1 0.9,0 1.6,1 2.1,1 0.5,1 0.7,2 0.7,3 v 1 h -4.7 c 0.2,1 1.1,2 2.6,2 0.6,0 1.3,0 2.1,0 z m -4.6,-5 h 3.3 c 0,-1 -0.6,-2 -1.6,-2 -1,0 -1.6,1 -1.7,2 z m 10.8,4 c -0.8,1 -1.6,1 -2.4,1 -0.6,0 -1.1,0 -1.5,0 -0.4,-1 -0.6,-1 -0.6,-2 0,-1 0.3,-1 1,-2 0.7,0 1.7,0 2.9,0 h 0.4 v -1 c 0,-1 -0.5,-2 -1.4,-2 -0.7,0 -1.4,1 -2.3,1 v -1 c 0.9,0 1.8,-1 2.6,-1 0.8,0 1.4,1 1.8,1 0.4,0 0.6,1 0.6,2 v 3 c 0,1 0.2,1 0.7,1 0.1,0 0.2,0 0.3,0 l 0.1,1 c -0.3,0 -0.7,0 -1,0 -0.7,0 -1.1,0 -1.2,-1 z m -0.2,-1 v -2 h -0.5 c -0.7,0 -1.3,1 -1.8,1 -0.4,0 -0.7,0 -0.7,1 0,0 0.1,1 0.4,1 0.2,0 0.5,0 0.8,0 0.6,0 1.2,0 1.8,-1 z m 8.8,2 v -1 c -0.5,1 -1.3,1 -2.4,1 -0.9,0 -1.6,0 -2.2,-1 -0.5,0 -0.7,-1 -0.7,-2 0,-2 0.3,-3 0.8,-3 0.6,-1 1.4,-2 2.3,-2 0.9,0 1.6,1 2.2,1 v -4 h 1.4 v 11 z m 0,-6 c -0.7,0 -1.3,-1 -2,-1 -1.2,0 -1.9,1 -1.9,3 0,2 0.6,3 1.7,3 0.8,0 1.5,0 2.2,-1 z m 6,6 c -0.7,0 -1.5,0 -2.6,0 v -2 c 1.1,1 2.1,1 2.8,1 0.6,0 1,0 1.4,0 0.3,-1 0.5,-1 0.5,-1 0,-1 -0.1,-1 -0.3,-1 -0.3,-1 -0.7,-1 -1.3,-1 l -0.7,-1 c -0.8,0 -1.5,-1 -1.8,-1 -0.4,-1 -0.5,-1 -0.5,-2 0,0 0.2,-1 0.8,-2 0.6,0 1.3,0 2.2,0 0.8,0 1.6,0 2.4,0 v 1 c -1,0 -1.8,0 -2.3,0 -0.5,0 -1,0 -1.3,0 -0.3,0 -0.5,1 -0.5,1 0,0 0.2,1 0.4,1 0.2,0 0.7,1 1.3,1 h 0.7 c 0.9,1 1.5,1 1.8,2 0.4,0 0.6,1 0.6,1 0,1 -0.4,2 -1,2 -0.7,1 -1.5,1 -2.6,1 z m 7.8,0 c -0.6,0 -1.2,0 -1.6,0 -0.3,-1 -0.5,-1 -0.5,-2 v -4 h -1 v -1 h 1 v -2 h 1.3 v 2 h 2 v 1 h -2 v 4 c 0,1 0.4,1 1.3,1 0.1,0 0.4,0 0.6,0 v 1 c -0.4,0 -0.8,0 -1.1,0 z m 6.9,-1 c -0.8,1 -1.6,1 -2.4,1 -0.6,0 -1.1,0 -1.5,0 -0.4,-1 -0.6,-1 -0.6,-2 0,-1 0.3,-1 1,-2 0.7,0 1.7,0 3,0 h 0.3 v -1 c 0,-1 -0.5,-2 -1.3,-2 -0.8,0 -1.5,1 -2.4,1 v -1 c 1,0 1.8,-1 2.6,-1 0.8,0 1.4,1 1.8,1 0.4,0 0.6,1 0.6,2 v 3 c 0,1 0.3,1 0.7,1 0.1,0 0.2,0 0.3,0 l 0.1,1 c -0.3,0 -0.7,0 -1,0 -0.6,0 -1,0 -1.2,-1 z m -0.2,-1 v -2 h -0.5 c -0.7,0 -1.3,1 -1.8,1 -0.4,0 -0.6,0 -0.6,1 0,0 0.1,1 0.3,1 0.2,0 0.5,0 0.8,0 0.6,0 1.2,0 1.8,-1 z m 4.1,2 v -7 h 1.3 v 1 c 0.6,-1 1.3,-2 2.4,-2 0.1,0 0.2,0 0.4,0 v 2 c -0.3,0 -0.5,0 -0.6,0 -0.9,0 -1.6,0 -2.2,1 v 5 z m 7.9,0 c -0.6,0 -1.2,0 -1.6,0 -0.3,-1 -0.5,-1 -0.5,-2 v -4 h -1 v -1 h 1 v -2 h 1.3 v 2 h 2 v 1 h -2 v 4 c 0,1 0.4,1 1.3,1 0.1,0 0.4,0 0.6,0 v 1 c -0.4,0 -0.8,0 -1.1,0 z m 3.4,0 v -1 h 1.4 v 1 z m 0,-3 v 0 c 0,-1 0.3,-2 1,-3 h 0.4 c 0.8,-1 1.1,-2 1.1,-2 0,0 -0.1,-1 -0.5,-1 -0.3,0 -0.7,0 -1.2,0 -0.7,0 -1.5,0 -2.2,0 v -1 c 0.8,0 1.6,0 2.3,0 0.9,0 1.7,0 2.2,0 0.6,1 0.9,1 0.9,2 0,0 -0.1,1 -0.3,1 -0.1,0 -0.4,1 -0.9,1 h -0.4 c -0.4,1 -0.7,1 -0.8,1 -0.2,1 -0.2,1 -0.2,2 v 0 z" />
                              <path
                                 inkscape:connector-curvature="0"
                                 id="path988"
                                 style="fill:#42a0a8;fill-opacity:1;fill-rule:nonzero;stroke:none"
                                 d="m -9373.7,-10092 v -10 h 2 l 2.8,8 2.9,-8 h 1.8 v 10 h -1.4 v -8 l -2.8,7 h -1.4 l -2.7,-7 v 8 z m 15.9,-1 c -0.8,1 -1.6,1 -2.3,1 -0.6,0 -1.1,0 -1.5,0 -0.4,-1 -0.6,-1 -0.6,-2 0,-1 0.3,-1 1,-2 0.7,0 1.6,0 2.9,0 h 0.3 v -1 c 0,-1 -0.4,-2 -1.3,-2 -0.7,0 -1.5,1 -2.3,1 v -1 c 0.9,0 1.8,-1 2.6,-1 0.8,0 1.4,1 1.8,1 0.4,0 0.6,1 0.6,2 v 3 c 0,1 0.2,1 0.7,1 0.1,0 0.1,0 0.3,0 v 1 c -0.3,0 -0.6,0 -1,0 -0.6,0 -1,0 -1.2,-1 z m -0.2,-1 v -2 h -0.4 c -0.8,0 -1.4,1 -1.8,1 -0.5,0 -0.7,0 -0.7,1 0,0 0.1,1 0.4,1 0.2,0 0.5,0 0.8,0 0.5,0 1.1,0 1.7,-1 z m 4.1,2 v -7 h 1.4 v 7 z m 0,-9 v -1 h 1.4 v 1 z m 4.1,9 v -7 h 1.3 v 1 c 0.7,-1 1.6,-2 2.6,-2 0.7,0 1.2,1 1.6,1 0.4,0 0.6,1 0.6,2 v 5 h -1.4 v -5 c 0,0 -0.1,-1 -0.2,-1 -0.2,0 -0.5,0 -0.8,0 -0.9,0 -1.6,0 -2.4,1 v 5 z m 8.6,0 v -10 h 2 l 2.8,8 2.9,-8 h 1.8 v 10 h -1.4 v -8 l -2.7,7 h -1.4 l -2.7,-7 v 8 z m 17.6,0 c -0.9,0 -1.7,0 -2.3,0 -1.1,0 -2,0 -2.7,-1 -0.7,-1 -1.1,-2 -1.1,-3 0,-1 0.3,-2 1,-3 0.6,0 1.3,-1 2.3,-1 0.9,0 1.6,1 2.1,1 0.5,1 0.7,2 0.7,3 v 0 h -4.7 c 0.2,2 1.1,3 2.6,3 0.6,0 1.3,0 2.1,0 z m -4.6,-5 h 3.3 c 0,-1 -0.6,-2 -1.6,-2 -1,0 -1.6,1 -1.7,2 z m 6.9,5 v -7 h 1.4 v 1 c 0.6,-1 1.5,-2 2.5,-2 1,0 1.7,1 2,2 0.7,-1 1.5,-2 2.5,-2 0.7,0 1.2,1 1.5,1 0.4,0 0.6,1 0.6,2 v 5 h -1.4 v -5 c 0,-1 -0.3,-1 -1,-1 -0.7,0 -1.4,0 -2.2,1 v 5 h -1.3 v -5 c 0,-1 -0.4,-1 -1,-1 -0.7,0 -1.4,0 -2.2,1 v 5 z m 15,0 c -0.6,0 -1.5,0 -2.6,0 v -2 c 1.2,1 2.1,1 2.8,1 0.6,0 1.1,0 1.4,0 0.4,-1 0.5,-1 0.5,-1 0,-1 -0.1,-1 -0.3,-1 -0.2,-1 -0.7,-1 -1.3,-1 l -0.7,-1 c -0.8,0 -1.4,-1 -1.8,-1 -0.3,-1 -0.5,-1 -0.5,-2 0,0 0.3,-1 0.8,-2 0.6,0 1.3,0 2.2,0 0.8,0 1.6,0 2.5,0 v 1 c -1.1,0 -1.9,0 -2.4,0 -0.5,0 -0.9,0 -1.2,0 -0.4,0 -0.5,1 -0.5,1 0,0 0.1,1 0.3,1 0.3,0 0.7,1 1.3,1 h 0.7 c 0.9,1 1.5,1 1.9,2 0.3,0 0.5,1 0.5,1 0,1 -0.3,2 -1,2 -0.6,1 -1.5,1 -2.6,1 z m 7.9,0 c -0.7,0 -1.2,0 -1.6,0 -0.4,-1 -0.6,-1 -0.6,-2 v -4 h -0.9 v -1 h 0.9 v -2 h 1.3 v 2 h 2 v 1 h -2 v 4 c 0,1 0.5,1 1.3,1 0.2,0 0.4,0 0.6,0 v 1 c -0.4,0 -0.7,0 -1,0 z m 6.8,-1 c -0.8,1 -1.6,1 -2.3,1 -0.6,0 -1.2,0 -1.6,0 -0.4,-1 -0.6,-1 -0.6,-2 0,-1 0.4,-1 1.1,-2 0.6,0 1.6,0 2.9,0 h 0.3 v -1 c 0,-1 -0.4,-2 -1.3,-2 -0.7,0 -1.5,1 -2.3,1 v -1 c 0.9,0 1.7,-1 2.5,-1 0.9,0 1.5,1 1.9,1 0.4,0 0.6,1 0.6,2 v 3 c 0,1 0.2,1 0.7,1 0,0 0.1,0 0.2,0 l 0.1,1 c -0.3,0 -0.6,0 -1,0 -0.6,0 -1,0 -1.2,-1 z m -0.2,-1 v -2 h -0.4 c -0.8,0 -1.4,1 -1.8,1 -0.5,0 -0.7,0 -0.7,1 0,0 0.1,1 0.3,1 0.3,0 0.5,0 0.9,0 0.5,0 1.1,0 1.7,-1 z m 4.1,2 v -7 h 1.4 v 1 c 0.5,-1 1.3,-2 2.3,-2 0.1,0 0.3,0 0.4,0 v 2 c -0.2,0 -0.4,0 -0.6,0 -0.9,0 -1.6,0 -2.1,1 v 5 z m 8,0 c -0.7,0 -1.3,0 -1.6,0 -0.4,-1 -0.6,-1 -0.6,-2 v -4 h -0.9 v -1 h 0.9 v -2 h 1.3 v 2 h 2 v 1 h -2 v 4 c 0,1 0.5,1 1.3,1 0.2,0 0.4,0 0.6,0 v 1 c -0.4,0 -0.7,0 -1,0 z m 3.2,0 v -1 h 1.3 v 1 z m 0.1,-3 -0.1,-5 v -2 h 1.3 v 2 l -0.2,5 z" />
                              <path
                                 inkscape:connector-curvature="0"
                                 id="path990"
                                 style="fill:#42a848;fill-opacity:1;fill-rule:nonzero;stroke:none"
                                 d="m -9467.7,-9956 v -10.1 h 2.8 c 1.2,0 2.1,0.2 2.6,0.6 0.5,0.4 0.8,1.1 0.8,2 0,1.1 -0.4,2 -1.1,2.6 -0.7,0.6 -1.7,0.9 -3,0.9 h -0.7 v 4 z m 1.4,-5.1 h 0.6 c 0.9,0 1.5,-0.2 2,-0.6 0.4,-0.4 0.7,-0.9 0.7,-1.7 0,-0.6 -0.2,-1 -0.6,-1.3 -0.3,-0.2 -0.9,-0.3 -1.8,-0.3 h -0.9 z m 6.3,5.1 v -10.1 h 2 l 2.8,7.8 2.9,-7.8 h 1.8 v 10.1 h -1.3 v -8.2 l -2.8,7.5 h -1.4 l -2.7,-7.6 v 8.3 z m 14.5,0 v -9 h -3.6 v -1.1 h 8.6 v 1.1 h -3.6 v 9 z m 6.7,-2.3 v -1 h 8.1 v 1 z m 0,-2.5 v -1 h 8.1 v 1 z m 11.1,2.5 v -1 h 8.1 v 1 z m 0,-2.5 v -1 h 8.1 v 1 z m 14,5.1 c -1,0 -1.9,-0.5 -2.5,-1.5 -0.7,-1 -1,-2.3 -1,-3.9 0,-1.6 0.3,-2.8 1,-3.8 0.6,-1 1.5,-1.5 2.5,-1.5 1.1,0 2,0.5 2.6,1.5 0.7,1 1,2.2 1,3.8 0,1.6 -0.3,2.9 -1,3.9 -0.6,1 -1.5,1.5 -2.6,1.5 z m 0,-1.1 c 1.4,0 2.1,-1.4 2.1,-4.3 0,-2.8 -0.7,-4.3 -2.1,-4.3 -1.4,0 -2.1,1.5 -2.1,4.3 0,2.9 0.7,4.3 2.1,4.3 z" />
                              <path
                                 inkscape:connector-curvature="0"
                                 id="path992"
                                 style="fill:#42a848;fill-opacity:1;fill-rule:nonzero;stroke:none"
                                 d="m -9731.4,-10118 2.8,-4 -2.7,-3 h 1.6 l 2.2,2 1.9,-2 h 1.3 l -2.5,3 2.8,4 h -1.6 l -2.3,-3 -2.1,3 z m 9.5,-2 v -1 h 8.1 v 1 z m 0,-3 v -1 h 8.1 v 1 z m 11.1,3 v -1 h 8.1 v 1 z m 0,-3 v -1 h 8.1 v 1 z m 15.3,5 c -1.6,0 -2.8,0 -3.7,-1 -0.8,-1 -1.2,-2 -1.2,-4 0,-2 0.4,-3 1.3,-4 0.8,-1 2.1,-1 3.7,-1 0.9,0 1.9,0 3.1,0 v 1 c -1.3,0 -2.4,0 -3.2,0 -1.1,0 -1.9,0 -2.5,1 -0.6,1 -0.9,2 -0.9,3 0,1 0.3,2 0.9,3 0.7,1 1.6,1 2.7,1 0.9,0 2,0 3.1,-1 v 1 c -1,1 -2.1,1 -3.3,1 z m 10.5,-4 -1.8,-4 -1.7,4 z m 1.5,4 -1.1,-3 h -4.3 l -1.1,3 h -1.4 l 4.1,-10 h 1.4 l 3.9,10 z m 7.3,0 c -1.5,0 -2.8,0 -3.6,-1 -0.9,-1 -1.3,-2 -1.3,-4 0,-2 0.4,-3 1.3,-4 0.9,-1 2.1,-1 3.7,-1 0.9,0 2,0 3.2,0 v 1 c -1.4,0 -2.5,0 -3.2,0 -1.1,0 -2,0 -2.6,1 -0.6,1 -0.9,2 -0.9,3 0,1 0.3,2 1,3 0.6,1 1.5,1 2.6,1 1,0 2,0 3.1,-1 v 1 c -1,1 -2.1,1 -3.3,1 z m 5.4,0 v -10 h 1.4 v 4 h 4.8 v -4 h 1.5 v 10 h -1.5 v -5 h -4.8 v 5 z m 10.3,0 v -10 h 5.6 v 1 h -4.2 v 3 h 3.5 v 1 h -3.5 v 4 h 4.5 v 1 z m 6.3,2 v -1 h 7 v 1 z m 10.2,-2 c -0.6,0 -1.5,0 -2.6,0 v -2 c 1.2,1 2.1,1 2.8,1 0.6,0 1.1,0 1.4,0 0.4,-1 0.5,-1 0.5,-1 0,-1 -0.1,-1 -0.3,-1 -0.2,-1 -0.7,-1 -1.3,-1 l -0.7,-1 c -0.8,0 -1.4,-1 -1.8,-1 -0.3,-1 -0.5,-1 -0.5,-2 0,0 0.3,-1 0.8,-2 0.6,0 1.3,0 2.2,0 0.8,0 1.6,0 2.5,0 v 1 c -1.1,0 -1.9,0 -2.4,0 -0.5,0 -0.9,0 -1.3,0 -0.3,0 -0.4,1 -0.4,1 0,0 0.1,1 0.3,1 0.3,0 0.7,1 1.3,1 h 0.7 c 0.9,1 1.5,1 1.9,2 0.3,0 0.5,1 0.5,1 0,1 -0.3,2 -1,2 -0.6,1 -1.5,1 -2.6,1 z m 5.6,0 v -10 h 2.8 c 1.2,0 2.1,0 2.6,1 0.5,0 0.8,1 0.8,2 0,1 -0.4,1 -1.1,2 -0.7,1 -1.8,1 -3,1 h -0.7 v 4 z m 1.4,-5 h 0.6 c 0.9,0 1.5,0 2,-1 0.4,0 0.7,-1 0.7,-1 0,-1 -0.2,-1 -0.6,-2 -0.3,0 -0.9,0 -1.8,0 h -0.9 z m 6.3,5 v -10 h 5.7 v 1 h -4.2 v 3 h 3.5 v 1 h -3.5 v 4 h 4.5 v 1 z m 7.6,0 v -10 h 5.7 v 1 h -4.2 v 3 h 3.5 v 1 h -3.5 v 4 h 4.5 v 1 z m 7.6,0 v -10 h 3.4 c 1,0 1.8,0 2.4,0 0.6,0 1.2,1 1.6,1 0.7,1 1.1,2 1.1,4 0,1 -0.5,3 -1.4,4 -0.8,1 -2.1,1 -3.7,1 z m 1.4,-1 h 1.9 c 1.3,0 2.2,0 2.8,-1 0.6,-1 0.9,-2 0.9,-3 0,-1 -0.3,-2 -0.9,-3 -0.4,0 -0.8,-1 -1.3,-1 -0.5,0 -1.2,0 -2.2,0 h -1.2 z" />
                              <path
                                 inkscape:connector-curvature="0"
                                 id="path994"
                                 style="fill:#4242a8;fill-opacity:1;fill-rule:nonzero;stroke:none"
                                 d="m -9468.4,-9939 2.8,-3.8 -2.7,-3.6 h 1.6 l 2.2,2.8 1.9,-2.8 h 1.3 l -2.5,3.7 2.8,3.7 h -1.6 l -2.3,-2.9 -2.1,2.9 z m 9.5,-2.3 v -1 h 8.1 v 1 z m 0,-2.5 v -1 h 8.1 v 1 z m 14,5.1 c -1,0 -1.9,-0.5 -2.5,-1.5 -0.7,-1 -1,-2.3 -1,-3.9 0,-1.6 0.3,-2.8 1,-3.8 0.6,-1 1.5,-1.5 2.5,-1.5 1.1,0 2,0.5 2.6,1.5 0.7,1 1,2.2 1,3.8 0,1.6 -0.3,2.9 -1,3.9 -0.6,1 -1.5,1.5 -2.6,1.5 z m 0,-1.1 c 1.4,0 2.2,-1.4 2.2,-4.3 0,-2.8 -0.7,-4.3 -2.2,-4.3 -1.4,0 -2.1,1.5 -2.1,4.3 0,2.9 0.7,4.3 2.1,4.3 z" />
                              <path
                                 inkscape:connector-curvature="0"
                                 id="path996"
                                 style="fill:#42a848;fill-opacity:1;fill-rule:nonzero;stroke:none"
                                 d="m -9433.7,-10092 v -10 h 2.8 c 1.2,0 2.1,0 2.6,1 0.5,0 0.8,1 0.8,2 0,1 -0.4,1 -1.1,2 -0.7,1 -1.7,1 -3,1 h -0.7 v 4 z m 1.4,-5 h 0.6 c 0.9,0 1.5,0 2,-1 0.4,0 0.7,-1 0.7,-1 0,-1 -0.2,-1 -0.6,-2 -0.3,0 -0.9,0 -1.8,0 h -0.9 z m 6.3,5 v -10 h 2 l 2.8,8 2.9,-8 h 1.8 v 10 h -1.3 v -8 l -2.8,7 h -1.4 l -2.7,-7 v 8 z m 14.5,0 v -9 h -3.6 v -1 h 8.6 v 1 h -3.6 v 9 z m 6.7,0 8.1,-4 -8.1,-4 v 1 l 5.8,3 -5.8,3 z m 14,0 c -1.1,0 -1.9,0 -2.6,-1 -0.6,-1 -0.9,-2 -0.9,-4 0,-2 0.3,-3 0.9,-4 0.7,-1 1.5,-1 2.6,-1 1.1,0 1.9,0 2.6,1 0.6,1 0.9,2 0.9,4 0,2 -0.3,3 -0.9,4 -0.7,1 -1.5,1 -2.6,1 z m 0,-1 c 1.4,0 2.1,-1 2.1,-4 0,-3 -0.7,-4 -2.1,-4 -1.4,0 -2.1,1 -2.1,4 0,3 0.7,4 2.1,4 z" />
                              <path
                                 inkscape:connector-curvature="0"
                                 id="path998"
                                 style="fill:#4242a8;fill-opacity:1;fill-rule:nonzero;stroke:none"
                                 d="m -9467.7,-10160 v -10 h 2.8 c 1.2,0 2.1,0 2.6,1 0.5,0 0.8,1 0.8,2 0,1 -0.4,1 -1.1,2 -0.7,1 -1.7,1 -3,1 h -0.7 v 4 z m 1.4,-5 h 0.6 c 0.9,0 1.5,0 2,-1 0.4,0 0.7,-1 0.7,-1 0,-1 -0.2,-1 -0.6,-2 -0.3,0 -0.9,0 -1.8,0 h -0.9 z m 6.3,5 v -10 h 2 l 2.8,8 2.9,-8 h 1.8 v 10 h -1.3 v -8 l -2.8,7 h -1.4 l -2.7,-7 v 8 z m 14.5,0 v -9 h -3.6 v -1 h 8.6 v 1 h -3.6 v 9 z m 6.7,-2 v -1 h 8.1 v 1 z m 0,-3 v -1 h 8.1 v 1 z m 10.9,5 v -11 h 1.4 v 5 c 0.7,-1 1.6,-2 2.6,-2 0.6,0 1.1,1 1.5,1 0.4,0 0.6,1 0.6,2 v 5 h -1.4 v -5 c 0,0 0,-1 -0.2,-1 -0.2,0 -0.4,0 -0.8,0 -0.8,0 -1.6,0 -2.3,1 v 5 z m 8.7,0 v -7 h 1.4 v 7 z m 0,-9 v -1 h 1.4 v 1 z m 6.3,9 c -0.7,0 -1.2,0 -1.6,0 -0.4,-1 -0.6,-1 -0.6,-2 v -4 h -0.9 v -1 h 0.9 v -2 h 1.4 v 2 h 1.9 v 1 h -1.9 v 4 c 0,1 0.4,1 1.2,1 0.2,0 0.4,0 0.7,0 v 1 c -0.4,0 -0.8,0 -1.1,0 z m 1.7,2 v -1 h 7 v 1 z m 8.3,-2 v -7 h 1.3 v 7 z m 0,-9 v -1 h 1.3 v 1 z m 4,9 v -7 h 1.4 v 1 c 0.7,-1 1.6,-2 2.6,-2 0.6,0 1.2,1 1.5,1 0.4,0 0.6,1 0.6,2 v 5 h -1.3 v -5 c 0,0 -0.1,-1 -0.3,-1 -0.1,0 -0.4,0 -0.8,0 -0.8,0 -1.6,0 -2.3,1 v 5 z m 10.7,0 c -0.6,0 -1.4,0 -2.2,0 v -1 c 0.8,0 1.6,0 2.3,0 0.3,0 0.7,0 0.9,0 0.3,0 0.4,-1 0.4,-1 0,0 -0.4,-1 -1.1,-1 h -0.8 c -1.1,-1 -1.7,-2 -1.7,-3 0,0 0.2,-1 0.7,-1 0.4,0 1.1,-1 1.9,-1 0.4,0 0.9,0 1.5,1 h 0.3 v 1 c -0.8,0 -1.4,-1 -1.8,-1 -0.9,0 -1.3,1 -1.3,1 0,1 0.3,1 1,1 l 0.6,1 c 0.8,0 1.3,0 1.6,1 0.3,0 0.4,0 0.4,1 0,1 -0.2,1 -0.7,2 -0.5,0 -1.2,0 -2,0 z m 7.9,1 v 1 c -1,-1 -1.8,-2 -2.4,-3 -0.5,-1 -0.8,-2 -0.8,-3 0,-2 0.3,-3 0.8,-4 0.6,-1 1.4,-2 2.4,-3 v 1 c -0.7,1 -1.2,2 -1.5,2 -0.2,1 -0.4,2 -0.4,4 0,1 0.2,2 0.4,3 0.3,1 0.8,1 1.5,2 z m 1.8,-1 v -11 h 1.4 v 11 z m 7,0 c -1.1,0 -1.9,0 -2.6,-1 -0.6,-1 -0.9,-2 -0.9,-3 0,-1 0.3,-2 0.9,-3 0.7,0 1.5,-1 2.6,-1 1.1,0 2,1 2.6,1 0.6,1 1,2 1,3 0,1 -0.4,2 -1,3 -0.6,1 -1.5,1 -2.6,1 z m 0,-1 c 1.4,0 2.1,-1 2.1,-3 0,-2 -0.7,-3 -2.1,-3 -1.4,0 -2.1,1 -2.1,3 0,2 0.7,3 2.1,3 z m 8.6,1 c -1,0 -1.9,0 -2.5,-1 -0.7,-1 -1,-2 -1,-3 0,-1 0.3,-2 1,-3 0.6,0 1.5,-1 2.7,-1 0.6,0 1.2,0 1.9,1 v 1 c -0.7,0 -1.3,-1 -1.8,-1 -0.7,0 -1.3,1 -1.7,1 -0.4,1 -0.6,1 -0.6,2 0,1 0.2,2 0.6,2 0.5,1 1,1 1.7,1 0.6,0 1.3,0 1.9,0 v 1 c -0.8,0 -1.6,0 -2.2,0 z m 6.2,0 c -0.7,0 -1.6,0 -2.6,0 v -2 c 1.1,1 2.1,1 2.8,1 0.6,0 1,0 1.3,0 0.4,-1 0.6,-1 0.6,-1 0,-1 -0.1,-1 -0.4,-1 -0.2,-1 -0.6,-1 -1.2,-1 l -0.7,-1 c -0.9,0 -1.5,-1 -1.8,-1 -0.4,-1 -0.6,-1 -0.6,-2 0,0 0.3,-1 0.9,-2 0.5,0 1.3,0 2.1,0 0.8,0 1.6,0 2.5,0 v 1 c -1.1,0 -1.9,0 -2.4,0 -0.5,0 -0.9,0 -1.2,0 -0.3,0 -0.5,1 -0.5,1 0,0 0.1,1 0.4,1 0.2,0 0.6,1 1.3,1 h 0.7 c 0.9,1 1.5,1 1.8,2 0.4,0 0.5,1 0.5,1 0,1 -0.3,2 -0.9,2 -0.7,1 -1.5,1 -2.6,1 z m 7.8,0 c -0.7,0 -1.2,0 -1.6,0 -0.4,-1 -0.6,-1 -0.6,-2 v -4 h -0.9 v -1 h 0.9 v -2 h 1.4 v 2 h 1.9 v 1 h -1.9 v 4 c 0,1 0.4,1 1.2,1 0.2,0 0.4,0 0.7,0 v 1 c -0.4,0 -0.8,0 -1.1,0 z m 6.8,-1 c -0.8,1 -1.5,1 -2.3,1 -0.6,0 -1.1,0 -1.5,0 -0.4,-1 -0.6,-1 -0.6,-2 0,-1 0.3,-1 1,-2 0.7,0 1.7,0 2.9,0 h 0.3 v -1 c 0,-1 -0.4,-2 -1.3,-2 -0.7,0 -1.5,1 -2.3,1 v -1 c 0.9,0 1.8,-1 2.6,-1 0.8,0 1.4,1 1.8,1 0.4,0 0.6,1 0.6,2 v 3 c 0,1 0.2,1 0.7,1 0.1,0 0.1,0 0.3,0 l 0.1,1 c -0.3,0 -0.7,0 -1.1,0 -0.6,0 -1,0 -1.2,-1 z m -0.2,-1 v -2 h -0.4 c -0.7,0 -1.3,1 -1.8,1 -0.5,0 -0.7,0 -0.7,1 0,0 0.1,1 0.4,1 0.2,0 0.5,0 0.8,0 0.6,0 1.1,0 1.7,-1 z m 6.4,2 c -0.7,0 -1.2,0 -1.6,0 -0.4,-1 -0.6,-1 -0.6,-2 v -4 h -0.9 v -1 h 0.9 v -2 h 1.3 v 2 h 2 v 1 h -2 v 4 c 0,1 0.5,1 1.3,1 0.2,0 0.4,0 0.7,0 v 1 c -0.5,0 -0.8,0 -1.1,0 z m 8.4,0 c -0.9,0 -1.7,0 -2.3,0 -1.1,0 -2,0 -2.7,-1 -0.7,-1 -1,-2 -1,-3 0,-1 0.3,-2 0.9,-3 0.6,0 1.4,-1 2.3,-1 0.9,0 1.6,1 2.1,1 0.5,1 0.8,2 0.8,3 v 0 h -4.7 c 0.2,2 1,3 2.6,3 0.5,0 1.2,0 2,0 z m -4.6,-5 h 3.3 c 0,-1 -0.5,-2 -1.5,-2 -1.1,0 -1.7,1 -1.8,2 z m 7,7 v -13 h 2.7 v 1 h -1.5 v 11 h 1.5 v 1 z m 4.5,-2 v -10 h 5.6 v 1 h -4.2 v 3 h 3.6 v 1 h -3.6 v 5 z m 7.5,0 v -10 h 5.7 v 1 h -4.3 v 3 h 3.6 v 1 h -3.6 v 4 h 4.5 v 1 z m 10,0 v -9 h -3.6 v -1 h 8.6 v 1 h -3.6 v 9 z m 10.8,0 c -1.6,0 -2.8,0 -3.7,-1 -0.8,-1 -1.3,-2 -1.3,-4 0,-2 0.5,-3 1.4,-4 0.8,-1 2.1,-1 3.6,-1 1,0 2,0 3.2,0 v 1 c -1.4,0 -2.4,0 -3.2,0 -1.1,0 -1.9,0 -2.5,1 -0.6,1 -0.9,2 -0.9,3 0,1 0.3,2 0.9,3 0.7,1 1.6,1 2.7,1 0.9,0 1.9,0 3,-1 v 1 c -1,1 -2,1 -3.2,1 z m 5.3,0 v -10 h 1.5 v 4 h 4.8 v -4 h 1.4 v 10 h -1.4 v -5 h -4.8 v 5 z m 9,2 v -1 h 7 v 1 z m 10.3,-2 c -0.7,0 -1.5,0 -2.6,0 v -2 c 1.1,1 2.1,1 2.8,1 0.6,0 1,0 1.4,0 0.3,-1 0.5,-1 0.5,-1 0,-1 -0.1,-1 -0.4,-1 -0.2,-1 -0.6,-1 -1.2,-1 l -0.7,-1 c -0.9,0 -1.5,-1 -1.8,-1 -0.4,-1 -0.6,-1 -0.6,-2 0,0 0.3,-1 0.9,-2 0.6,0 1.3,0 2.2,0 0.7,0 1.6,0 2.4,0 v 1 c -1,0 -1.8,0 -2.4,0 -0.5,0 -0.9,0 -1.2,0 -0.3,0 -0.5,1 -0.5,1 0,0 0.1,1 0.4,1 0.2,0 0.6,1 1.3,1 h 0.7 c 0.9,1 1.5,1 1.8,2 0.4,0 0.6,1 0.6,1 0,1 -0.4,2 -1,2 -0.7,1 -1.5,1 -2.6,1 z m 8,0 v -9 h -3.6 v -1 h 8.6 v 1 h -3.6 v 9 z m 11.5,-4 -1.7,-4 -1.7,4 z m 1.6,4 -1.1,-3 h -4.3 l -1.1,3 h -1.4 l 4,-10 h 1.5 l 3.9,10 z m 10.6,0 c -1.3,0 -2.3,0 -3.2,0 -1.6,0 -2.9,0 -3.7,-1 -0.9,-1 -1.3,-2 -1.3,-4 0,-2 0.4,-3 1.3,-4 0.8,-1 2.1,-1 3.6,-1 1.1,0 2.1,0 3.3,0 v 1 c -1.4,0 -2.5,0 -3.3,0 -1,0 -1.9,0 -2.5,1 -0.6,1 -0.9,2 -0.9,3 0,1 0.3,2 1,3 0.6,1 1.5,1 2.7,1 0.5,0 1,0 1.5,0 v -3 h 1.5 z m 2.5,0 v -10 h 5.6 v 1 h -4.2 v 3 h 3.6 v 1 h -3.6 v 4 h 4.5 v 1 z m 9.5,2 v -13 h -2.7 v 1 h 1.5 v 11 h -1.5 v 1 z m 1.8,-1 v 1 c 1,-1 1.8,-2 2.4,-3 0.5,-1 0.8,-2 0.8,-3 0,-2 -0.3,-3 -0.8,-4 -0.6,-1 -1.4,-2 -2.4,-3 v 1 c 0.7,1 1.2,2 1.5,2 0.2,1 0.4,2 0.4,4 0,1 -0.2,2 -0.4,3 -0.3,1 -0.8,1 -1.5,2 z m 5.8,-1 v -1 h 1.3 v 1 z m 0,-3 v 0 c 0,-1 0.3,-2 1,-3 h 0.4 c 0.7,-1 1.1,-2 1.1,-2 0,0 -0.2,-1 -0.5,-1 -0.3,0 -0.7,0 -1.3,0 -0.7,0 -1.4,0 -2.2,0 v -1 c 0.9,0 1.7,0 2.4,0 0.9,0 1.7,0 2.2,0 0.6,1 0.8,1 0.8,2 0,0 -0.1,1 -0.2,1 -0.2,0 -0.5,1 -0.9,1 h -0.4 c -0.5,1 -0.7,1 -0.9,1 -0.1,1 -0.2,1 -0.2,2 v 0 z m 8.6,3 c -1.1,0 -1.9,0 -2.6,-1 -0.6,-1 -0.9,-2 -0.9,-4 0,-2 0.3,-3 0.9,-4 0.7,-1 1.5,-1 2.6,-1 1.1,0 1.9,0 2.6,1 0.6,1 0.9,2 0.9,4 0,2 -0.3,3 -0.9,4 -0.7,1 -1.5,1 -2.6,1 z m 0,-1 c 1.4,0 2.1,-1 2.1,-4 0,-3 -0.7,-4 -2.1,-4 -1.4,0 -2.1,1 -2.1,4 0,3 0.7,4 2.1,4 z m 6,1 v -1 h 1.3 v 1 z m 0,-6 v -1 h 1.3 v 1 z m 5,6 v -1 h 2 v -8 l -2,1 v -2 h 3.3 v 9 h 2.1 v 1 z" />
                              <path
                                 inkscape:connector-curvature="0"
                                 id="path1000"
                                 style="fill:none;stroke:#000000;stroke-width:1;stroke-linecap:round;stroke-linejoin:bevel;stroke-miterlimit:10;stroke-dasharray:none;stroke-opacity:1"
                                 d="m -9588,-9932 v -45 c 0,-6.7 0,-13.3 0,-20 v -201 c 0,-7 3.3,-10 10,-10 h 23 c 6.7,0 13.3,0 20,0 h 45" />
                              <path
                                 inkscape:connector-curvature="0"
                                 id="path1002"
                                 style="fill:none;stroke:#000000;stroke-width:1;stroke-linecap:round;stroke-linejoin:bevel;stroke-miterlimit:10;stroke-dasharray:none;stroke-opacity:1"
                                 d="m -9499.7,-10205 9.7,-3 -9.7,-3" />
                              <path
                                 inkscape:connector-curvature="0"
                                 id="path1004"
                                 style="fill:none;stroke:#000000;stroke-width:1;stroke-linecap:round;stroke-linejoin:bevel;stroke-miterlimit:10;stroke-dasharray:none;stroke-opacity:1"
                                 d="m -9477,-10195 v 19 c 0,7 0,13 0,20 v 62" />
                              <path
                                 inkscape:connector-curvature="0"
                                 id="path1006"
                                 style="fill:none;stroke:#000000;stroke-width:1;stroke-linecap:round;stroke-linejoin:bevel;stroke-miterlimit:10;stroke-dasharray:none;stroke-opacity:1"
                                 d="m -9479.6,-10104 2.6,10 2.6,-10" />
                              <path
                                 inkscape:connector-curvature="0"
                                 id="path1008"
                                 style="fill:none;stroke:#000000;stroke-width:1;stroke-linecap:round;stroke-linejoin:bevel;stroke-miterlimit:10;stroke-dasharray:none;stroke-opacity:1"
                                 d="m -9464,-10081 h 203" />
                              <path
                                 inkscape:connector-curvature="0"
                                 id="path1010"
                                 style="fill:none;stroke:#000000;stroke-width:1;stroke-linecap:round;stroke-linejoin:bevel;stroke-miterlimit:10;stroke-dasharray:none;stroke-opacity:1"
                                 d="m -9270.7,-10078 9.7,-3 -9.7,-3" />
                              <path
                                 inkscape:connector-curvature="0"
                                 id="path1012"
                                 style="fill:none;stroke:#000000;stroke-width:1;stroke-linecap:round;stroke-linejoin:bevel;stroke-miterlimit:10;stroke-dasharray:none;stroke-opacity:1"
                                 d="m -9477,-10068 v 139 c 0,6.7 -3.3,10 -10,10 h -88" />
                              <path
                                 inkscape:connector-curvature="0"
                                 id="path1014"
                                 style="fill:none;stroke:#000000;stroke-width:1;stroke-linecap:round;stroke-linejoin:bevel;stroke-miterlimit:10;stroke-dasharray:none;stroke-opacity:1"
                                 d="m -9565.3,-9921.6 -9.7,2.6 9.7,2.6" />
                              <path
                                 inkscape:connector-curvature="0"
                                 id="path1016"
                                 style="fill:none;stroke:#000000;stroke-width:1;stroke-linecap:round;stroke-linejoin:bevel;stroke-miterlimit:10;stroke-dasharray:none;stroke-opacity:1"
                                 d="m -9255.2,-10070 -21.3,32 c -3.7,5 -8.8,8 -15.5,8 h -133 c -6.7,0 -12.1,-3 -16.4,-8 l -27.3,-33" />
                              <path
                                 inkscape:connector-curvature="0"
                                 id="path1018"
                                 style="fill:none;stroke:#000000;stroke-width:1;stroke-linecap:round;stroke-linejoin:bevel;stroke-miterlimit:10;stroke-dasharray:none;stroke-opacity:1"
                                 d="m -9460.6,-10065 -8.1,-6 4.1,9" />
                              <g
                                 transform="matrix(0.66667,0,0,0.66667,-9784,-10221)"
                                 id="g1020" />
                            </g>
                          </g>
                        </g>
                      </g>
                    </g>
                  </g>
                </g>
              </g>
            </g>
          </g>
        </g>
      </g>
    </g>
  </g>
</svg>
